G04 #@! TF.GenerationSoftware,KiCad,Pcbnew,10.0.3*
G04 #@! TF.CreationDate,2026-06-03T10:39:47-07:00*
G04 #@! TF.ProjectId,battery_side,62617474-6572-4795-9f73-6964652e6b69,rev?*
G04 #@! TF.SameCoordinates,Original*
G04 #@! TF.FileFunction,Paste,Top*
G04 #@! TF.FilePolarity,Positive*
%FSLAX46Y46*%
G04 Gerber Fmt 4.6, Leading zero omitted, Abs format (unit mm)*
G04 Created by KiCad (PCBNEW 10.0.3) date 2026-06-03 10:39:47*
%MOMM*%
%LPD*%
G01*
G04 APERTURE LIST*
G04 Aperture macros list*
%AMRoundRect*
0 Rectangle with rounded corners*
0 $1 Rounding radius*
0 $2 $3 $4 $5 $6 $7 $8 $9 X,Y pos of 4 corners*
0 Add a 4 corners polygon primitive as box body*
4,1,4,$2,$3,$4,$5,$6,$7,$8,$9,$2,$3,0*
0 Add four circle primitives for the rounded corners*
1,1,$1+$1,$2,$3*
1,1,$1+$1,$4,$5*
1,1,$1+$1,$6,$7*
1,1,$1+$1,$8,$9*
0 Add four rect primitives between the rounded corners*
20,1,$1+$1,$2,$3,$4,$5,0*
20,1,$1+$1,$4,$5,$6,$7,0*
20,1,$1+$1,$6,$7,$8,$9,0*
20,1,$1+$1,$8,$9,$2,$3,0*%
%AMFreePoly0*
4,1,30,0.200000,1.710000,0.236753,1.697426,0.376386,1.589219,0.526381,1.504463,0.606724,1.473357,0.606723,1.473356,0.687059,1.442253,0.771046,1.423078,0.855035,1.403901,1.028740,1.390056,1.444035,1.390057,1.486461,1.372484,1.504035,1.330057,1.504034,-1.539942,1.486460,-1.582368,1.444038,-1.599942,1.046227,-1.599966,0.870517,-1.612848,0.700699,-1.650739,0.538235,-1.712988,
0.386579,-1.798267,0.245504,-1.907443,0.208783,-1.919992,-1.650000,-1.919992,-1.692426,-1.902418,-1.710000,-1.859992,-1.710000,1.650007,-1.692426,1.692433,-1.650000,1.710007,0.200000,1.710000,0.200000,1.710000,$1*%
G04 Aperture macros list end*
%ADD10RoundRect,0.150000X-0.875000X-0.150000X0.875000X-0.150000X0.875000X0.150000X-0.875000X0.150000X0*%
%ADD11FreePoly0,0.000000*%
%ADD12FreePoly0,180.000000*%
%ADD13RoundRect,0.225000X-0.225000X-0.250000X0.225000X-0.250000X0.225000X0.250000X-0.225000X0.250000X0*%
%ADD14RoundRect,0.250000X-1.000000X-0.650000X1.000000X-0.650000X1.000000X0.650000X-1.000000X0.650000X0*%
%ADD15RoundRect,0.150000X-0.587500X-0.150000X0.587500X-0.150000X0.587500X0.150000X-0.587500X0.150000X0*%
%ADD16RoundRect,0.250000X-0.262500X-0.450000X0.262500X-0.450000X0.262500X0.450000X-0.262500X0.450000X0*%
%ADD17RoundRect,0.218750X-0.218750X-0.381250X0.218750X-0.381250X0.218750X0.381250X-0.218750X0.381250X0*%
%ADD18RoundRect,0.150000X-0.512500X-0.150000X0.512500X-0.150000X0.512500X0.150000X-0.512500X0.150000X0*%
%ADD19RoundRect,0.250000X-0.325000X-1.100000X0.325000X-1.100000X0.325000X1.100000X-0.325000X1.100000X0*%
%ADD20RoundRect,0.150000X-0.825000X-0.150000X0.825000X-0.150000X0.825000X0.150000X-0.825000X0.150000X0*%
%ADD21R,0.900000X0.900000*%
%ADD22R,1.500000X0.900000*%
%ADD23R,0.900000X1.500000*%
G04 APERTURE END LIST*
D10*
G04 #@! TO.C,RTC1*
X53350000Y-43555000D03*
X53350000Y-44825000D03*
X53350000Y-46095000D03*
X53350000Y-47365000D03*
X53350000Y-48635000D03*
X53350000Y-49905000D03*
X53350000Y-51175000D03*
X53350000Y-52445000D03*
X62650000Y-52445000D03*
X62650000Y-51175000D03*
X62650000Y-49905000D03*
X62650000Y-48635000D03*
X62650000Y-47365000D03*
X62650000Y-46095000D03*
X62650000Y-44825000D03*
X62650000Y-43555000D03*
G04 #@! TD*
D11*
G04 #@! TO.C,BAT1*
X32850000Y-66900000D03*
D12*
X63150000Y-67100000D03*
G04 #@! TD*
D13*
G04 #@! TO.C,C_BST*
X29225000Y-22000000D03*
X30775000Y-22000000D03*
G04 #@! TD*
D14*
G04 #@! TO.C,TVS2*
X76000000Y-51000000D03*
X80000000Y-51000000D03*
G04 #@! TD*
G04 #@! TO.C,TVS1*
X52000000Y-18000000D03*
X56000000Y-18000000D03*
G04 #@! TD*
D15*
G04 #@! TO.C,Q1*
X13062500Y-26050000D03*
X13062500Y-27950000D03*
X14937500Y-27000000D03*
G04 #@! TD*
D16*
G04 #@! TO.C,R3*
X19087500Y-32000000D03*
X20912500Y-32000000D03*
G04 #@! TD*
D17*
G04 #@! TO.C,L1*
X34937500Y-27000000D03*
X37062500Y-27000000D03*
G04 #@! TD*
D18*
G04 #@! TO.C,U1*
X28862500Y-26050000D03*
X28862500Y-27000000D03*
X28862500Y-27950000D03*
X31137500Y-27950000D03*
X31137500Y-27000000D03*
X31137500Y-26050000D03*
G04 #@! TD*
D19*
G04 #@! TO.C,C1*
X28525000Y-33000000D03*
X31475000Y-33000000D03*
G04 #@! TD*
D20*
G04 #@! TO.C,U3*
X75525000Y-43095000D03*
X75525000Y-44365000D03*
X75525000Y-45635000D03*
X75525000Y-46905000D03*
X80475000Y-46905000D03*
X80475000Y-45635000D03*
X80475000Y-44365000D03*
X80475000Y-43095000D03*
G04 #@! TD*
D16*
G04 #@! TO.C,R4*
X19087500Y-27000000D03*
X20912500Y-27000000D03*
G04 #@! TD*
D21*
G04 #@! TO.C,MOD1*
X27095606Y-48710000D03*
X27100000Y-45910000D03*
X27100000Y-47310000D03*
X28495606Y-48710000D03*
X28500000Y-45910000D03*
X28500000Y-47310000D03*
X29895606Y-48710000D03*
X29900000Y-45910000D03*
X29900000Y-47310000D03*
D22*
X21250000Y-39590000D03*
X21250000Y-40860000D03*
X21250000Y-42130000D03*
X21250000Y-43400000D03*
X21250000Y-44670000D03*
X21250000Y-45940000D03*
X21250000Y-47210000D03*
X21250000Y-48480000D03*
X21250000Y-49750000D03*
X21250000Y-51020000D03*
X21250000Y-52290000D03*
X21250000Y-53560000D03*
X21250000Y-54830000D03*
X21250000Y-56100000D03*
D23*
X23015000Y-57350000D03*
X24285000Y-57350000D03*
X25555000Y-57350000D03*
X26825000Y-57350000D03*
X28095000Y-57350000D03*
X29365000Y-57350000D03*
X30635000Y-57350000D03*
X31905000Y-57350000D03*
X33175000Y-57350000D03*
X34445000Y-57350000D03*
X35715000Y-57350000D03*
X36985000Y-57350000D03*
D22*
X38750000Y-56100000D03*
X38750000Y-54830000D03*
X38750000Y-53560000D03*
X38750000Y-52290000D03*
X38750000Y-51020000D03*
X38750000Y-49750000D03*
X38750000Y-48480000D03*
X38750000Y-47210000D03*
X38750000Y-45940000D03*
X38750000Y-44670000D03*
X38750000Y-43400000D03*
X38750000Y-42130000D03*
X38750000Y-40860000D03*
X38750000Y-39590000D03*
G04 #@! TD*
D15*
G04 #@! TO.C,Q2*
X13062500Y-31050000D03*
X13062500Y-32950000D03*
X14937500Y-32000000D03*
G04 #@! TD*
D19*
G04 #@! TO.C,C2*
X39525000Y-27000000D03*
X42475000Y-27000000D03*
G04 #@! TD*
D14*
G04 #@! TO.C,D1*
X52000000Y-12000000D03*
X56000000Y-12000000D03*
G04 #@! TD*
D19*
G04 #@! TO.C,C3*
X39525000Y-33000000D03*
X42475000Y-33000000D03*
G04 #@! TD*
G04 #@! TO.C,C4*
X45525000Y-33000000D03*
X48475000Y-33000000D03*
G04 #@! TD*
M02*
