M48
; DRILL file KiCad 10.0.3 date 2026-06-03T10:39:47
; FORMAT={-:-/ absolute / metric / decimal}
; #@! TF.CreationDate,2026-06-03T10:39:47-07:00
; #@! TF.GenerationSoftware,Kicad,Pcbnew,10.0.3
; #@! TF.FileFunction,MixedPlating,1,2
FMAT,2
METRIC
; #@! TA.AperFunction,Plated,PTH,ComponentDrill
T1C0.200
; #@! TA.AperFunction,Plated,PTH,ViaDrill
T2C0.300
; #@! TA.AperFunction,Plated,PTH,ViaDrill
T3C0.400
; #@! TA.AperFunction,Plated,PTH,ComponentDrill
T4C0.890
; #@! TA.AperFunction,Plated,PTH,ComponentDrill
T5C1.000
; #@! TA.AperFunction,Plated,PTH,ComponentDrill
T6C1.100
; #@! TA.AperFunction,Plated,PTH,ComponentDrill
T7C1.170
; #@! TA.AperFunction,Plated,PTH,ComponentDrill
T8C1.300
; #@! TA.AperFunction,Plated,PTH,ComponentDrill
T9C1.570
; #@! TA.AperFunction,NonPlated,NPTH,ComponentDrill
T10C3.200
; #@! TA.AperFunction,NonPlated,NPTH,ComponentDrill
T11C3.250
%
G90
G05
T1
X27.1Y-46.61
X27.1Y-48.01
X27.8Y-45.91
X27.8Y-47.31
X27.8Y-48.71
X28.5Y-46.61
X28.5Y-48.01
X29.2Y-45.91
X29.2Y-47.31
X29.2Y-48.71
X29.9Y-46.61
X29.9Y-48.01
T2
X10.312Y-33.16
X13.746Y-29.979
X15.41Y-25.309
X22.563Y-27.379
X22.801Y-47.054
X22.85Y-38.945
X22.85Y-54.617
X23.624Y-41.333
X25.72Y-41.59
X27.665Y-38.781
X30.274Y-33.16
X30.665Y-38.546
X33.072Y-27.961
X37.376Y-39.813
X40.825Y-27.375
X43.788Y-27.375
X43.788Y-33.16
X49.763Y-33.16
X51.4Y-48.745
X51.4Y-50.015
X51.962Y-38.148
X52.856Y-38.119
X54.1Y-18.003
X55.268Y-50.647
X55.4Y-52.309
X58.848Y-46.335
X59.717Y-44.615
X59.906Y-47.622
X60.512Y-43.57
X60.523Y-67.869
X61.118Y-48.367
X61.118Y-49.637
X61.118Y-51.083
X61.118Y-52.353
X62.011Y-64.355
X64.513Y-47.732
X73.125Y-42.889
X76.364Y-53.548
X77.684Y-48.616
X78.191Y-50.375
X78.375Y-44.786
X80.973Y-48.137
X82.987Y-43.904
X84.688Y-59.639
T3
X60.887Y-39.652
X60.924Y-9.837
T4
X78.0Y-18.0
X79.016Y-19.78
X80.032Y-18.0
X81.048Y-19.78
X82.064Y-18.0
X83.08Y-19.78
X84.096Y-18.0
X85.112Y-19.78
T5
X60.0Y-30.0
X62.54Y-30.0
X65.08Y-30.0
X88.0Y-36.0
X88.0Y-38.54
X88.0Y-41.08
X88.0Y-43.62
X88.0Y-56.0
X88.0Y-58.54
X88.0Y-61.08
X88.0Y-63.62
T6
X10.0Y-60.0
X10.0Y-64.5
X16.5Y-60.0
X16.5Y-64.5
T7
X28.0Y-12.0
X28.0Y-17.0
X45.8Y-12.0
X45.8Y-17.0
T8
X15.0Y-13.0
X20.08Y-13.0
T9
X73.43Y-18.89
X89.69Y-18.89
T10
X3.0Y-3.0
X3.0Y-72.0
X92.0Y-3.0
X92.0Y-72.0
T11
X75.21Y-15.46
X87.91Y-15.46
M30
