G04 #@! TF.GenerationSoftware,KiCad,Pcbnew,10.0.3*
G04 #@! TF.CreationDate,2026-06-03T10:39:47-07:00*
G04 #@! TF.ProjectId,battery_side,62617474-6572-4795-9f73-6964652e6b69,rev?*
G04 #@! TF.SameCoordinates,Original*
G04 #@! TF.FileFunction,Legend,Top*
G04 #@! TF.FilePolarity,Positive*
%FSLAX46Y46*%
G04 Gerber Fmt 4.6, Leading zero omitted, Abs format (unit mm)*
G04 Created by KiCad (PCBNEW 10.0.3) date 2026-06-03 10:39:47*
%MOMM*%
%LPD*%
G01*
G04 APERTURE LIST*
%ADD10C,0.150000*%
%ADD11C,0.120000*%
G04 APERTURE END LIST*
D10*
X56952380Y-42154819D02*
X56619047Y-41678628D01*
X56380952Y-42154819D02*
X56380952Y-41154819D01*
X56380952Y-41154819D02*
X56761904Y-41154819D01*
X56761904Y-41154819D02*
X56857142Y-41202438D01*
X56857142Y-41202438D02*
X56904761Y-41250057D01*
X56904761Y-41250057D02*
X56952380Y-41345295D01*
X56952380Y-41345295D02*
X56952380Y-41488152D01*
X56952380Y-41488152D02*
X56904761Y-41583390D01*
X56904761Y-41583390D02*
X56857142Y-41631009D01*
X56857142Y-41631009D02*
X56761904Y-41678628D01*
X56761904Y-41678628D02*
X56380952Y-41678628D01*
X57238095Y-41154819D02*
X57809523Y-41154819D01*
X57523809Y-42154819D02*
X57523809Y-41154819D01*
X58714285Y-42059580D02*
X58666666Y-42107200D01*
X58666666Y-42107200D02*
X58523809Y-42154819D01*
X58523809Y-42154819D02*
X58428571Y-42154819D01*
X58428571Y-42154819D02*
X58285714Y-42107200D01*
X58285714Y-42107200D02*
X58190476Y-42011961D01*
X58190476Y-42011961D02*
X58142857Y-41916723D01*
X58142857Y-41916723D02*
X58095238Y-41726247D01*
X58095238Y-41726247D02*
X58095238Y-41583390D01*
X58095238Y-41583390D02*
X58142857Y-41392914D01*
X58142857Y-41392914D02*
X58190476Y-41297676D01*
X58190476Y-41297676D02*
X58285714Y-41202438D01*
X58285714Y-41202438D02*
X58428571Y-41154819D01*
X58428571Y-41154819D02*
X58523809Y-41154819D01*
X58523809Y-41154819D02*
X58666666Y-41202438D01*
X58666666Y-41202438D02*
X58714285Y-41250057D01*
X59666666Y-42154819D02*
X59095238Y-42154819D01*
X59380952Y-42154819D02*
X59380952Y-41154819D01*
X59380952Y-41154819D02*
X59285714Y-41297676D01*
X59285714Y-41297676D02*
X59190476Y-41392914D01*
X59190476Y-41392914D02*
X59095238Y-41440533D01*
X87666666Y-32784819D02*
X87666666Y-33499104D01*
X87666666Y-33499104D02*
X87619047Y-33641961D01*
X87619047Y-33641961D02*
X87523809Y-33737200D01*
X87523809Y-33737200D02*
X87380952Y-33784819D01*
X87380952Y-33784819D02*
X87285714Y-33784819D01*
X88047619Y-32784819D02*
X88666666Y-32784819D01*
X88666666Y-32784819D02*
X88333333Y-33165771D01*
X88333333Y-33165771D02*
X88476190Y-33165771D01*
X88476190Y-33165771D02*
X88571428Y-33213390D01*
X88571428Y-33213390D02*
X88619047Y-33261009D01*
X88619047Y-33261009D02*
X88666666Y-33356247D01*
X88666666Y-33356247D02*
X88666666Y-33594342D01*
X88666666Y-33594342D02*
X88619047Y-33689580D01*
X88619047Y-33689580D02*
X88571428Y-33737200D01*
X88571428Y-33737200D02*
X88476190Y-33784819D01*
X88476190Y-33784819D02*
X88190476Y-33784819D01*
X88190476Y-33784819D02*
X88095238Y-33737200D01*
X88095238Y-33737200D02*
X88047619Y-33689580D01*
X5290476Y-62181009D02*
X5433333Y-62228628D01*
X5433333Y-62228628D02*
X5480952Y-62276247D01*
X5480952Y-62276247D02*
X5528571Y-62371485D01*
X5528571Y-62371485D02*
X5528571Y-62514342D01*
X5528571Y-62514342D02*
X5480952Y-62609580D01*
X5480952Y-62609580D02*
X5433333Y-62657200D01*
X5433333Y-62657200D02*
X5338095Y-62704819D01*
X5338095Y-62704819D02*
X4957143Y-62704819D01*
X4957143Y-62704819D02*
X4957143Y-61704819D01*
X4957143Y-61704819D02*
X5290476Y-61704819D01*
X5290476Y-61704819D02*
X5385714Y-61752438D01*
X5385714Y-61752438D02*
X5433333Y-61800057D01*
X5433333Y-61800057D02*
X5480952Y-61895295D01*
X5480952Y-61895295D02*
X5480952Y-61990533D01*
X5480952Y-61990533D02*
X5433333Y-62085771D01*
X5433333Y-62085771D02*
X5385714Y-62133390D01*
X5385714Y-62133390D02*
X5290476Y-62181009D01*
X5290476Y-62181009D02*
X4957143Y-62181009D01*
X5814286Y-61704819D02*
X6385714Y-61704819D01*
X6100000Y-62704819D02*
X6100000Y-61704819D01*
X6719048Y-62704819D02*
X6719048Y-61704819D01*
X6719048Y-61704819D02*
X7290476Y-62704819D01*
X7290476Y-62704819D02*
X7290476Y-61704819D01*
X8290476Y-62704819D02*
X7719048Y-62704819D01*
X8004762Y-62704819D02*
X8004762Y-61704819D01*
X8004762Y-61704819D02*
X7909524Y-61847676D01*
X7909524Y-61847676D02*
X7814286Y-61942914D01*
X7814286Y-61942914D02*
X7719048Y-61990533D01*
X46785714Y-72481009D02*
X46928571Y-72528628D01*
X46928571Y-72528628D02*
X46976190Y-72576247D01*
X46976190Y-72576247D02*
X47023809Y-72671485D01*
X47023809Y-72671485D02*
X47023809Y-72814342D01*
X47023809Y-72814342D02*
X46976190Y-72909580D01*
X46976190Y-72909580D02*
X46928571Y-72957200D01*
X46928571Y-72957200D02*
X46833333Y-73004819D01*
X46833333Y-73004819D02*
X46452381Y-73004819D01*
X46452381Y-73004819D02*
X46452381Y-72004819D01*
X46452381Y-72004819D02*
X46785714Y-72004819D01*
X46785714Y-72004819D02*
X46880952Y-72052438D01*
X46880952Y-72052438D02*
X46928571Y-72100057D01*
X46928571Y-72100057D02*
X46976190Y-72195295D01*
X46976190Y-72195295D02*
X46976190Y-72290533D01*
X46976190Y-72290533D02*
X46928571Y-72385771D01*
X46928571Y-72385771D02*
X46880952Y-72433390D01*
X46880952Y-72433390D02*
X46785714Y-72481009D01*
X46785714Y-72481009D02*
X46452381Y-72481009D01*
X47404762Y-72719104D02*
X47880952Y-72719104D01*
X47309524Y-73004819D02*
X47642857Y-72004819D01*
X47642857Y-72004819D02*
X47976190Y-73004819D01*
X48166667Y-72004819D02*
X48738095Y-72004819D01*
X48452381Y-73004819D02*
X48452381Y-72004819D01*
X49595238Y-73004819D02*
X49023810Y-73004819D01*
X49309524Y-73004819D02*
X49309524Y-72004819D01*
X49309524Y-72004819D02*
X49214286Y-72147676D01*
X49214286Y-72147676D02*
X49119048Y-72242914D01*
X49119048Y-72242914D02*
X49023810Y-72290533D01*
X31951428Y-22359580D02*
X31903809Y-22407200D01*
X31903809Y-22407200D02*
X31760952Y-22454819D01*
X31760952Y-22454819D02*
X31665714Y-22454819D01*
X31665714Y-22454819D02*
X31522857Y-22407200D01*
X31522857Y-22407200D02*
X31427619Y-22311961D01*
X31427619Y-22311961D02*
X31380000Y-22216723D01*
X31380000Y-22216723D02*
X31332381Y-22026247D01*
X31332381Y-22026247D02*
X31332381Y-21883390D01*
X31332381Y-21883390D02*
X31380000Y-21692914D01*
X31380000Y-21692914D02*
X31427619Y-21597676D01*
X31427619Y-21597676D02*
X31522857Y-21502438D01*
X31522857Y-21502438D02*
X31665714Y-21454819D01*
X31665714Y-21454819D02*
X31760952Y-21454819D01*
X31760952Y-21454819D02*
X31903809Y-21502438D01*
X31903809Y-21502438D02*
X31951428Y-21550057D01*
X32141905Y-22550057D02*
X32903809Y-22550057D01*
X33475238Y-21931009D02*
X33618095Y-21978628D01*
X33618095Y-21978628D02*
X33665714Y-22026247D01*
X33665714Y-22026247D02*
X33713333Y-22121485D01*
X33713333Y-22121485D02*
X33713333Y-22264342D01*
X33713333Y-22264342D02*
X33665714Y-22359580D01*
X33665714Y-22359580D02*
X33618095Y-22407200D01*
X33618095Y-22407200D02*
X33522857Y-22454819D01*
X33522857Y-22454819D02*
X33141905Y-22454819D01*
X33141905Y-22454819D02*
X33141905Y-21454819D01*
X33141905Y-21454819D02*
X33475238Y-21454819D01*
X33475238Y-21454819D02*
X33570476Y-21502438D01*
X33570476Y-21502438D02*
X33618095Y-21550057D01*
X33618095Y-21550057D02*
X33665714Y-21645295D01*
X33665714Y-21645295D02*
X33665714Y-21740533D01*
X33665714Y-21740533D02*
X33618095Y-21835771D01*
X33618095Y-21835771D02*
X33570476Y-21883390D01*
X33570476Y-21883390D02*
X33475238Y-21931009D01*
X33475238Y-21931009D02*
X33141905Y-21931009D01*
X34094286Y-22407200D02*
X34237143Y-22454819D01*
X34237143Y-22454819D02*
X34475238Y-22454819D01*
X34475238Y-22454819D02*
X34570476Y-22407200D01*
X34570476Y-22407200D02*
X34618095Y-22359580D01*
X34618095Y-22359580D02*
X34665714Y-22264342D01*
X34665714Y-22264342D02*
X34665714Y-22169104D01*
X34665714Y-22169104D02*
X34618095Y-22073866D01*
X34618095Y-22073866D02*
X34570476Y-22026247D01*
X34570476Y-22026247D02*
X34475238Y-21978628D01*
X34475238Y-21978628D02*
X34284762Y-21931009D01*
X34284762Y-21931009D02*
X34189524Y-21883390D01*
X34189524Y-21883390D02*
X34141905Y-21835771D01*
X34141905Y-21835771D02*
X34094286Y-21740533D01*
X34094286Y-21740533D02*
X34094286Y-21645295D01*
X34094286Y-21645295D02*
X34141905Y-21550057D01*
X34141905Y-21550057D02*
X34189524Y-21502438D01*
X34189524Y-21502438D02*
X34284762Y-21454819D01*
X34284762Y-21454819D02*
X34522857Y-21454819D01*
X34522857Y-21454819D02*
X34665714Y-21502438D01*
X34951429Y-21454819D02*
X35522857Y-21454819D01*
X35237143Y-22454819D02*
X35237143Y-21454819D01*
X36566666Y-9681009D02*
X36233333Y-9681009D01*
X36233333Y-10204819D02*
X36233333Y-9204819D01*
X36233333Y-9204819D02*
X36709523Y-9204819D01*
X37614285Y-10204819D02*
X37042857Y-10204819D01*
X37328571Y-10204819D02*
X37328571Y-9204819D01*
X37328571Y-9204819D02*
X37233333Y-9347676D01*
X37233333Y-9347676D02*
X37138095Y-9442914D01*
X37138095Y-9442914D02*
X37042857Y-9490533D01*
X76333333Y-53104819D02*
X76904761Y-53104819D01*
X76619047Y-54104819D02*
X76619047Y-53104819D01*
X77095238Y-53104819D02*
X77428571Y-54104819D01*
X77428571Y-54104819D02*
X77761904Y-53104819D01*
X78047619Y-54057200D02*
X78190476Y-54104819D01*
X78190476Y-54104819D02*
X78428571Y-54104819D01*
X78428571Y-54104819D02*
X78523809Y-54057200D01*
X78523809Y-54057200D02*
X78571428Y-54009580D01*
X78571428Y-54009580D02*
X78619047Y-53914342D01*
X78619047Y-53914342D02*
X78619047Y-53819104D01*
X78619047Y-53819104D02*
X78571428Y-53723866D01*
X78571428Y-53723866D02*
X78523809Y-53676247D01*
X78523809Y-53676247D02*
X78428571Y-53628628D01*
X78428571Y-53628628D02*
X78238095Y-53581009D01*
X78238095Y-53581009D02*
X78142857Y-53533390D01*
X78142857Y-53533390D02*
X78095238Y-53485771D01*
X78095238Y-53485771D02*
X78047619Y-53390533D01*
X78047619Y-53390533D02*
X78047619Y-53295295D01*
X78047619Y-53295295D02*
X78095238Y-53200057D01*
X78095238Y-53200057D02*
X78142857Y-53152438D01*
X78142857Y-53152438D02*
X78238095Y-53104819D01*
X78238095Y-53104819D02*
X78476190Y-53104819D01*
X78476190Y-53104819D02*
X78619047Y-53152438D01*
X79000000Y-53200057D02*
X79047619Y-53152438D01*
X79047619Y-53152438D02*
X79142857Y-53104819D01*
X79142857Y-53104819D02*
X79380952Y-53104819D01*
X79380952Y-53104819D02*
X79476190Y-53152438D01*
X79476190Y-53152438D02*
X79523809Y-53200057D01*
X79523809Y-53200057D02*
X79571428Y-53295295D01*
X79571428Y-53295295D02*
X79571428Y-53390533D01*
X79571428Y-53390533D02*
X79523809Y-53533390D01*
X79523809Y-53533390D02*
X78952381Y-54104819D01*
X78952381Y-54104819D02*
X79571428Y-54104819D01*
X52333333Y-20104819D02*
X52904761Y-20104819D01*
X52619047Y-21104819D02*
X52619047Y-20104819D01*
X53095238Y-20104819D02*
X53428571Y-21104819D01*
X53428571Y-21104819D02*
X53761904Y-20104819D01*
X54047619Y-21057200D02*
X54190476Y-21104819D01*
X54190476Y-21104819D02*
X54428571Y-21104819D01*
X54428571Y-21104819D02*
X54523809Y-21057200D01*
X54523809Y-21057200D02*
X54571428Y-21009580D01*
X54571428Y-21009580D02*
X54619047Y-20914342D01*
X54619047Y-20914342D02*
X54619047Y-20819104D01*
X54619047Y-20819104D02*
X54571428Y-20723866D01*
X54571428Y-20723866D02*
X54523809Y-20676247D01*
X54523809Y-20676247D02*
X54428571Y-20628628D01*
X54428571Y-20628628D02*
X54238095Y-20581009D01*
X54238095Y-20581009D02*
X54142857Y-20533390D01*
X54142857Y-20533390D02*
X54095238Y-20485771D01*
X54095238Y-20485771D02*
X54047619Y-20390533D01*
X54047619Y-20390533D02*
X54047619Y-20295295D01*
X54047619Y-20295295D02*
X54095238Y-20200057D01*
X54095238Y-20200057D02*
X54142857Y-20152438D01*
X54142857Y-20152438D02*
X54238095Y-20104819D01*
X54238095Y-20104819D02*
X54476190Y-20104819D01*
X54476190Y-20104819D02*
X54619047Y-20152438D01*
X55571428Y-21104819D02*
X55000000Y-21104819D01*
X55285714Y-21104819D02*
X55285714Y-20104819D01*
X55285714Y-20104819D02*
X55190476Y-20247676D01*
X55190476Y-20247676D02*
X55095238Y-20342914D01*
X55095238Y-20342914D02*
X55000000Y-20390533D01*
X13904761Y-24950057D02*
X13809523Y-24902438D01*
X13809523Y-24902438D02*
X13714285Y-24807200D01*
X13714285Y-24807200D02*
X13571428Y-24664342D01*
X13571428Y-24664342D02*
X13476190Y-24616723D01*
X13476190Y-24616723D02*
X13380952Y-24616723D01*
X13428571Y-24854819D02*
X13333333Y-24807200D01*
X13333333Y-24807200D02*
X13238095Y-24711961D01*
X13238095Y-24711961D02*
X13190476Y-24521485D01*
X13190476Y-24521485D02*
X13190476Y-24188152D01*
X13190476Y-24188152D02*
X13238095Y-23997676D01*
X13238095Y-23997676D02*
X13333333Y-23902438D01*
X13333333Y-23902438D02*
X13428571Y-23854819D01*
X13428571Y-23854819D02*
X13619047Y-23854819D01*
X13619047Y-23854819D02*
X13714285Y-23902438D01*
X13714285Y-23902438D02*
X13809523Y-23997676D01*
X13809523Y-23997676D02*
X13857142Y-24188152D01*
X13857142Y-24188152D02*
X13857142Y-24521485D01*
X13857142Y-24521485D02*
X13809523Y-24711961D01*
X13809523Y-24711961D02*
X13714285Y-24807200D01*
X13714285Y-24807200D02*
X13619047Y-24854819D01*
X13619047Y-24854819D02*
X13428571Y-24854819D01*
X14809523Y-24854819D02*
X14238095Y-24854819D01*
X14523809Y-24854819D02*
X14523809Y-23854819D01*
X14523809Y-23854819D02*
X14428571Y-23997676D01*
X14428571Y-23997676D02*
X14333333Y-24092914D01*
X14333333Y-24092914D02*
X14238095Y-24140533D01*
X23413333Y-32454819D02*
X23080000Y-31978628D01*
X22841905Y-32454819D02*
X22841905Y-31454819D01*
X22841905Y-31454819D02*
X23222857Y-31454819D01*
X23222857Y-31454819D02*
X23318095Y-31502438D01*
X23318095Y-31502438D02*
X23365714Y-31550057D01*
X23365714Y-31550057D02*
X23413333Y-31645295D01*
X23413333Y-31645295D02*
X23413333Y-31788152D01*
X23413333Y-31788152D02*
X23365714Y-31883390D01*
X23365714Y-31883390D02*
X23318095Y-31931009D01*
X23318095Y-31931009D02*
X23222857Y-31978628D01*
X23222857Y-31978628D02*
X22841905Y-31978628D01*
X23746667Y-31454819D02*
X24365714Y-31454819D01*
X24365714Y-31454819D02*
X24032381Y-31835771D01*
X24032381Y-31835771D02*
X24175238Y-31835771D01*
X24175238Y-31835771D02*
X24270476Y-31883390D01*
X24270476Y-31883390D02*
X24318095Y-31931009D01*
X24318095Y-31931009D02*
X24365714Y-32026247D01*
X24365714Y-32026247D02*
X24365714Y-32264342D01*
X24365714Y-32264342D02*
X24318095Y-32359580D01*
X24318095Y-32359580D02*
X24270476Y-32407200D01*
X24270476Y-32407200D02*
X24175238Y-32454819D01*
X24175238Y-32454819D02*
X23889524Y-32454819D01*
X23889524Y-32454819D02*
X23794286Y-32407200D01*
X23794286Y-32407200D02*
X23746667Y-32359580D01*
X35833333Y-25704819D02*
X35357143Y-25704819D01*
X35357143Y-25704819D02*
X35357143Y-24704819D01*
X36690476Y-25704819D02*
X36119048Y-25704819D01*
X36404762Y-25704819D02*
X36404762Y-24704819D01*
X36404762Y-24704819D02*
X36309524Y-24847676D01*
X36309524Y-24847676D02*
X36214286Y-24942914D01*
X36214286Y-24942914D02*
X36119048Y-24990533D01*
X25288095Y-26454819D02*
X25288095Y-27264342D01*
X25288095Y-27264342D02*
X25335714Y-27359580D01*
X25335714Y-27359580D02*
X25383333Y-27407200D01*
X25383333Y-27407200D02*
X25478571Y-27454819D01*
X25478571Y-27454819D02*
X25669047Y-27454819D01*
X25669047Y-27454819D02*
X25764285Y-27407200D01*
X25764285Y-27407200D02*
X25811904Y-27359580D01*
X25811904Y-27359580D02*
X25859523Y-27264342D01*
X25859523Y-27264342D02*
X25859523Y-26454819D01*
X26859523Y-27454819D02*
X26288095Y-27454819D01*
X26573809Y-27454819D02*
X26573809Y-26454819D01*
X26573809Y-26454819D02*
X26478571Y-26597676D01*
X26478571Y-26597676D02*
X26383333Y-26692914D01*
X26383333Y-26692914D02*
X26288095Y-26740533D01*
X34033333Y-33359580D02*
X33985714Y-33407200D01*
X33985714Y-33407200D02*
X33842857Y-33454819D01*
X33842857Y-33454819D02*
X33747619Y-33454819D01*
X33747619Y-33454819D02*
X33604762Y-33407200D01*
X33604762Y-33407200D02*
X33509524Y-33311961D01*
X33509524Y-33311961D02*
X33461905Y-33216723D01*
X33461905Y-33216723D02*
X33414286Y-33026247D01*
X33414286Y-33026247D02*
X33414286Y-32883390D01*
X33414286Y-32883390D02*
X33461905Y-32692914D01*
X33461905Y-32692914D02*
X33509524Y-32597676D01*
X33509524Y-32597676D02*
X33604762Y-32502438D01*
X33604762Y-32502438D02*
X33747619Y-32454819D01*
X33747619Y-32454819D02*
X33842857Y-32454819D01*
X33842857Y-32454819D02*
X33985714Y-32502438D01*
X33985714Y-32502438D02*
X34033333Y-32550057D01*
X34985714Y-33454819D02*
X34414286Y-33454819D01*
X34700000Y-33454819D02*
X34700000Y-32454819D01*
X34700000Y-32454819D02*
X34604762Y-32597676D01*
X34604762Y-32597676D02*
X34509524Y-32692914D01*
X34509524Y-32692914D02*
X34414286Y-32740533D01*
X77238095Y-40854819D02*
X77238095Y-41664342D01*
X77238095Y-41664342D02*
X77285714Y-41759580D01*
X77285714Y-41759580D02*
X77333333Y-41807200D01*
X77333333Y-41807200D02*
X77428571Y-41854819D01*
X77428571Y-41854819D02*
X77619047Y-41854819D01*
X77619047Y-41854819D02*
X77714285Y-41807200D01*
X77714285Y-41807200D02*
X77761904Y-41759580D01*
X77761904Y-41759580D02*
X77809523Y-41664342D01*
X77809523Y-41664342D02*
X77809523Y-40854819D01*
X78190476Y-40854819D02*
X78809523Y-40854819D01*
X78809523Y-40854819D02*
X78476190Y-41235771D01*
X78476190Y-41235771D02*
X78619047Y-41235771D01*
X78619047Y-41235771D02*
X78714285Y-41283390D01*
X78714285Y-41283390D02*
X78761904Y-41331009D01*
X78761904Y-41331009D02*
X78809523Y-41426247D01*
X78809523Y-41426247D02*
X78809523Y-41664342D01*
X78809523Y-41664342D02*
X78761904Y-41759580D01*
X78761904Y-41759580D02*
X78714285Y-41807200D01*
X78714285Y-41807200D02*
X78619047Y-41854819D01*
X78619047Y-41854819D02*
X78333333Y-41854819D01*
X78333333Y-41854819D02*
X78238095Y-41807200D01*
X78238095Y-41807200D02*
X78190476Y-41759580D01*
X23413333Y-27454819D02*
X23080000Y-26978628D01*
X22841905Y-27454819D02*
X22841905Y-26454819D01*
X22841905Y-26454819D02*
X23222857Y-26454819D01*
X23222857Y-26454819D02*
X23318095Y-26502438D01*
X23318095Y-26502438D02*
X23365714Y-26550057D01*
X23365714Y-26550057D02*
X23413333Y-26645295D01*
X23413333Y-26645295D02*
X23413333Y-26788152D01*
X23413333Y-26788152D02*
X23365714Y-26883390D01*
X23365714Y-26883390D02*
X23318095Y-26931009D01*
X23318095Y-26931009D02*
X23222857Y-26978628D01*
X23222857Y-26978628D02*
X22841905Y-26978628D01*
X24270476Y-26788152D02*
X24270476Y-27454819D01*
X24032381Y-26407200D02*
X23794286Y-27121485D01*
X23794286Y-27121485D02*
X24413333Y-27121485D01*
X39816667Y-48674819D02*
X39816667Y-47674819D01*
X39816667Y-47674819D02*
X40150000Y-48389104D01*
X40150000Y-48389104D02*
X40483333Y-47674819D01*
X40483333Y-47674819D02*
X40483333Y-48674819D01*
X41150000Y-47674819D02*
X41340476Y-47674819D01*
X41340476Y-47674819D02*
X41435714Y-47722438D01*
X41435714Y-47722438D02*
X41530952Y-47817676D01*
X41530952Y-47817676D02*
X41578571Y-48008152D01*
X41578571Y-48008152D02*
X41578571Y-48341485D01*
X41578571Y-48341485D02*
X41530952Y-48531961D01*
X41530952Y-48531961D02*
X41435714Y-48627200D01*
X41435714Y-48627200D02*
X41340476Y-48674819D01*
X41340476Y-48674819D02*
X41150000Y-48674819D01*
X41150000Y-48674819D02*
X41054762Y-48627200D01*
X41054762Y-48627200D02*
X40959524Y-48531961D01*
X40959524Y-48531961D02*
X40911905Y-48341485D01*
X40911905Y-48341485D02*
X40911905Y-48008152D01*
X40911905Y-48008152D02*
X40959524Y-47817676D01*
X40959524Y-47817676D02*
X41054762Y-47722438D01*
X41054762Y-47722438D02*
X41150000Y-47674819D01*
X42007143Y-48674819D02*
X42007143Y-47674819D01*
X42007143Y-47674819D02*
X42245238Y-47674819D01*
X42245238Y-47674819D02*
X42388095Y-47722438D01*
X42388095Y-47722438D02*
X42483333Y-47817676D01*
X42483333Y-47817676D02*
X42530952Y-47912914D01*
X42530952Y-47912914D02*
X42578571Y-48103390D01*
X42578571Y-48103390D02*
X42578571Y-48246247D01*
X42578571Y-48246247D02*
X42530952Y-48436723D01*
X42530952Y-48436723D02*
X42483333Y-48531961D01*
X42483333Y-48531961D02*
X42388095Y-48627200D01*
X42388095Y-48627200D02*
X42245238Y-48674819D01*
X42245238Y-48674819D02*
X42007143Y-48674819D01*
X43530952Y-48674819D02*
X42959524Y-48674819D01*
X43245238Y-48674819D02*
X43245238Y-47674819D01*
X43245238Y-47674819D02*
X43150000Y-47817676D01*
X43150000Y-47817676D02*
X43054762Y-47912914D01*
X43054762Y-47912914D02*
X42959524Y-47960533D01*
X81226666Y-8054819D02*
X81226666Y-8769104D01*
X81226666Y-8769104D02*
X81179047Y-8911961D01*
X81179047Y-8911961D02*
X81083809Y-9007200D01*
X81083809Y-9007200D02*
X80940952Y-9054819D01*
X80940952Y-9054819D02*
X80845714Y-9054819D01*
X81655238Y-8150057D02*
X81702857Y-8102438D01*
X81702857Y-8102438D02*
X81798095Y-8054819D01*
X81798095Y-8054819D02*
X82036190Y-8054819D01*
X82036190Y-8054819D02*
X82131428Y-8102438D01*
X82131428Y-8102438D02*
X82179047Y-8150057D01*
X82179047Y-8150057D02*
X82226666Y-8245295D01*
X82226666Y-8245295D02*
X82226666Y-8340533D01*
X82226666Y-8340533D02*
X82179047Y-8483390D01*
X82179047Y-8483390D02*
X81607619Y-9054819D01*
X81607619Y-9054819D02*
X82226666Y-9054819D01*
X13904761Y-35150057D02*
X13809523Y-35102438D01*
X13809523Y-35102438D02*
X13714285Y-35007200D01*
X13714285Y-35007200D02*
X13571428Y-34864342D01*
X13571428Y-34864342D02*
X13476190Y-34816723D01*
X13476190Y-34816723D02*
X13380952Y-34816723D01*
X13428571Y-35054819D02*
X13333333Y-35007200D01*
X13333333Y-35007200D02*
X13238095Y-34911961D01*
X13238095Y-34911961D02*
X13190476Y-34721485D01*
X13190476Y-34721485D02*
X13190476Y-34388152D01*
X13190476Y-34388152D02*
X13238095Y-34197676D01*
X13238095Y-34197676D02*
X13333333Y-34102438D01*
X13333333Y-34102438D02*
X13428571Y-34054819D01*
X13428571Y-34054819D02*
X13619047Y-34054819D01*
X13619047Y-34054819D02*
X13714285Y-34102438D01*
X13714285Y-34102438D02*
X13809523Y-34197676D01*
X13809523Y-34197676D02*
X13857142Y-34388152D01*
X13857142Y-34388152D02*
X13857142Y-34721485D01*
X13857142Y-34721485D02*
X13809523Y-34911961D01*
X13809523Y-34911961D02*
X13714285Y-35007200D01*
X13714285Y-35007200D02*
X13619047Y-35054819D01*
X13619047Y-35054819D02*
X13428571Y-35054819D01*
X14238095Y-34150057D02*
X14285714Y-34102438D01*
X14285714Y-34102438D02*
X14380952Y-34054819D01*
X14380952Y-34054819D02*
X14619047Y-34054819D01*
X14619047Y-34054819D02*
X14714285Y-34102438D01*
X14714285Y-34102438D02*
X14761904Y-34150057D01*
X14761904Y-34150057D02*
X14809523Y-34245295D01*
X14809523Y-34245295D02*
X14809523Y-34340533D01*
X14809523Y-34340533D02*
X14761904Y-34483390D01*
X14761904Y-34483390D02*
X14190476Y-35054819D01*
X14190476Y-35054819D02*
X14809523Y-35054819D01*
X9726666Y-12154819D02*
X9726666Y-12869104D01*
X9726666Y-12869104D02*
X9679047Y-13011961D01*
X9679047Y-13011961D02*
X9583809Y-13107200D01*
X9583809Y-13107200D02*
X9440952Y-13154819D01*
X9440952Y-13154819D02*
X9345714Y-13154819D01*
X10726666Y-13154819D02*
X10155238Y-13154819D01*
X10440952Y-13154819D02*
X10440952Y-12154819D01*
X10440952Y-12154819D02*
X10345714Y-12297676D01*
X10345714Y-12297676D02*
X10250476Y-12392914D01*
X10250476Y-12392914D02*
X10155238Y-12440533D01*
X45033333Y-27359580D02*
X44985714Y-27407200D01*
X44985714Y-27407200D02*
X44842857Y-27454819D01*
X44842857Y-27454819D02*
X44747619Y-27454819D01*
X44747619Y-27454819D02*
X44604762Y-27407200D01*
X44604762Y-27407200D02*
X44509524Y-27311961D01*
X44509524Y-27311961D02*
X44461905Y-27216723D01*
X44461905Y-27216723D02*
X44414286Y-27026247D01*
X44414286Y-27026247D02*
X44414286Y-26883390D01*
X44414286Y-26883390D02*
X44461905Y-26692914D01*
X44461905Y-26692914D02*
X44509524Y-26597676D01*
X44509524Y-26597676D02*
X44604762Y-26502438D01*
X44604762Y-26502438D02*
X44747619Y-26454819D01*
X44747619Y-26454819D02*
X44842857Y-26454819D01*
X44842857Y-26454819D02*
X44985714Y-26502438D01*
X44985714Y-26502438D02*
X45033333Y-26550057D01*
X45414286Y-26550057D02*
X45461905Y-26502438D01*
X45461905Y-26502438D02*
X45557143Y-26454819D01*
X45557143Y-26454819D02*
X45795238Y-26454819D01*
X45795238Y-26454819D02*
X45890476Y-26502438D01*
X45890476Y-26502438D02*
X45938095Y-26550057D01*
X45938095Y-26550057D02*
X45985714Y-26645295D01*
X45985714Y-26645295D02*
X45985714Y-26740533D01*
X45985714Y-26740533D02*
X45938095Y-26883390D01*
X45938095Y-26883390D02*
X45366667Y-27454819D01*
X45366667Y-27454819D02*
X45985714Y-27454819D01*
X87666666Y-65744819D02*
X87666666Y-66459104D01*
X87666666Y-66459104D02*
X87619047Y-66601961D01*
X87619047Y-66601961D02*
X87523809Y-66697200D01*
X87523809Y-66697200D02*
X87380952Y-66744819D01*
X87380952Y-66744819D02*
X87285714Y-66744819D01*
X88619047Y-65744819D02*
X88142857Y-65744819D01*
X88142857Y-65744819D02*
X88095238Y-66221009D01*
X88095238Y-66221009D02*
X88142857Y-66173390D01*
X88142857Y-66173390D02*
X88238095Y-66125771D01*
X88238095Y-66125771D02*
X88476190Y-66125771D01*
X88476190Y-66125771D02*
X88571428Y-66173390D01*
X88571428Y-66173390D02*
X88619047Y-66221009D01*
X88619047Y-66221009D02*
X88666666Y-66316247D01*
X88666666Y-66316247D02*
X88666666Y-66554342D01*
X88666666Y-66554342D02*
X88619047Y-66649580D01*
X88619047Y-66649580D02*
X88571428Y-66697200D01*
X88571428Y-66697200D02*
X88476190Y-66744819D01*
X88476190Y-66744819D02*
X88238095Y-66744819D01*
X88238095Y-66744819D02*
X88142857Y-66697200D01*
X88142857Y-66697200D02*
X88095238Y-66649580D01*
X53261905Y-9804819D02*
X53261905Y-8804819D01*
X53261905Y-8804819D02*
X53500000Y-8804819D01*
X53500000Y-8804819D02*
X53642857Y-8852438D01*
X53642857Y-8852438D02*
X53738095Y-8947676D01*
X53738095Y-8947676D02*
X53785714Y-9042914D01*
X53785714Y-9042914D02*
X53833333Y-9233390D01*
X53833333Y-9233390D02*
X53833333Y-9376247D01*
X53833333Y-9376247D02*
X53785714Y-9566723D01*
X53785714Y-9566723D02*
X53738095Y-9661961D01*
X53738095Y-9661961D02*
X53642857Y-9757200D01*
X53642857Y-9757200D02*
X53500000Y-9804819D01*
X53500000Y-9804819D02*
X53261905Y-9804819D01*
X54785714Y-9804819D02*
X54214286Y-9804819D01*
X54500000Y-9804819D02*
X54500000Y-8804819D01*
X54500000Y-8804819D02*
X54404762Y-8947676D01*
X54404762Y-8947676D02*
X54309524Y-9042914D01*
X54309524Y-9042914D02*
X54214286Y-9090533D01*
X61718095Y-32604819D02*
X61718095Y-33414342D01*
X61718095Y-33414342D02*
X61765714Y-33509580D01*
X61765714Y-33509580D02*
X61813333Y-33557200D01*
X61813333Y-33557200D02*
X61908571Y-33604819D01*
X61908571Y-33604819D02*
X62099047Y-33604819D01*
X62099047Y-33604819D02*
X62194285Y-33557200D01*
X62194285Y-33557200D02*
X62241904Y-33509580D01*
X62241904Y-33509580D02*
X62289523Y-33414342D01*
X62289523Y-33414342D02*
X62289523Y-32604819D01*
X62718095Y-32700057D02*
X62765714Y-32652438D01*
X62765714Y-32652438D02*
X62860952Y-32604819D01*
X62860952Y-32604819D02*
X63099047Y-32604819D01*
X63099047Y-32604819D02*
X63194285Y-32652438D01*
X63194285Y-32652438D02*
X63241904Y-32700057D01*
X63241904Y-32700057D02*
X63289523Y-32795295D01*
X63289523Y-32795295D02*
X63289523Y-32890533D01*
X63289523Y-32890533D02*
X63241904Y-33033390D01*
X63241904Y-33033390D02*
X62670476Y-33604819D01*
X62670476Y-33604819D02*
X63289523Y-33604819D01*
X36633333Y-33359580D02*
X36585714Y-33407200D01*
X36585714Y-33407200D02*
X36442857Y-33454819D01*
X36442857Y-33454819D02*
X36347619Y-33454819D01*
X36347619Y-33454819D02*
X36204762Y-33407200D01*
X36204762Y-33407200D02*
X36109524Y-33311961D01*
X36109524Y-33311961D02*
X36061905Y-33216723D01*
X36061905Y-33216723D02*
X36014286Y-33026247D01*
X36014286Y-33026247D02*
X36014286Y-32883390D01*
X36014286Y-32883390D02*
X36061905Y-32692914D01*
X36061905Y-32692914D02*
X36109524Y-32597676D01*
X36109524Y-32597676D02*
X36204762Y-32502438D01*
X36204762Y-32502438D02*
X36347619Y-32454819D01*
X36347619Y-32454819D02*
X36442857Y-32454819D01*
X36442857Y-32454819D02*
X36585714Y-32502438D01*
X36585714Y-32502438D02*
X36633333Y-32550057D01*
X36966667Y-32454819D02*
X37585714Y-32454819D01*
X37585714Y-32454819D02*
X37252381Y-32835771D01*
X37252381Y-32835771D02*
X37395238Y-32835771D01*
X37395238Y-32835771D02*
X37490476Y-32883390D01*
X37490476Y-32883390D02*
X37538095Y-32931009D01*
X37538095Y-32931009D02*
X37585714Y-33026247D01*
X37585714Y-33026247D02*
X37585714Y-33264342D01*
X37585714Y-33264342D02*
X37538095Y-33359580D01*
X37538095Y-33359580D02*
X37490476Y-33407200D01*
X37490476Y-33407200D02*
X37395238Y-33454819D01*
X37395238Y-33454819D02*
X37109524Y-33454819D01*
X37109524Y-33454819D02*
X37014286Y-33407200D01*
X37014286Y-33407200D02*
X36966667Y-33359580D01*
X51033333Y-33359580D02*
X50985714Y-33407200D01*
X50985714Y-33407200D02*
X50842857Y-33454819D01*
X50842857Y-33454819D02*
X50747619Y-33454819D01*
X50747619Y-33454819D02*
X50604762Y-33407200D01*
X50604762Y-33407200D02*
X50509524Y-33311961D01*
X50509524Y-33311961D02*
X50461905Y-33216723D01*
X50461905Y-33216723D02*
X50414286Y-33026247D01*
X50414286Y-33026247D02*
X50414286Y-32883390D01*
X50414286Y-32883390D02*
X50461905Y-32692914D01*
X50461905Y-32692914D02*
X50509524Y-32597676D01*
X50509524Y-32597676D02*
X50604762Y-32502438D01*
X50604762Y-32502438D02*
X50747619Y-32454819D01*
X50747619Y-32454819D02*
X50842857Y-32454819D01*
X50842857Y-32454819D02*
X50985714Y-32502438D01*
X50985714Y-32502438D02*
X51033333Y-32550057D01*
X51890476Y-32788152D02*
X51890476Y-33454819D01*
X51652381Y-32407200D02*
X51414286Y-33121485D01*
X51414286Y-33121485D02*
X52033333Y-33121485D01*
G04 #@! TO.C,RTC1*
D11*
X54140000Y-42740000D02*
X61860000Y-42740000D01*
X54140000Y-42995000D02*
X54140000Y-42740000D01*
X54140000Y-53260000D02*
X54140000Y-53005000D01*
X61860000Y-42740000D02*
X61860000Y-42995000D01*
X61860000Y-53005000D02*
X61860000Y-53260000D01*
X61860000Y-53260000D02*
X54140000Y-53260000D01*
X53350000Y-42990000D02*
X53010000Y-42520000D01*
X53690000Y-42520000D01*
X53350000Y-42990000D01*
G36*
X53350000Y-42990000D02*
G01*
X53010000Y-42520000D01*
X53690000Y-42520000D01*
X53350000Y-42990000D01*
G37*
G04 #@! TO.C,J3*
X86620000Y-34620000D02*
X88000000Y-34620000D01*
X86620000Y-36000000D02*
X86620000Y-34620000D01*
X86620000Y-37270000D02*
X86620000Y-45000000D01*
X86620000Y-37270000D02*
X89380000Y-37270000D01*
X86620000Y-45000000D02*
X89380000Y-45000000D01*
X89380000Y-37270000D02*
X89380000Y-45000000D01*
G04 #@! TO.C,BTN1*
X9750000Y-61500000D02*
X9750000Y-63000000D01*
X11000000Y-65500000D02*
X15500000Y-65500000D01*
X15500000Y-59000000D02*
X11000000Y-59000000D01*
X16750000Y-63000000D02*
X16750000Y-61500000D01*
G04 #@! TO.C,BAT1*
X32150000Y-63900000D02*
X32150000Y-64900000D01*
X32650000Y-64400000D02*
X31650000Y-64400000D01*
G04 #@! TO.C,C_BST*
X29859420Y-21490000D02*
X30140580Y-21490000D01*
X29859420Y-22510000D02*
X30140580Y-22510000D01*
G04 #@! TO.C,F1*
X25930000Y-17040000D02*
X25930000Y-11960000D01*
X26700000Y-11960000D02*
X25930000Y-11960000D01*
X26700000Y-17040000D02*
X25930000Y-17040000D01*
X30930000Y-11960000D02*
X29300000Y-11960000D01*
X30930000Y-11960000D02*
X30930000Y-17040000D01*
X30930000Y-17040000D02*
X29300000Y-17040000D01*
X42870000Y-11960000D02*
X42870000Y-17040000D01*
X42870000Y-12000000D02*
X30930000Y-12000000D01*
X42870000Y-17000000D02*
X30930000Y-17000000D01*
X44500000Y-11960000D02*
X42870000Y-11960000D01*
X44500000Y-17040000D02*
X42870000Y-17040000D01*
X47100000Y-11960000D02*
X47870000Y-11960000D01*
X47100000Y-17040000D02*
X47870000Y-17040000D01*
X47870000Y-11960000D02*
X47870000Y-17040000D01*
G04 #@! TO.C,TVS2*
X74490000Y-49350000D02*
X74490000Y-52650000D01*
X74490000Y-49350000D02*
X80000000Y-49350000D01*
X74490000Y-52650000D02*
X80000000Y-52650000D01*
G04 #@! TO.C,TVS1*
X50490000Y-16350000D02*
X50490000Y-19650000D01*
X50490000Y-16350000D02*
X56000000Y-16350000D01*
X50490000Y-19650000D02*
X56000000Y-19650000D01*
G04 #@! TO.C,Q1*
X13240000Y-25440000D02*
X14760000Y-25440000D01*
X13240000Y-25490000D02*
X13240000Y-25440000D01*
X13240000Y-27390000D02*
X13240000Y-26610000D01*
X13240000Y-28560000D02*
X13240000Y-28510000D01*
X14760000Y-25440000D02*
X14760000Y-26440000D01*
X14760000Y-27560000D02*
X14760000Y-28560000D01*
X14760000Y-28560000D02*
X13240000Y-28560000D01*
X12700000Y-26620000D02*
X12940000Y-26950000D01*
X12460000Y-26950000D01*
X12700000Y-26620000D01*
G36*
X12940000Y-26950000D02*
G01*
X12460000Y-26950000D01*
X12700000Y-26620000D01*
X12940000Y-26950000D01*
G37*
G04 #@! TO.C,R3*
X19772936Y-31265000D02*
X20227064Y-31265000D01*
X19772936Y-32735000D02*
X20227064Y-32735000D01*
G04 #@! TO.C,L1*
X35600378Y-26440000D02*
X36399622Y-26440000D01*
X35600378Y-27560000D02*
X36399622Y-27560000D01*
G04 #@! TO.C,U1*
X29090000Y-25440000D02*
X30910000Y-25440000D01*
X29090000Y-25490000D02*
X29090000Y-25440000D01*
X29090000Y-28560000D02*
X29090000Y-28510000D01*
X30910000Y-25440000D02*
X30910000Y-25490000D01*
X30910000Y-28510000D02*
X30910000Y-28560000D01*
X30910000Y-28560000D02*
X29090000Y-28560000D01*
X28550000Y-25490000D02*
X28310000Y-25160000D01*
X28790000Y-25160000D01*
X28550000Y-25490000D01*
G36*
X28550000Y-25490000D02*
G01*
X28310000Y-25160000D01*
X28790000Y-25160000D01*
X28550000Y-25490000D01*
G37*
G04 #@! TO.C,C1*
X29288748Y-31640000D02*
X30711252Y-31640000D01*
X29288748Y-34360000D02*
X30711252Y-34360000D01*
G04 #@! TO.C,U3*
X75940000Y-42440000D02*
X80060000Y-42440000D01*
X75940000Y-42535000D02*
X75940000Y-42440000D01*
X75940000Y-47560000D02*
X75940000Y-47465000D01*
X80060000Y-42440000D02*
X80060000Y-42535000D01*
X80060000Y-47465000D02*
X80060000Y-47560000D01*
X80060000Y-47560000D02*
X75940000Y-47560000D01*
X75400000Y-42530000D02*
X75160000Y-42200000D01*
X75640000Y-42200000D01*
X75400000Y-42530000D01*
G36*
X75400000Y-42530000D02*
G01*
X75160000Y-42200000D01*
X75640000Y-42200000D01*
X75400000Y-42530000D01*
G37*
G04 #@! TO.C,R4*
X19772936Y-26265000D02*
X20227064Y-26265000D01*
X19772936Y-27735000D02*
X20227064Y-27735000D01*
G04 #@! TO.C,MOD1*
X20800000Y-38200000D02*
X39200000Y-38200000D01*
X20800000Y-56800000D02*
X20800000Y-57800000D01*
X20800000Y-57800000D02*
X22300000Y-57800000D01*
X39200000Y-38200000D02*
X39200000Y-38900000D01*
X39200000Y-57800000D02*
X37700000Y-57800000D01*
X39200000Y-57800000D02*
X39200000Y-56800000D01*
X20800000Y-38950000D02*
X20300000Y-38950000D01*
X20800000Y-38450000D01*
X20800000Y-38950000D01*
G36*
X20800000Y-38950000D02*
G01*
X20300000Y-38950000D01*
X20800000Y-38450000D01*
X20800000Y-38950000D01*
G37*
G04 #@! TO.C,J2*
X72500000Y-16800000D02*
X73000000Y-17300000D01*
X72500000Y-17800000D02*
X72500000Y-16800000D01*
X73000000Y-17300000D02*
X72500000Y-17800000D01*
X73195000Y-9890000D02*
X73195000Y-17500000D01*
X73195000Y-25860000D02*
X73195000Y-20300000D01*
X73240000Y-9890000D02*
X89880000Y-9890000D01*
X73240000Y-25860000D02*
X89925000Y-25860000D01*
X89925000Y-9890000D02*
X89925000Y-17500000D01*
X89925000Y-25860000D02*
X89925000Y-20300000D01*
G04 #@! TO.C,Q2*
X13240000Y-30440000D02*
X14760000Y-30440000D01*
X13240000Y-30490000D02*
X13240000Y-30440000D01*
X13240000Y-32390000D02*
X13240000Y-31610000D01*
X13240000Y-33560000D02*
X13240000Y-33510000D01*
X14760000Y-30440000D02*
X14760000Y-31440000D01*
X14760000Y-32560000D02*
X14760000Y-33560000D01*
X14760000Y-33560000D02*
X13240000Y-33560000D01*
X12700000Y-31620000D02*
X12940000Y-31950000D01*
X12460000Y-31950000D01*
X12700000Y-31620000D01*
G36*
X12940000Y-31950000D02*
G01*
X12460000Y-31950000D01*
X12700000Y-31620000D01*
X12940000Y-31950000D01*
G37*
G04 #@! TO.C,J1*
X12340000Y-7680000D02*
X22740000Y-7680000D01*
X12340000Y-10700000D02*
X22740000Y-10700000D01*
X12340000Y-15600000D02*
X22740000Y-15600000D01*
X12340000Y-17100000D02*
X22740000Y-17100000D01*
X12340000Y-17720000D02*
X12340000Y-7680000D01*
X14700000Y-17720000D02*
X12340000Y-17720000D01*
X22740000Y-7680000D02*
X22740000Y-17720000D01*
X22740000Y-17720000D02*
X15300000Y-17720000D01*
X15000000Y-17720000D02*
X15440000Y-18330000D01*
X14560000Y-18330000D01*
X15000000Y-17720000D01*
G36*
X15440000Y-18330000D02*
G01*
X14560000Y-18330000D01*
X15000000Y-17720000D01*
X15440000Y-18330000D01*
G37*
G04 #@! TO.C,C2*
X40288748Y-25640000D02*
X41711252Y-25640000D01*
X40288748Y-28360000D02*
X41711252Y-28360000D01*
G04 #@! TO.C,J5*
X86620000Y-54620000D02*
X88000000Y-54620000D01*
X86620000Y-56000000D02*
X86620000Y-54620000D01*
X86620000Y-57270000D02*
X86620000Y-65000000D01*
X86620000Y-57270000D02*
X89380000Y-57270000D01*
X86620000Y-65000000D02*
X89380000Y-65000000D01*
X89380000Y-57270000D02*
X89380000Y-65000000D01*
G04 #@! TO.C,D1*
X50490000Y-10350000D02*
X50490000Y-13650000D01*
X50490000Y-10350000D02*
X56000000Y-10350000D01*
X50490000Y-13650000D02*
X56000000Y-13650000D01*
G04 #@! TO.C,U2*
X56390000Y-31060000D02*
X56390000Y-32300000D01*
X56390000Y-32300000D02*
X57630000Y-32300000D01*
X56630000Y-23440000D02*
X68350000Y-23440000D01*
X56630000Y-32060000D02*
X56630000Y-23440000D01*
X68350000Y-23440000D02*
X68350000Y-32060000D01*
X68350000Y-32060000D02*
X56630000Y-32060000D01*
G04 #@! TO.C,C3*
X40288748Y-31640000D02*
X41711252Y-31640000D01*
X40288748Y-34360000D02*
X41711252Y-34360000D01*
G04 #@! TO.C,C4*
X46288748Y-31640000D02*
X47711252Y-31640000D01*
X46288748Y-34360000D02*
X47711252Y-34360000D01*
G04 #@! TD*
M02*
