G04 #@! TF.GenerationSoftware,KiCad,Pcbnew,10.0.3*
G04 #@! TF.CreationDate,2026-06-03T10:39:47-07:00*
G04 #@! TF.ProjectId,battery_side,62617474-6572-4795-9f73-6964652e6b69,rev?*
G04 #@! TF.SameCoordinates,Original*
G04 #@! TF.FileFunction,Copper,L1,Top*
G04 #@! TF.FilePolarity,Positive*
%FSLAX46Y46*%
G04 Gerber Fmt 4.6, Leading zero omitted, Abs format (unit mm)*
G04 Created by KiCad (PCBNEW 10.0.3) date 2026-06-03 10:39:47*
%MOMM*%
%LPD*%
G01*
G04 APERTURE LIST*
G04 Aperture macros list*
%AMRoundRect*
0 Rectangle with rounded corners*
0 $1 Rounding radius*
0 $2 $3 $4 $5 $6 $7 $8 $9 X,Y pos of 4 corners*
0 Add a 4 corners polygon primitive as box body*
4,1,4,$2,$3,$4,$5,$6,$7,$8,$9,$2,$3,0*
0 Add four circle primitives for the rounded corners*
1,1,$1+$1,$2,$3*
1,1,$1+$1,$4,$5*
1,1,$1+$1,$6,$7*
1,1,$1+$1,$8,$9*
0 Add four rect primitives between the rounded corners*
20,1,$1+$1,$2,$3,$4,$5,0*
20,1,$1+$1,$4,$5,$6,$7,0*
20,1,$1+$1,$6,$7,$8,$9,0*
20,1,$1+$1,$8,$9,$2,$3,0*%
%AMFreePoly0*
4,1,30,0.200000,1.710000,0.236753,1.697426,0.376386,1.589219,0.526381,1.504463,0.606724,1.473357,0.606723,1.473356,0.687059,1.442253,0.771046,1.423078,0.855035,1.403901,1.028740,1.390056,1.444035,1.390057,1.486461,1.372484,1.504035,1.330057,1.504034,-1.539942,1.486460,-1.582368,1.444038,-1.599942,1.046227,-1.599966,0.870517,-1.612848,0.700699,-1.650739,0.538235,-1.712988,
0.386579,-1.798267,0.245504,-1.907443,0.208783,-1.919992,-1.650000,-1.919992,-1.692426,-1.902418,-1.710000,-1.859992,-1.710000,1.650007,-1.692426,1.692433,-1.650000,1.710007,0.200000,1.710000,0.200000,1.710000,$1*%
G04 Aperture macros list end*
G04 #@! TA.AperFunction,SMDPad,CuDef*
%ADD10RoundRect,0.150000X-0.875000X-0.150000X0.875000X-0.150000X0.875000X0.150000X-0.875000X0.150000X0*%
G04 #@! TD*
G04 #@! TA.AperFunction,ComponentPad*
%ADD11C,1.700000*%
G04 #@! TD*
G04 #@! TA.AperFunction,ComponentPad*
%ADD12C,2.000000*%
G04 #@! TD*
G04 #@! TA.AperFunction,SMDPad,CuDef*
%ADD13FreePoly0,0.000000*%
G04 #@! TD*
G04 #@! TA.AperFunction,SMDPad,CuDef*
%ADD14FreePoly0,180.000000*%
G04 #@! TD*
G04 #@! TA.AperFunction,SMDPad,CuDef*
%ADD15RoundRect,0.225000X-0.225000X-0.250000X0.225000X-0.250000X0.225000X0.250000X-0.225000X0.250000X0*%
G04 #@! TD*
G04 #@! TA.AperFunction,ComponentPad*
%ADD16RoundRect,0.550000X-0.550000X-0.550000X0.550000X-0.550000X0.550000X0.550000X-0.550000X0.550000X0*%
G04 #@! TD*
G04 #@! TA.AperFunction,ComponentPad*
%ADD17C,2.200000*%
G04 #@! TD*
G04 #@! TA.AperFunction,SMDPad,CuDef*
%ADD18RoundRect,0.250000X-1.000000X-0.650000X1.000000X-0.650000X1.000000X0.650000X-1.000000X0.650000X0*%
G04 #@! TD*
G04 #@! TA.AperFunction,SMDPad,CuDef*
%ADD19RoundRect,0.150000X-0.587500X-0.150000X0.587500X-0.150000X0.587500X0.150000X-0.587500X0.150000X0*%
G04 #@! TD*
G04 #@! TA.AperFunction,SMDPad,CuDef*
%ADD20RoundRect,0.250000X-0.262500X-0.450000X0.262500X-0.450000X0.262500X0.450000X-0.262500X0.450000X0*%
G04 #@! TD*
G04 #@! TA.AperFunction,SMDPad,CuDef*
%ADD21RoundRect,0.218750X-0.218750X-0.381250X0.218750X-0.381250X0.218750X0.381250X-0.218750X0.381250X0*%
G04 #@! TD*
G04 #@! TA.AperFunction,SMDPad,CuDef*
%ADD22RoundRect,0.150000X-0.512500X-0.150000X0.512500X-0.150000X0.512500X0.150000X-0.512500X0.150000X0*%
G04 #@! TD*
G04 #@! TA.AperFunction,SMDPad,CuDef*
%ADD23RoundRect,0.250000X-0.325000X-1.100000X0.325000X-1.100000X0.325000X1.100000X-0.325000X1.100000X0*%
G04 #@! TD*
G04 #@! TA.AperFunction,SMDPad,CuDef*
%ADD24RoundRect,0.150000X-0.825000X-0.150000X0.825000X-0.150000X0.825000X0.150000X-0.825000X0.150000X0*%
G04 #@! TD*
G04 #@! TA.AperFunction,SMDPad,CuDef*
%ADD25R,1.500000X0.900000*%
G04 #@! TD*
G04 #@! TA.AperFunction,SMDPad,CuDef*
%ADD26R,0.900000X1.500000*%
G04 #@! TD*
G04 #@! TA.AperFunction,HeatsinkPad*
%ADD27R,3.900000X3.900000*%
G04 #@! TD*
G04 #@! TA.AperFunction,HeatsinkPad*
%ADD28C,0.600000*%
G04 #@! TD*
G04 #@! TA.AperFunction,ComponentPad*
%ADD29R,1.500000X1.500000*%
G04 #@! TD*
G04 #@! TA.AperFunction,ComponentPad*
%ADD30C,1.500000*%
G04 #@! TD*
G04 #@! TA.AperFunction,ComponentPad*
%ADD31RoundRect,0.250000X-1.050000X-1.050000X1.050000X-1.050000X1.050000X1.050000X-1.050000X1.050000X0*%
G04 #@! TD*
G04 #@! TA.AperFunction,ComponentPad*
%ADD32R,1.700000X1.700000*%
G04 #@! TD*
G04 #@! TA.AperFunction,ComponentPad*
%ADD33R,1.500000X2.300000*%
G04 #@! TD*
G04 #@! TA.AperFunction,ComponentPad*
%ADD34O,1.500000X2.300000*%
G04 #@! TD*
G04 #@! TA.AperFunction,ViaPad*
%ADD35C,0.600000*%
G04 #@! TD*
G04 #@! TA.AperFunction,ViaPad*
%ADD36C,0.800000*%
G04 #@! TD*
G04 #@! TA.AperFunction,Conductor*
%ADD37C,0.400000*%
G04 #@! TD*
G04 #@! TA.AperFunction,Conductor*
%ADD38C,0.200000*%
G04 #@! TD*
G04 #@! TA.AperFunction,Conductor*
%ADD39C,1.000000*%
G04 #@! TD*
G04 #@! TA.AperFunction,Conductor*
%ADD40C,0.250000*%
G04 #@! TD*
G04 #@! TA.AperFunction,Conductor*
%ADD41C,0.601000*%
G04 #@! TD*
G04 #@! TA.AperFunction,Conductor*
%ADD42C,0.899800*%
G04 #@! TD*
G04 #@! TA.AperFunction,Conductor*
%ADD43C,0.500000*%
G04 #@! TD*
G04 APERTURE END LIST*
D10*
G04 #@! TO.P,RTC1,1*
G04 #@! TO.N,N/C*
X53350000Y-43555000D03*
G04 #@! TO.P,RTC1,2*
G04 #@! TO.N,V3V3_SW*
X53350000Y-44825000D03*
G04 #@! TO.P,RTC1,3*
G04 #@! TO.N,N/C*
X53350000Y-46095000D03*
G04 #@! TO.P,RTC1,4*
X53350000Y-47365000D03*
G04 #@! TO.P,RTC1,5*
G04 #@! TO.N,GND*
X53350000Y-48635000D03*
G04 #@! TO.P,RTC1,6*
X53350000Y-49905000D03*
G04 #@! TO.P,RTC1,7*
X53350000Y-51175000D03*
G04 #@! TO.P,RTC1,8*
X53350000Y-52445000D03*
G04 #@! TO.P,RTC1,9*
X62650000Y-52445000D03*
G04 #@! TO.P,RTC1,10*
X62650000Y-51175000D03*
G04 #@! TO.P,RTC1,11*
X62650000Y-49905000D03*
G04 #@! TO.P,RTC1,12*
X62650000Y-48635000D03*
G04 #@! TO.P,RTC1,13*
X62650000Y-47365000D03*
G04 #@! TO.P,RTC1,14*
G04 #@! TO.N,V_BAT_RTC*
X62650000Y-46095000D03*
G04 #@! TO.P,RTC1,15*
G04 #@! TO.N,I2C_SDA*
X62650000Y-44825000D03*
G04 #@! TO.P,RTC1,16*
G04 #@! TO.N,I2C_SCL*
X62650000Y-43555000D03*
G04 #@! TD*
D11*
G04 #@! TO.P,J3,2*
G04 #@! TO.N,USB_DM*
X88000000Y-38540000D03*
G04 #@! TO.P,J3,3*
G04 #@! TO.N,ESP_EN*
X88000000Y-41080000D03*
G04 #@! TD*
D12*
G04 #@! TO.P,BTN1,1*
G04 #@! TO.N,BTN_OVERRIDE*
X10000000Y-60000000D03*
X16500000Y-60000000D03*
G04 #@! TD*
D13*
G04 #@! TO.P,BAT1,1*
G04 #@! TO.N,V_BAT_RTC*
X32850000Y-66900000D03*
D14*
G04 #@! TO.P,BAT1,2*
G04 #@! TO.N,GND*
X63150000Y-67100000D03*
G04 #@! TD*
D15*
G04 #@! TO.P,C_BST,1*
G04 #@! TO.N,U1_BST*
X29225000Y-22000000D03*
G04 #@! TO.P,C_BST,2*
G04 #@! TO.N,U1_SW*
X30775000Y-22000000D03*
G04 #@! TD*
D16*
G04 #@! TO.P,F1,1*
G04 #@! TO.N,V24_RAW*
X28000000Y-12000000D03*
D17*
G04 #@! TO.P,F1,2*
G04 #@! TO.N,V24_AFTER_FUSE*
X45800000Y-17000000D03*
G04 #@! TD*
D18*
G04 #@! TO.P,TVS2,1*
G04 #@! TO.N,RS485_A*
X76000000Y-51000000D03*
G04 #@! TO.P,TVS2,2*
G04 #@! TO.N,RS485_B*
X80000000Y-51000000D03*
G04 #@! TD*
G04 #@! TO.P,TVS1,1*
G04 #@! TO.N,V24_FUSED*
X52000000Y-18000000D03*
G04 #@! TO.P,TVS1,2*
G04 #@! TO.N,GND*
X56000000Y-18000000D03*
G04 #@! TD*
D19*
G04 #@! TO.P,Q1,1*
G04 #@! TO.N,Q1_GATE*
X13062500Y-26050000D03*
G04 #@! TO.P,Q1,2*
G04 #@! TO.N,V24_FUSED*
X13062500Y-27950000D03*
G04 #@! TO.P,Q1,3*
G04 #@! TO.N,V24_SW*
X14937500Y-27000000D03*
G04 #@! TD*
D20*
G04 #@! TO.P,R3,1*
G04 #@! TO.N,V24_FUSED*
X19087500Y-32000000D03*
G04 #@! TO.P,R3,2*
G04 #@! TO.N,Q1_GATE*
X20912500Y-32000000D03*
G04 #@! TD*
D21*
G04 #@! TO.P,L1,1*
G04 #@! TO.N,U1_SW*
X34937500Y-27000000D03*
G04 #@! TO.P,L1,2*
G04 #@! TO.N,V3V3_SW*
X37062500Y-27000000D03*
G04 #@! TD*
D22*
G04 #@! TO.P,U1,1*
G04 #@! TO.N,N/C*
X28862500Y-26050000D03*
G04 #@! TO.P,U1,2*
G04 #@! TO.N,V24_SW*
X28862500Y-27000000D03*
G04 #@! TO.P,U1,3*
X28862500Y-27950000D03*
G04 #@! TO.P,U1,4*
G04 #@! TO.N,GND*
X31137500Y-27950000D03*
G04 #@! TO.P,U1,5*
G04 #@! TO.N,U1_SW*
X31137500Y-27000000D03*
G04 #@! TO.P,U1,6*
G04 #@! TO.N,U1_BST*
X31137500Y-26050000D03*
G04 #@! TD*
D23*
G04 #@! TO.P,C1,1*
G04 #@! TO.N,V24_SW*
X28525000Y-33000000D03*
G04 #@! TO.P,C1,2*
G04 #@! TO.N,GND*
X31475000Y-33000000D03*
G04 #@! TD*
D24*
G04 #@! TO.P,U3,1*
G04 #@! TO.N,UART_RX_3V3*
X75525000Y-43095000D03*
G04 #@! TO.P,U3,2*
G04 #@! TO.N,DE_RE*
X75525000Y-44365000D03*
G04 #@! TO.P,U3,3*
X75525000Y-45635000D03*
G04 #@! TO.P,U3,4*
G04 #@! TO.N,UART_TX_3V3*
X75525000Y-46905000D03*
G04 #@! TO.P,U3,5*
G04 #@! TO.N,GND*
X80475000Y-46905000D03*
G04 #@! TO.P,U3,6*
G04 #@! TO.N,RS485_A*
X80475000Y-45635000D03*
G04 #@! TO.P,U3,7*
G04 #@! TO.N,RS485_B*
X80475000Y-44365000D03*
G04 #@! TO.P,U3,8*
G04 #@! TO.N,V3V3_SW*
X80475000Y-43095000D03*
G04 #@! TD*
D20*
G04 #@! TO.P,R4,1*
G04 #@! TO.N,PWR_EN*
X19087500Y-27000000D03*
G04 #@! TO.P,R4,2*
G04 #@! TO.N,GND*
X20912500Y-27000000D03*
G04 #@! TD*
D25*
G04 #@! TO.P,MOD1,1*
G04 #@! TO.N,GND*
X21250000Y-39590000D03*
G04 #@! TO.P,MOD1,2*
G04 #@! TO.N,V3V3_SW*
X21250000Y-40860000D03*
G04 #@! TO.P,MOD1,3*
G04 #@! TO.N,ESP_EN*
X21250000Y-42130000D03*
G04 #@! TO.P,MOD1,4*
G04 #@! TO.N,PWR_EN*
X21250000Y-43400000D03*
G04 #@! TO.P,MOD1,5*
G04 #@! TO.N,I2C_SDA*
X21250000Y-44670000D03*
G04 #@! TO.P,MOD1,6*
G04 #@! TO.N,I2C_SCL*
X21250000Y-45940000D03*
G04 #@! TO.P,MOD1,7*
G04 #@! TO.N,BTN_OVERRIDE*
X21250000Y-47210000D03*
G04 #@! TO.P,MOD1,8*
G04 #@! TO.N,N/C*
X21250000Y-48480000D03*
G04 #@! TO.P,MOD1,9*
X21250000Y-49750000D03*
G04 #@! TO.P,MOD1,10*
G04 #@! TO.N,UART_TX_3V3*
X21250000Y-51020000D03*
G04 #@! TO.P,MOD1,11*
G04 #@! TO.N,UART_RX_3V3*
X21250000Y-52290000D03*
G04 #@! TO.P,MOD1,12*
G04 #@! TO.N,N/C*
X21250000Y-53560000D03*
G04 #@! TO.P,MOD1,13*
G04 #@! TO.N,USB_DM*
X21250000Y-54830000D03*
G04 #@! TO.P,MOD1,14*
G04 #@! TO.N,USB_DP*
X21250000Y-56100000D03*
D26*
G04 #@! TO.P,MOD1,15*
G04 #@! TO.N,N/C*
X23015000Y-57350000D03*
G04 #@! TO.P,MOD1,16*
X24285000Y-57350000D03*
G04 #@! TO.P,MOD1,17*
X25555000Y-57350000D03*
G04 #@! TO.P,MOD1,18*
X26825000Y-57350000D03*
G04 #@! TO.P,MOD1,19*
X28095000Y-57350000D03*
G04 #@! TO.P,MOD1,20*
X29365000Y-57350000D03*
G04 #@! TO.P,MOD1,21*
X30635000Y-57350000D03*
G04 #@! TO.P,MOD1,22*
X31905000Y-57350000D03*
G04 #@! TO.P,MOD1,23*
X33175000Y-57350000D03*
G04 #@! TO.P,MOD1,24*
X34445000Y-57350000D03*
G04 #@! TO.P,MOD1,25*
X35715000Y-57350000D03*
G04 #@! TO.P,MOD1,26*
X36985000Y-57350000D03*
D25*
G04 #@! TO.P,MOD1,27*
X38750000Y-56100000D03*
G04 #@! TO.P,MOD1,28*
X38750000Y-54830000D03*
G04 #@! TO.P,MOD1,29*
X38750000Y-53560000D03*
G04 #@! TO.P,MOD1,30*
X38750000Y-52290000D03*
G04 #@! TO.P,MOD1,31*
X38750000Y-51020000D03*
G04 #@! TO.P,MOD1,32*
X38750000Y-49750000D03*
G04 #@! TO.P,MOD1,33*
X38750000Y-48480000D03*
G04 #@! TO.P,MOD1,34*
X38750000Y-47210000D03*
G04 #@! TO.P,MOD1,35*
X38750000Y-45940000D03*
G04 #@! TO.P,MOD1,36*
G04 #@! TO.N,DBG_UART_RX*
X38750000Y-44670000D03*
G04 #@! TO.P,MOD1,37*
G04 #@! TO.N,DBG_UART_TX*
X38750000Y-43400000D03*
G04 #@! TO.P,MOD1,38*
G04 #@! TO.N,DE_RE*
X38750000Y-42130000D03*
G04 #@! TO.P,MOD1,39*
G04 #@! TO.N,V24_SENSE*
X38750000Y-40860000D03*
G04 #@! TO.P,MOD1,40*
G04 #@! TO.N,GND*
X38750000Y-39590000D03*
D27*
G04 #@! TO.P,MOD1,41*
X28500000Y-47310000D03*
D28*
X29200000Y-47310000D03*
G04 #@! TD*
D29*
G04 #@! TO.P,J2,1*
G04 #@! TO.N,V12_CAT5E*
X78000000Y-18000000D03*
D30*
G04 #@! TO.P,J2,2*
X79016000Y-19780000D03*
G04 #@! TO.P,J2,3*
X80032000Y-18000000D03*
G04 #@! TD*
D19*
G04 #@! TO.P,Q2,1*
G04 #@! TO.N,PWR_EN*
X13062500Y-31050000D03*
G04 #@! TO.P,Q2,2*
G04 #@! TO.N,GND*
X13062500Y-32950000D03*
G04 #@! TO.P,Q2,3*
G04 #@! TO.N,Q1_GATE*
X14937500Y-32000000D03*
G04 #@! TD*
D31*
G04 #@! TO.P,J1,1*
G04 #@! TO.N,V24_RAW*
X15000000Y-13000000D03*
G04 #@! TD*
D23*
G04 #@! TO.P,C2,1*
G04 #@! TO.N,V3V3_SW*
X39525000Y-27000000D03*
G04 #@! TO.P,C2,2*
G04 #@! TO.N,GND*
X42475000Y-27000000D03*
G04 #@! TD*
D32*
G04 #@! TO.P,J5,1*
G04 #@! TO.N,DBG_UART_TX*
X88000000Y-56000000D03*
D11*
G04 #@! TO.P,J5,2*
G04 #@! TO.N,DBG_UART_RX*
X88000000Y-58540000D03*
G04 #@! TD*
D18*
G04 #@! TO.P,D1,1*
G04 #@! TO.N,V24_FUSED*
X52000000Y-12000000D03*
G04 #@! TO.P,D1,2*
G04 #@! TO.N,V24_AFTER_FUSE*
X56000000Y-12000000D03*
G04 #@! TD*
D33*
G04 #@! TO.P,U2,1*
G04 #@! TO.N,V24_SW*
X60000000Y-30000000D03*
D34*
G04 #@! TO.P,U2,3*
G04 #@! TO.N,V12_CAT5E*
X65080000Y-30000000D03*
G04 #@! TD*
D23*
G04 #@! TO.P,C3,1*
G04 #@! TO.N,V24_SW*
X39525000Y-33000000D03*
G04 #@! TO.P,C3,2*
G04 #@! TO.N,GND*
X42475000Y-33000000D03*
G04 #@! TD*
G04 #@! TO.P,C4,1*
G04 #@! TO.N,V12_CAT5E*
X45525000Y-33000000D03*
G04 #@! TO.P,C4,2*
G04 #@! TO.N,GND*
X48475000Y-33000000D03*
G04 #@! TD*
D35*
G04 #@! TO.N,V3V3_SW*
X82987100Y-43903800D03*
X58847700Y-46335100D03*
X73124700Y-42888500D03*
X40825500Y-27375400D03*
X23624500Y-41332600D03*
G04 #@! TO.N,GND*
X43788000Y-33160200D03*
X37376100Y-39813500D03*
X55400300Y-52309100D03*
X54099600Y-18002900D03*
X55268200Y-50646700D03*
X61118300Y-49637000D03*
X61118300Y-48367000D03*
X22850000Y-38945000D03*
X49763000Y-33160200D03*
X59906100Y-47622200D03*
X22563000Y-27379300D03*
X61118300Y-51083200D03*
X10312500Y-33160200D03*
X80972900Y-48137000D03*
X43788000Y-27375400D03*
X30274500Y-33160200D03*
X61118300Y-52353200D03*
X51399700Y-50015500D03*
X60523000Y-67869000D03*
X51399700Y-48745500D03*
X33072100Y-27960800D03*
G04 #@! TO.N,V_BAT_RTC*
X62010500Y-64355200D03*
X64512800Y-47732000D03*
G04 #@! TO.N,I2C_SDA*
X51962400Y-38148100D03*
X59717200Y-44614800D03*
G04 #@! TO.N,I2C_SCL*
X60512200Y-43569600D03*
X52856300Y-38119200D03*
G04 #@! TO.N,USB_DP*
X84687500Y-59639000D03*
G04 #@! TO.N,USB_DM*
X25720200Y-41590300D03*
X22850000Y-54616600D03*
G04 #@! TO.N,ESP_EN*
X30664700Y-38546000D03*
X27665300Y-38780800D03*
G04 #@! TO.N,BTN_OVERRIDE*
X22801400Y-47054400D03*
G04 #@! TO.N,RS485_A*
X78374700Y-44785800D03*
X76364500Y-53548000D03*
G04 #@! TO.N,RS485_B*
X77684000Y-48616500D03*
X78191400Y-50375000D03*
D36*
G04 #@! TO.N,V24_FUSED*
X60924400Y-9836900D03*
D35*
G04 #@! TO.N,Q1_GATE*
X15410100Y-25309100D03*
X13746000Y-29979000D03*
D36*
G04 #@! TO.N,V24_SENSE*
X60887500Y-39652500D03*
G04 #@! TD*
G04 #@! TO.N,V3V3_SW*
D37*
X57337600Y-44825000D02*
X57762300Y-45249700D01*
X73124700Y-42888500D02*
X73088900Y-42852700D01*
X37062500Y-27000000D02*
X39525000Y-27000000D01*
X53350000Y-44825000D02*
X57337600Y-44825000D01*
X73088900Y-42852700D02*
X60159300Y-42852700D01*
X23151900Y-40860000D02*
X23624500Y-41332600D01*
X57762300Y-45249700D02*
X58847700Y-46335100D01*
X60159300Y-42852700D02*
X57762300Y-45249700D01*
X39525000Y-27000000D02*
X40450100Y-27000000D01*
X80475000Y-43095000D02*
X82178300Y-43095000D01*
X40450100Y-27000000D02*
X40825500Y-27375400D01*
X21250000Y-40860000D02*
X23151900Y-40860000D01*
X82178300Y-43095000D02*
X82987100Y-43903800D01*
G04 #@! TO.N,GND*
D38*
X12852300Y-33160200D02*
X13062500Y-32950000D01*
X61118300Y-51083200D02*
X62558200Y-51083200D01*
X62382000Y-49637000D02*
X62650000Y-49905000D01*
X42635200Y-33160200D02*
X42475000Y-33000000D01*
X61118300Y-52353200D02*
X62558200Y-52353200D01*
X54099600Y-18002900D02*
X55997100Y-18002900D01*
X43788000Y-27375400D02*
X42850400Y-27375400D01*
X53485900Y-52309100D02*
X53350000Y-52445000D01*
X62558200Y-52353200D02*
X62650000Y-52445000D01*
X42850400Y-27375400D02*
X42475000Y-27000000D01*
X31314800Y-33160200D02*
X31475000Y-33000000D01*
X43788000Y-33160200D02*
X43571900Y-33160200D01*
X62382000Y-48367000D02*
X62650000Y-48635000D01*
X53239500Y-48745500D02*
X53350000Y-48635000D01*
X55400300Y-52309100D02*
X53485900Y-52309100D01*
X49763000Y-33160200D02*
X48635200Y-33160200D01*
X80475000Y-47639100D02*
X80475000Y-46905000D01*
X51399700Y-48745500D02*
X53239500Y-48745500D01*
X29200000Y-47310000D02*
X28500000Y-47310000D01*
X22850000Y-38945000D02*
X22301700Y-39493300D01*
X49763000Y-33160200D02*
X49586800Y-33160200D01*
X22563000Y-27379300D02*
X21291800Y-27379300D01*
X33072100Y-27960800D02*
X31148300Y-27960800D01*
X21250000Y-39590000D02*
X22301700Y-39590000D01*
X51399700Y-50015500D02*
X51802200Y-50015500D01*
X62558200Y-51083200D02*
X62650000Y-51175000D01*
X51802200Y-48745500D02*
X51399700Y-48745500D01*
X37376100Y-39813500D02*
X37474800Y-39813500D01*
X53878300Y-50646700D02*
X53350000Y-51175000D01*
X53239500Y-50015500D02*
X53350000Y-49905000D01*
X51399700Y-50015500D02*
X53239500Y-50015500D01*
X21291800Y-27379300D02*
X20912500Y-27000000D01*
X55268200Y-50646700D02*
X54790400Y-50646700D01*
X51399700Y-48745500D02*
X51802200Y-48745500D01*
X55400300Y-52309100D02*
X54921700Y-52309100D01*
X30372000Y-33160200D02*
X30274500Y-33160200D01*
X51802200Y-50015500D02*
X51399700Y-50015500D01*
X37474800Y-39813500D02*
X37698300Y-39590000D01*
X62392800Y-47622200D02*
X62650000Y-47365000D01*
X80972900Y-48137000D02*
X80475000Y-47639100D01*
X43571900Y-33160200D02*
X43788000Y-33160200D01*
X10312500Y-33160200D02*
X12852300Y-33160200D01*
X30274500Y-33160200D02*
X30372000Y-33160200D01*
X31148300Y-27960800D02*
X31137500Y-27950000D01*
X62381000Y-67869000D02*
X63150000Y-67100000D01*
X55268200Y-50646700D02*
X53878300Y-50646700D01*
X60523000Y-67869000D02*
X62381000Y-67869000D01*
X37376100Y-39813500D02*
X37474800Y-39813500D01*
X30274500Y-33160200D02*
X31314800Y-33160200D01*
X48635200Y-33160200D02*
X48475000Y-33000000D01*
X37474800Y-39813500D02*
X37376100Y-39813500D01*
X55997100Y-18002900D02*
X56000000Y-18000000D01*
X61118300Y-49637000D02*
X62382000Y-49637000D01*
X49586800Y-33160200D02*
X49763000Y-33160200D01*
X38750000Y-39590000D02*
X37698300Y-39590000D01*
X22301700Y-39493300D02*
X22301700Y-39590000D01*
X54921700Y-52309100D02*
X55400300Y-52309100D01*
X22850000Y-38945000D02*
X22507300Y-39287700D01*
X43788000Y-33160200D02*
X42635200Y-33160200D01*
X59906100Y-47622200D02*
X62392800Y-47622200D01*
X22507300Y-39287700D02*
X22850000Y-38945000D01*
X61118300Y-48367000D02*
X62382000Y-48367000D01*
X54790400Y-50646700D02*
X55268200Y-50646700D01*
G04 #@! TO.N,V_BAT_RTC*
X62010500Y-64355200D02*
X35394800Y-64355200D01*
X64512800Y-47501400D02*
X64512800Y-47732000D01*
X63106400Y-46095000D02*
X64512800Y-47501400D01*
X62650000Y-46095000D02*
X63106400Y-46095000D01*
X35394800Y-64355200D02*
X32850000Y-66900000D01*
G04 #@! TO.N,I2C_SDA*
X21250000Y-44670000D02*
X22301700Y-44670000D01*
X51763200Y-37948900D02*
X50867300Y-37948900D01*
X51962400Y-38148100D02*
X51763200Y-37948900D01*
X32514700Y-37547200D02*
X25793600Y-44268300D01*
X50465600Y-37547200D02*
X32514700Y-37547200D01*
X25793600Y-44268300D02*
X25593400Y-44268300D01*
X25193200Y-44668500D02*
X22303200Y-44668500D01*
X25358000Y-44503700D02*
X25193200Y-44668500D01*
X50867300Y-37948900D02*
X50465600Y-37547200D01*
X59717200Y-44614800D02*
X62439800Y-44614800D01*
X22303200Y-44668500D02*
X22301700Y-44670000D01*
X25358000Y-44503700D02*
X25193200Y-44668500D01*
X62439800Y-44614800D02*
X62650000Y-44825000D01*
X25593400Y-44268300D02*
X25358000Y-44503700D01*
G04 #@! TO.N,I2C_SCL*
X52742300Y-38119200D02*
X52564200Y-38297300D01*
X51360700Y-38397100D02*
X51314200Y-38350600D01*
X50097800Y-37948900D02*
X32681000Y-37948900D01*
X50499500Y-38350600D02*
X50097800Y-37948900D01*
X52856300Y-38119200D02*
X52742300Y-38119200D01*
X32681000Y-37948900D02*
X24689900Y-45940000D01*
X51713300Y-38750000D02*
X51360700Y-38397400D01*
X62635400Y-43569600D02*
X60512200Y-43569600D01*
X52564200Y-38397400D02*
X52211600Y-38750000D01*
X62650000Y-43555000D02*
X62635400Y-43569600D01*
X52564200Y-38297300D02*
X52564200Y-38397400D01*
X51314200Y-38350600D02*
X50499500Y-38350600D01*
X51360700Y-38397400D02*
X51360700Y-38397100D01*
X24689900Y-45940000D02*
X21250000Y-45940000D01*
X52211600Y-38750000D02*
X51713300Y-38750000D01*
G04 #@! TO.N,USB_DP*
X21250000Y-56100000D02*
X21250000Y-57271900D01*
X23617100Y-59639000D02*
X84687500Y-59639000D01*
X21250000Y-57271900D02*
X23617100Y-59639000D01*
G04 #@! TO.N,USB_DM*
X52440900Y-37115800D02*
X52412300Y-37144400D01*
X31781500Y-37144400D02*
X30166100Y-37144400D01*
X22850000Y-54616600D02*
X22515100Y-54616600D01*
X32182100Y-36743800D02*
X31946700Y-36979200D01*
X22515100Y-54616600D02*
X22301700Y-54830000D01*
X86575800Y-37115800D02*
X52440900Y-37115800D01*
X50798300Y-36743800D02*
X32182100Y-36743800D01*
X21250000Y-54830000D02*
X22301700Y-54830000D01*
X31946700Y-36979200D02*
X31781500Y-37144400D01*
X52412300Y-37144400D02*
X51198900Y-37144400D01*
X31946700Y-36979200D02*
X31781500Y-37144400D01*
X30166100Y-37144400D02*
X25720200Y-41590300D01*
X51198900Y-37144400D02*
X50798300Y-36743800D01*
X88000000Y-38540000D02*
X86575800Y-37115800D01*
G04 #@! TO.N,ESP_EN*
X30847600Y-38646300D02*
X30765000Y-38646300D01*
X23687100Y-42130000D02*
X26827100Y-38990000D01*
X52607200Y-37517500D02*
X52578600Y-37546100D01*
X52578600Y-37546100D02*
X51032600Y-37546100D01*
X84437500Y-37517500D02*
X52607200Y-37517500D01*
X26827100Y-38780800D02*
X27665300Y-38780800D01*
X32348400Y-37145500D02*
X30847600Y-38646300D01*
X21250000Y-42130000D02*
X22301700Y-42130000D01*
X88000000Y-41080000D02*
X84437500Y-37517500D01*
X26827100Y-38990000D02*
X26827100Y-38780800D01*
X50632000Y-37145500D02*
X32348400Y-37145500D01*
X30765000Y-38646300D02*
X30664700Y-38546000D01*
X22301700Y-42130000D02*
X23687100Y-42130000D01*
X51032600Y-37546100D02*
X50632000Y-37145500D01*
G04 #@! TO.N,BTN_OVERRIDE*
X10000000Y-60000000D02*
X16500000Y-60000000D01*
X22645800Y-47210000D02*
X22801400Y-47054400D01*
X21250000Y-47210000D02*
X22645800Y-47210000D01*
G04 #@! TO.N,U1_BST*
X29225000Y-22000000D02*
X29225000Y-24137500D01*
X29225000Y-24137500D02*
X31137500Y-26050000D01*
G04 #@! TO.N,U1_SW*
X32135700Y-27000000D02*
X32135700Y-23360700D01*
X32135700Y-23360700D02*
X30775000Y-22000000D01*
X34937500Y-27000000D02*
X32135700Y-27000000D01*
X32135700Y-27000000D02*
X31137500Y-27000000D01*
G04 #@! TO.N,V24_RAW*
D39*
X26886800Y-10886800D02*
X28000000Y-12000000D01*
X15000000Y-13000000D02*
X17113200Y-10886800D01*
X17113200Y-10886800D02*
X26886800Y-10886800D01*
G04 #@! TO.N,V24_AFTER_FUSE*
X45800000Y-17000000D02*
X47676000Y-15124000D01*
X47676000Y-15124000D02*
X52876000Y-15124000D01*
X52876000Y-15124000D02*
X56000000Y-12000000D01*
G04 #@! TO.N,RS485_A*
D40*
X78374700Y-46968800D02*
X78374700Y-45635000D01*
X76000000Y-51000000D02*
X76000000Y-53183500D01*
X76000000Y-53183500D02*
X76364500Y-53548000D01*
X78374700Y-45635000D02*
X78374700Y-44785800D01*
X76000000Y-49343500D02*
X78374700Y-46968800D01*
X76000000Y-51000000D02*
X76000000Y-49343500D01*
X80475000Y-45635000D02*
X78374700Y-45635000D01*
G04 #@! TO.N,RS485_B*
X80475000Y-44365000D02*
X81001300Y-44365000D01*
X78191400Y-49123900D02*
X78191400Y-50375000D01*
X81845700Y-49154300D02*
X80000000Y-51000000D01*
X81845700Y-45209400D02*
X81845700Y-49154300D01*
X81001300Y-44365000D02*
X81845700Y-45209400D01*
X78816400Y-51000000D02*
X80000000Y-51000000D01*
X78191400Y-50375000D02*
X78816400Y-51000000D01*
X77684000Y-48616500D02*
X78191400Y-49123900D01*
G04 #@! TO.N,V24_FUSED*
D39*
X43851200Y-16234300D02*
X43851200Y-17755800D01*
X16259500Y-20721500D02*
X40885500Y-20721500D01*
X17325100Y-32000000D02*
X13275100Y-27950000D01*
X40885500Y-20721500D02*
X43851200Y-17755800D01*
X52000000Y-12000000D02*
X54163100Y-9836900D01*
X45016800Y-18921400D02*
X51078600Y-18921400D01*
X52000000Y-12000000D02*
X48842900Y-12000000D01*
X45085300Y-15000200D02*
X43851200Y-16234300D01*
X13275100Y-27950000D02*
X13062500Y-27950000D01*
X51078600Y-18921400D02*
X52000000Y-18000000D01*
X48842900Y-12000000D02*
X45842700Y-15000200D01*
X19087500Y-32000000D02*
X17325100Y-32000000D01*
X54163100Y-9836900D02*
X60924400Y-9836900D01*
X43851200Y-17755800D02*
X45016800Y-18921400D01*
X45842700Y-15000200D02*
X45085300Y-15000200D01*
X13062500Y-27950000D02*
X12793700Y-27950000D01*
X12793700Y-27950000D02*
X11514900Y-26671200D01*
X11514900Y-26671200D02*
X11514900Y-25466100D01*
X11514900Y-25466100D02*
X16259500Y-20721500D01*
G04 #@! TO.N,Q1_GATE*
D38*
X15410100Y-25309100D02*
X13803400Y-25309100D01*
X16065100Y-33127600D02*
X14937500Y-32000000D01*
X13803400Y-25309100D02*
X13062500Y-26050000D01*
X20912500Y-32000000D02*
X19784900Y-33127600D01*
X14937500Y-31170500D02*
X13746000Y-29979000D01*
X14937500Y-32000000D02*
X14937500Y-31170500D01*
X19784900Y-33127600D02*
X16065100Y-33127600D01*
G04 #@! TO.N,V24_SW*
D39*
X14937500Y-27000000D02*
X15277300Y-27000000D01*
D41*
X28711700Y-27150800D02*
X28711700Y-27799200D01*
X27484300Y-27150800D02*
X28711700Y-27150800D01*
D39*
X28862500Y-32662500D02*
X28862500Y-30797500D01*
X28862500Y-30797500D02*
X28862500Y-27950000D01*
X28862500Y-30797500D02*
X37322500Y-30797500D01*
X42525000Y-30000000D02*
X39525000Y-33000000D01*
D41*
X28711700Y-27150800D02*
X28862500Y-27000000D01*
D39*
X37322500Y-30797500D02*
X39525000Y-33000000D01*
X25770600Y-25437100D02*
X27484300Y-27150800D01*
X15277300Y-27000000D02*
X16840200Y-25437100D01*
X16840200Y-25437100D02*
X25770600Y-25437100D01*
X28862500Y-27950000D02*
X28711700Y-27799200D01*
X28525000Y-33000000D02*
X28862500Y-32662500D01*
X60000000Y-30000000D02*
X42525000Y-30000000D01*
G04 #@! TO.N,UART_RX_3V3*
D38*
X37586500Y-38752300D02*
X49765100Y-38752300D01*
X50566200Y-39553400D02*
X52841000Y-39553400D01*
X53643600Y-38750800D02*
X71180800Y-38750800D01*
X21250000Y-52290000D02*
X27878100Y-52290000D01*
X27878100Y-52290000D02*
X31962600Y-48205500D01*
X71180800Y-38750800D02*
X75525000Y-43095000D01*
X31962600Y-44376200D02*
X37586500Y-38752300D01*
X52841000Y-39553400D02*
X53643600Y-38750800D01*
X31962600Y-48205500D02*
X31962600Y-44376200D01*
X49765100Y-38752300D02*
X50566200Y-39553400D01*
G04 #@! TO.N,DE_RE*
X75525000Y-44365000D02*
X75525000Y-45635000D01*
X73726400Y-42951900D02*
X73726400Y-42639300D01*
X73217100Y-42130000D02*
X38750000Y-42130000D01*
X73726400Y-42639300D02*
X73217100Y-42130000D01*
X75525000Y-44365000D02*
X75139500Y-44365000D01*
X75139500Y-44365000D02*
X73726400Y-42951900D01*
G04 #@! TO.N,UART_TX_3V3*
X76806400Y-46035800D02*
X75937200Y-46905000D01*
X22301700Y-51020000D02*
X22301700Y-49181100D01*
X22301700Y-49181100D02*
X33132200Y-38350600D01*
X21250000Y-51020000D02*
X22301700Y-51020000D01*
X51547000Y-39151700D02*
X52377900Y-39151700D01*
X33132200Y-38350600D02*
X49931400Y-38350600D01*
X53458000Y-38368300D02*
X53477200Y-38349100D01*
X50333100Y-38752300D02*
X51147600Y-38752300D01*
X51147600Y-38752300D02*
X51547000Y-39151700D01*
X53477200Y-38349100D02*
X72429100Y-38349100D01*
X76806400Y-42726400D02*
X76806400Y-46035800D01*
X72429100Y-38349100D02*
X76806400Y-42726400D01*
X53458000Y-38368400D02*
X53458000Y-38368300D01*
X53105500Y-38720900D02*
X53458000Y-38368400D01*
X49931400Y-38350600D02*
X50333100Y-38752300D01*
X75937200Y-46905000D02*
X75525000Y-46905000D01*
X52377900Y-39151700D02*
X52808700Y-38720900D01*
X52808700Y-38720900D02*
X53105500Y-38720900D01*
G04 #@! TO.N,PWR_EN*
X20198300Y-33529300D02*
X20198300Y-43400000D01*
X15029400Y-33529300D02*
X20198300Y-33529300D01*
X20198300Y-33529300D02*
X20914700Y-33529300D01*
X21776400Y-32667600D02*
X21776400Y-29688900D01*
X13062500Y-31050000D02*
X13062500Y-31562400D01*
X13062500Y-31562400D02*
X15029400Y-33529300D01*
X21250000Y-43400000D02*
X20198300Y-43400000D01*
X20914700Y-33529300D02*
X21776400Y-32667600D01*
X21776400Y-29688900D02*
X19087500Y-27000000D01*
G04 #@! TO.N,DBG_UART_RX*
X88000000Y-58540000D02*
X57727900Y-58540000D01*
X43857900Y-44670000D02*
X38750000Y-44670000D01*
X57727900Y-58540000D02*
X43857900Y-44670000D01*
G04 #@! TO.N,DBG_UART_TX*
X50031400Y-48000100D02*
X45431300Y-43400000D01*
X45431300Y-43400000D02*
X38750000Y-43400000D01*
X62441400Y-56000000D02*
X54441500Y-48000100D01*
X88000000Y-56000000D02*
X62441400Y-56000000D01*
X54441500Y-48000100D02*
X50031400Y-48000100D01*
G04 #@! TO.N,V24_SENSE*
D39*
X59699800Y-40840200D02*
X40301900Y-40840200D01*
D42*
X40271400Y-40840200D02*
X40251600Y-40860000D01*
D39*
X60887500Y-39652500D02*
X59699800Y-40840200D01*
D42*
X38750000Y-40860000D02*
X40251600Y-40860000D01*
X40301900Y-40840200D02*
X40271400Y-40840200D01*
G04 #@! TO.N,V12_CAT5E*
D43*
X64601600Y-30000000D02*
X63828300Y-30000000D01*
X63024800Y-31722200D02*
X63828300Y-30918700D01*
X68796000Y-30000000D02*
X79016000Y-19780000D01*
X63828300Y-30918700D02*
X63828300Y-30000000D01*
X45525000Y-33000000D02*
X47425500Y-31099500D01*
X65080000Y-30000000D02*
X68796000Y-30000000D01*
X58296900Y-31722200D02*
X63024800Y-31722200D01*
X57674200Y-31099500D02*
X58296900Y-31722200D01*
X64601600Y-30000000D02*
X65080000Y-30000000D01*
X78000000Y-18000000D02*
X80032000Y-18000000D01*
X47425500Y-31099500D02*
X57674200Y-31099500D01*
G04 #@! TD*
M02*
