G04 #@! TF.GenerationSoftware,KiCad,Pcbnew,10.0.3*
G04 #@! TF.CreationDate,2026-06-03T10:39:47-07:00*
G04 #@! TF.ProjectId,battery_side,62617474-6572-4795-9f73-6964652e6b69,rev?*
G04 #@! TF.SameCoordinates,Original*
G04 #@! TF.FileFunction,Legend,Bot*
G04 #@! TF.FilePolarity,Positive*
%FSLAX46Y46*%
G04 Gerber Fmt 4.6, Leading zero omitted, Abs format (unit mm)*
G04 Created by KiCad (PCBNEW 10.0.3) date 2026-06-03 10:39:47*
%MOMM*%
%LPD*%
G01*
G04 APERTURE LIST*
%ADD10C,0.150000*%
%ADD11C,0.120000*%
G04 APERTURE END LIST*
D10*
X58166666Y-55604819D02*
X58499999Y-55128628D01*
X58738094Y-55604819D02*
X58738094Y-54604819D01*
X58738094Y-54604819D02*
X58357142Y-54604819D01*
X58357142Y-54604819D02*
X58261904Y-54652438D01*
X58261904Y-54652438D02*
X58214285Y-54700057D01*
X58214285Y-54700057D02*
X58166666Y-54795295D01*
X58166666Y-54795295D02*
X58166666Y-54938152D01*
X58166666Y-54938152D02*
X58214285Y-55033390D01*
X58214285Y-55033390D02*
X58261904Y-55081009D01*
X58261904Y-55081009D02*
X58357142Y-55128628D01*
X58357142Y-55128628D02*
X58738094Y-55128628D01*
X57690475Y-55604819D02*
X57499999Y-55604819D01*
X57499999Y-55604819D02*
X57404761Y-55557200D01*
X57404761Y-55557200D02*
X57357142Y-55509580D01*
X57357142Y-55509580D02*
X57261904Y-55366723D01*
X57261904Y-55366723D02*
X57214285Y-55176247D01*
X57214285Y-55176247D02*
X57214285Y-54795295D01*
X57214285Y-54795295D02*
X57261904Y-54700057D01*
X57261904Y-54700057D02*
X57309523Y-54652438D01*
X57309523Y-54652438D02*
X57404761Y-54604819D01*
X57404761Y-54604819D02*
X57595237Y-54604819D01*
X57595237Y-54604819D02*
X57690475Y-54652438D01*
X57690475Y-54652438D02*
X57738094Y-54700057D01*
X57738094Y-54700057D02*
X57785713Y-54795295D01*
X57785713Y-54795295D02*
X57785713Y-55033390D01*
X57785713Y-55033390D02*
X57738094Y-55128628D01*
X57738094Y-55128628D02*
X57690475Y-55176247D01*
X57690475Y-55176247D02*
X57595237Y-55223866D01*
X57595237Y-55223866D02*
X57404761Y-55223866D01*
X57404761Y-55223866D02*
X57309523Y-55176247D01*
X57309523Y-55176247D02*
X57261904Y-55128628D01*
X57261904Y-55128628D02*
X57214285Y-55033390D01*
X67746666Y-15454819D02*
X68079999Y-14978628D01*
X68318094Y-15454819D02*
X68318094Y-14454819D01*
X68318094Y-14454819D02*
X67937142Y-14454819D01*
X67937142Y-14454819D02*
X67841904Y-14502438D01*
X67841904Y-14502438D02*
X67794285Y-14550057D01*
X67794285Y-14550057D02*
X67746666Y-14645295D01*
X67746666Y-14645295D02*
X67746666Y-14788152D01*
X67746666Y-14788152D02*
X67794285Y-14883390D01*
X67794285Y-14883390D02*
X67841904Y-14931009D01*
X67841904Y-14931009D02*
X67937142Y-14978628D01*
X67937142Y-14978628D02*
X68318094Y-14978628D01*
X66889523Y-14454819D02*
X67079999Y-14454819D01*
X67079999Y-14454819D02*
X67175237Y-14502438D01*
X67175237Y-14502438D02*
X67222856Y-14550057D01*
X67222856Y-14550057D02*
X67318094Y-14692914D01*
X67318094Y-14692914D02*
X67365713Y-14883390D01*
X67365713Y-14883390D02*
X67365713Y-15264342D01*
X67365713Y-15264342D02*
X67318094Y-15359580D01*
X67318094Y-15359580D02*
X67270475Y-15407200D01*
X67270475Y-15407200D02*
X67175237Y-15454819D01*
X67175237Y-15454819D02*
X66984761Y-15454819D01*
X66984761Y-15454819D02*
X66889523Y-15407200D01*
X66889523Y-15407200D02*
X66841904Y-15359580D01*
X66841904Y-15359580D02*
X66794285Y-15264342D01*
X66794285Y-15264342D02*
X66794285Y-15026247D01*
X66794285Y-15026247D02*
X66841904Y-14931009D01*
X66841904Y-14931009D02*
X66889523Y-14883390D01*
X66889523Y-14883390D02*
X66984761Y-14835771D01*
X66984761Y-14835771D02*
X67175237Y-14835771D01*
X67175237Y-14835771D02*
X67270475Y-14883390D01*
X67270475Y-14883390D02*
X67318094Y-14931009D01*
X67318094Y-14931009D02*
X67365713Y-15026247D01*
X25166666Y-40879580D02*
X25214285Y-40927200D01*
X25214285Y-40927200D02*
X25357142Y-40974819D01*
X25357142Y-40974819D02*
X25452380Y-40974819D01*
X25452380Y-40974819D02*
X25595237Y-40927200D01*
X25595237Y-40927200D02*
X25690475Y-40831961D01*
X25690475Y-40831961D02*
X25738094Y-40736723D01*
X25738094Y-40736723D02*
X25785713Y-40546247D01*
X25785713Y-40546247D02*
X25785713Y-40403390D01*
X25785713Y-40403390D02*
X25738094Y-40212914D01*
X25738094Y-40212914D02*
X25690475Y-40117676D01*
X25690475Y-40117676D02*
X25595237Y-40022438D01*
X25595237Y-40022438D02*
X25452380Y-39974819D01*
X25452380Y-39974819D02*
X25357142Y-39974819D01*
X25357142Y-39974819D02*
X25214285Y-40022438D01*
X25214285Y-40022438D02*
X25166666Y-40070057D01*
X24309523Y-39974819D02*
X24499999Y-39974819D01*
X24499999Y-39974819D02*
X24595237Y-40022438D01*
X24595237Y-40022438D02*
X24642856Y-40070057D01*
X24642856Y-40070057D02*
X24738094Y-40212914D01*
X24738094Y-40212914D02*
X24785713Y-40403390D01*
X24785713Y-40403390D02*
X24785713Y-40784342D01*
X24785713Y-40784342D02*
X24738094Y-40879580D01*
X24738094Y-40879580D02*
X24690475Y-40927200D01*
X24690475Y-40927200D02*
X24595237Y-40974819D01*
X24595237Y-40974819D02*
X24404761Y-40974819D01*
X24404761Y-40974819D02*
X24309523Y-40927200D01*
X24309523Y-40927200D02*
X24261904Y-40879580D01*
X24261904Y-40879580D02*
X24214285Y-40784342D01*
X24214285Y-40784342D02*
X24214285Y-40546247D01*
X24214285Y-40546247D02*
X24261904Y-40451009D01*
X24261904Y-40451009D02*
X24309523Y-40403390D01*
X24309523Y-40403390D02*
X24404761Y-40355771D01*
X24404761Y-40355771D02*
X24595237Y-40355771D01*
X24595237Y-40355771D02*
X24690475Y-40403390D01*
X24690475Y-40403390D02*
X24738094Y-40451009D01*
X24738094Y-40451009D02*
X24785713Y-40546247D01*
X64166666Y-10604819D02*
X64499999Y-10128628D01*
X64738094Y-10604819D02*
X64738094Y-9604819D01*
X64738094Y-9604819D02*
X64357142Y-9604819D01*
X64357142Y-9604819D02*
X64261904Y-9652438D01*
X64261904Y-9652438D02*
X64214285Y-9700057D01*
X64214285Y-9700057D02*
X64166666Y-9795295D01*
X64166666Y-9795295D02*
X64166666Y-9938152D01*
X64166666Y-9938152D02*
X64214285Y-10033390D01*
X64214285Y-10033390D02*
X64261904Y-10081009D01*
X64261904Y-10081009D02*
X64357142Y-10128628D01*
X64357142Y-10128628D02*
X64738094Y-10128628D01*
X63261904Y-9604819D02*
X63738094Y-9604819D01*
X63738094Y-9604819D02*
X63785713Y-10081009D01*
X63785713Y-10081009D02*
X63738094Y-10033390D01*
X63738094Y-10033390D02*
X63642856Y-9985771D01*
X63642856Y-9985771D02*
X63404761Y-9985771D01*
X63404761Y-9985771D02*
X63309523Y-10033390D01*
X63309523Y-10033390D02*
X63261904Y-10081009D01*
X63261904Y-10081009D02*
X63214285Y-10176247D01*
X63214285Y-10176247D02*
X63214285Y-10414342D01*
X63214285Y-10414342D02*
X63261904Y-10509580D01*
X63261904Y-10509580D02*
X63309523Y-10557200D01*
X63309523Y-10557200D02*
X63404761Y-10604819D01*
X63404761Y-10604819D02*
X63642856Y-10604819D01*
X63642856Y-10604819D02*
X63738094Y-10557200D01*
X63738094Y-10557200D02*
X63785713Y-10509580D01*
X70062857Y-52454819D02*
X70396190Y-51978628D01*
X70634285Y-52454819D02*
X70634285Y-51454819D01*
X70634285Y-51454819D02*
X70253333Y-51454819D01*
X70253333Y-51454819D02*
X70158095Y-51502438D01*
X70158095Y-51502438D02*
X70110476Y-51550057D01*
X70110476Y-51550057D02*
X70062857Y-51645295D01*
X70062857Y-51645295D02*
X70062857Y-51788152D01*
X70062857Y-51788152D02*
X70110476Y-51883390D01*
X70110476Y-51883390D02*
X70158095Y-51931009D01*
X70158095Y-51931009D02*
X70253333Y-51978628D01*
X70253333Y-51978628D02*
X70634285Y-51978628D01*
X69110476Y-52454819D02*
X69681904Y-52454819D01*
X69396190Y-52454819D02*
X69396190Y-51454819D01*
X69396190Y-51454819D02*
X69491428Y-51597676D01*
X69491428Y-51597676D02*
X69586666Y-51692914D01*
X69586666Y-51692914D02*
X69681904Y-51740533D01*
X68491428Y-51454819D02*
X68396190Y-51454819D01*
X68396190Y-51454819D02*
X68300952Y-51502438D01*
X68300952Y-51502438D02*
X68253333Y-51550057D01*
X68253333Y-51550057D02*
X68205714Y-51645295D01*
X68205714Y-51645295D02*
X68158095Y-51835771D01*
X68158095Y-51835771D02*
X68158095Y-52073866D01*
X68158095Y-52073866D02*
X68205714Y-52264342D01*
X68205714Y-52264342D02*
X68253333Y-52359580D01*
X68253333Y-52359580D02*
X68300952Y-52407200D01*
X68300952Y-52407200D02*
X68396190Y-52454819D01*
X68396190Y-52454819D02*
X68491428Y-52454819D01*
X68491428Y-52454819D02*
X68586666Y-52407200D01*
X68586666Y-52407200D02*
X68634285Y-52359580D01*
X68634285Y-52359580D02*
X68681904Y-52264342D01*
X68681904Y-52264342D02*
X68729523Y-52073866D01*
X68729523Y-52073866D02*
X68729523Y-51835771D01*
X68729523Y-51835771D02*
X68681904Y-51645295D01*
X68681904Y-51645295D02*
X68634285Y-51550057D01*
X68634285Y-51550057D02*
X68586666Y-51502438D01*
X68586666Y-51502438D02*
X68491428Y-51454819D01*
X29166666Y-41399580D02*
X29214285Y-41447200D01*
X29214285Y-41447200D02*
X29357142Y-41494819D01*
X29357142Y-41494819D02*
X29452380Y-41494819D01*
X29452380Y-41494819D02*
X29595237Y-41447200D01*
X29595237Y-41447200D02*
X29690475Y-41351961D01*
X29690475Y-41351961D02*
X29738094Y-41256723D01*
X29738094Y-41256723D02*
X29785713Y-41066247D01*
X29785713Y-41066247D02*
X29785713Y-40923390D01*
X29785713Y-40923390D02*
X29738094Y-40732914D01*
X29738094Y-40732914D02*
X29690475Y-40637676D01*
X29690475Y-40637676D02*
X29595237Y-40542438D01*
X29595237Y-40542438D02*
X29452380Y-40494819D01*
X29452380Y-40494819D02*
X29357142Y-40494819D01*
X29357142Y-40494819D02*
X29214285Y-40542438D01*
X29214285Y-40542438D02*
X29166666Y-40590057D01*
X28833332Y-40494819D02*
X28166666Y-40494819D01*
X28166666Y-40494819D02*
X28595237Y-41494819D01*
X37166666Y-41004819D02*
X37499999Y-40528628D01*
X37738094Y-41004819D02*
X37738094Y-40004819D01*
X37738094Y-40004819D02*
X37357142Y-40004819D01*
X37357142Y-40004819D02*
X37261904Y-40052438D01*
X37261904Y-40052438D02*
X37214285Y-40100057D01*
X37214285Y-40100057D02*
X37166666Y-40195295D01*
X37166666Y-40195295D02*
X37166666Y-40338152D01*
X37166666Y-40338152D02*
X37214285Y-40433390D01*
X37214285Y-40433390D02*
X37261904Y-40481009D01*
X37261904Y-40481009D02*
X37357142Y-40528628D01*
X37357142Y-40528628D02*
X37738094Y-40528628D01*
X36833332Y-40004819D02*
X36166666Y-40004819D01*
X36166666Y-40004819D02*
X36595237Y-41004819D01*
X84642857Y-46989580D02*
X84690476Y-47037200D01*
X84690476Y-47037200D02*
X84833333Y-47084819D01*
X84833333Y-47084819D02*
X84928571Y-47084819D01*
X84928571Y-47084819D02*
X85071428Y-47037200D01*
X85071428Y-47037200D02*
X85166666Y-46941961D01*
X85166666Y-46941961D02*
X85214285Y-46846723D01*
X85214285Y-46846723D02*
X85261904Y-46656247D01*
X85261904Y-46656247D02*
X85261904Y-46513390D01*
X85261904Y-46513390D02*
X85214285Y-46322914D01*
X85214285Y-46322914D02*
X85166666Y-46227676D01*
X85166666Y-46227676D02*
X85071428Y-46132438D01*
X85071428Y-46132438D02*
X84928571Y-46084819D01*
X84928571Y-46084819D02*
X84833333Y-46084819D01*
X84833333Y-46084819D02*
X84690476Y-46132438D01*
X84690476Y-46132438D02*
X84642857Y-46180057D01*
X83690476Y-47084819D02*
X84261904Y-47084819D01*
X83976190Y-47084819D02*
X83976190Y-46084819D01*
X83976190Y-46084819D02*
X84071428Y-46227676D01*
X84071428Y-46227676D02*
X84166666Y-46322914D01*
X84166666Y-46322914D02*
X84261904Y-46370533D01*
X83071428Y-46084819D02*
X82976190Y-46084819D01*
X82976190Y-46084819D02*
X82880952Y-46132438D01*
X82880952Y-46132438D02*
X82833333Y-46180057D01*
X82833333Y-46180057D02*
X82785714Y-46275295D01*
X82785714Y-46275295D02*
X82738095Y-46465771D01*
X82738095Y-46465771D02*
X82738095Y-46703866D01*
X82738095Y-46703866D02*
X82785714Y-46894342D01*
X82785714Y-46894342D02*
X82833333Y-46989580D01*
X82833333Y-46989580D02*
X82880952Y-47037200D01*
X82880952Y-47037200D02*
X82976190Y-47084819D01*
X82976190Y-47084819D02*
X83071428Y-47084819D01*
X83071428Y-47084819D02*
X83166666Y-47037200D01*
X83166666Y-47037200D02*
X83214285Y-46989580D01*
X83214285Y-46989580D02*
X83261904Y-46894342D01*
X83261904Y-46894342D02*
X83309523Y-46703866D01*
X83309523Y-46703866D02*
X83309523Y-46465771D01*
X83309523Y-46465771D02*
X83261904Y-46275295D01*
X83261904Y-46275295D02*
X83214285Y-46180057D01*
X83214285Y-46180057D02*
X83166666Y-46132438D01*
X83166666Y-46132438D02*
X83071428Y-46084819D01*
X85222857Y-52454819D02*
X85556190Y-51978628D01*
X85794285Y-52454819D02*
X85794285Y-51454819D01*
X85794285Y-51454819D02*
X85413333Y-51454819D01*
X85413333Y-51454819D02*
X85318095Y-51502438D01*
X85318095Y-51502438D02*
X85270476Y-51550057D01*
X85270476Y-51550057D02*
X85222857Y-51645295D01*
X85222857Y-51645295D02*
X85222857Y-51788152D01*
X85222857Y-51788152D02*
X85270476Y-51883390D01*
X85270476Y-51883390D02*
X85318095Y-51931009D01*
X85318095Y-51931009D02*
X85413333Y-51978628D01*
X85413333Y-51978628D02*
X85794285Y-51978628D01*
X84270476Y-52454819D02*
X84841904Y-52454819D01*
X84556190Y-52454819D02*
X84556190Y-51454819D01*
X84556190Y-51454819D02*
X84651428Y-51597676D01*
X84651428Y-51597676D02*
X84746666Y-51692914D01*
X84746666Y-51692914D02*
X84841904Y-51740533D01*
X83889523Y-51550057D02*
X83841904Y-51502438D01*
X83841904Y-51502438D02*
X83746666Y-51454819D01*
X83746666Y-51454819D02*
X83508571Y-51454819D01*
X83508571Y-51454819D02*
X83413333Y-51502438D01*
X83413333Y-51502438D02*
X83365714Y-51550057D01*
X83365714Y-51550057D02*
X83318095Y-51645295D01*
X83318095Y-51645295D02*
X83318095Y-51740533D01*
X83318095Y-51740533D02*
X83365714Y-51883390D01*
X83365714Y-51883390D02*
X83937142Y-52454819D01*
X83937142Y-52454819D02*
X83318095Y-52454819D01*
X65546666Y-57359580D02*
X65594285Y-57407200D01*
X65594285Y-57407200D02*
X65737142Y-57454819D01*
X65737142Y-57454819D02*
X65832380Y-57454819D01*
X65832380Y-57454819D02*
X65975237Y-57407200D01*
X65975237Y-57407200D02*
X66070475Y-57311961D01*
X66070475Y-57311961D02*
X66118094Y-57216723D01*
X66118094Y-57216723D02*
X66165713Y-57026247D01*
X66165713Y-57026247D02*
X66165713Y-56883390D01*
X66165713Y-56883390D02*
X66118094Y-56692914D01*
X66118094Y-56692914D02*
X66070475Y-56597676D01*
X66070475Y-56597676D02*
X65975237Y-56502438D01*
X65975237Y-56502438D02*
X65832380Y-56454819D01*
X65832380Y-56454819D02*
X65737142Y-56454819D01*
X65737142Y-56454819D02*
X65594285Y-56502438D01*
X65594285Y-56502438D02*
X65546666Y-56550057D01*
X65070475Y-57454819D02*
X64879999Y-57454819D01*
X64879999Y-57454819D02*
X64784761Y-57407200D01*
X64784761Y-57407200D02*
X64737142Y-57359580D01*
X64737142Y-57359580D02*
X64641904Y-57216723D01*
X64641904Y-57216723D02*
X64594285Y-57026247D01*
X64594285Y-57026247D02*
X64594285Y-56645295D01*
X64594285Y-56645295D02*
X64641904Y-56550057D01*
X64641904Y-56550057D02*
X64689523Y-56502438D01*
X64689523Y-56502438D02*
X64784761Y-56454819D01*
X64784761Y-56454819D02*
X64975237Y-56454819D01*
X64975237Y-56454819D02*
X65070475Y-56502438D01*
X65070475Y-56502438D02*
X65118094Y-56550057D01*
X65118094Y-56550057D02*
X65165713Y-56645295D01*
X65165713Y-56645295D02*
X65165713Y-56883390D01*
X65165713Y-56883390D02*
X65118094Y-56978628D01*
X65118094Y-56978628D02*
X65070475Y-57026247D01*
X65070475Y-57026247D02*
X64975237Y-57073866D01*
X64975237Y-57073866D02*
X64784761Y-57073866D01*
X64784761Y-57073866D02*
X64689523Y-57026247D01*
X64689523Y-57026247D02*
X64641904Y-56978628D01*
X64641904Y-56978628D02*
X64594285Y-56883390D01*
X77642857Y-54304819D02*
X77976190Y-53828628D01*
X78214285Y-54304819D02*
X78214285Y-53304819D01*
X78214285Y-53304819D02*
X77833333Y-53304819D01*
X77833333Y-53304819D02*
X77738095Y-53352438D01*
X77738095Y-53352438D02*
X77690476Y-53400057D01*
X77690476Y-53400057D02*
X77642857Y-53495295D01*
X77642857Y-53495295D02*
X77642857Y-53638152D01*
X77642857Y-53638152D02*
X77690476Y-53733390D01*
X77690476Y-53733390D02*
X77738095Y-53781009D01*
X77738095Y-53781009D02*
X77833333Y-53828628D01*
X77833333Y-53828628D02*
X78214285Y-53828628D01*
X76690476Y-54304819D02*
X77261904Y-54304819D01*
X76976190Y-54304819D02*
X76976190Y-53304819D01*
X76976190Y-53304819D02*
X77071428Y-53447676D01*
X77071428Y-53447676D02*
X77166666Y-53542914D01*
X77166666Y-53542914D02*
X77261904Y-53590533D01*
X75738095Y-54304819D02*
X76309523Y-54304819D01*
X76023809Y-54304819D02*
X76023809Y-53304819D01*
X76023809Y-53304819D02*
X76119047Y-53447676D01*
X76119047Y-53447676D02*
X76214285Y-53542914D01*
X76214285Y-53542914D02*
X76309523Y-53590533D01*
X50586666Y-57454819D02*
X50919999Y-56978628D01*
X51158094Y-57454819D02*
X51158094Y-56454819D01*
X51158094Y-56454819D02*
X50777142Y-56454819D01*
X50777142Y-56454819D02*
X50681904Y-56502438D01*
X50681904Y-56502438D02*
X50634285Y-56550057D01*
X50634285Y-56550057D02*
X50586666Y-56645295D01*
X50586666Y-56645295D02*
X50586666Y-56788152D01*
X50586666Y-56788152D02*
X50634285Y-56883390D01*
X50634285Y-56883390D02*
X50681904Y-56931009D01*
X50681904Y-56931009D02*
X50777142Y-56978628D01*
X50777142Y-56978628D02*
X51158094Y-56978628D01*
X50015237Y-56883390D02*
X50110475Y-56835771D01*
X50110475Y-56835771D02*
X50158094Y-56788152D01*
X50158094Y-56788152D02*
X50205713Y-56692914D01*
X50205713Y-56692914D02*
X50205713Y-56645295D01*
X50205713Y-56645295D02*
X50158094Y-56550057D01*
X50158094Y-56550057D02*
X50110475Y-56502438D01*
X50110475Y-56502438D02*
X50015237Y-56454819D01*
X50015237Y-56454819D02*
X49824761Y-56454819D01*
X49824761Y-56454819D02*
X49729523Y-56502438D01*
X49729523Y-56502438D02*
X49681904Y-56550057D01*
X49681904Y-56550057D02*
X49634285Y-56645295D01*
X49634285Y-56645295D02*
X49634285Y-56692914D01*
X49634285Y-56692914D02*
X49681904Y-56788152D01*
X49681904Y-56788152D02*
X49729523Y-56835771D01*
X49729523Y-56835771D02*
X49824761Y-56883390D01*
X49824761Y-56883390D02*
X50015237Y-56883390D01*
X50015237Y-56883390D02*
X50110475Y-56931009D01*
X50110475Y-56931009D02*
X50158094Y-56978628D01*
X50158094Y-56978628D02*
X50205713Y-57073866D01*
X50205713Y-57073866D02*
X50205713Y-57264342D01*
X50205713Y-57264342D02*
X50158094Y-57359580D01*
X50158094Y-57359580D02*
X50110475Y-57407200D01*
X50110475Y-57407200D02*
X50015237Y-57454819D01*
X50015237Y-57454819D02*
X49824761Y-57454819D01*
X49824761Y-57454819D02*
X49729523Y-57407200D01*
X49729523Y-57407200D02*
X49681904Y-57359580D01*
X49681904Y-57359580D02*
X49634285Y-57264342D01*
X49634285Y-57264342D02*
X49634285Y-57073866D01*
X49634285Y-57073866D02*
X49681904Y-56978628D01*
X49681904Y-56978628D02*
X49729523Y-56931009D01*
X49729523Y-56931009D02*
X49824761Y-56883390D01*
X26222857Y-62454819D02*
X26556190Y-61978628D01*
X26794285Y-62454819D02*
X26794285Y-61454819D01*
X26794285Y-61454819D02*
X26413333Y-61454819D01*
X26413333Y-61454819D02*
X26318095Y-61502438D01*
X26318095Y-61502438D02*
X26270476Y-61550057D01*
X26270476Y-61550057D02*
X26222857Y-61645295D01*
X26222857Y-61645295D02*
X26222857Y-61788152D01*
X26222857Y-61788152D02*
X26270476Y-61883390D01*
X26270476Y-61883390D02*
X26318095Y-61931009D01*
X26318095Y-61931009D02*
X26413333Y-61978628D01*
X26413333Y-61978628D02*
X26794285Y-61978628D01*
X25270476Y-62454819D02*
X25841904Y-62454819D01*
X25556190Y-62454819D02*
X25556190Y-61454819D01*
X25556190Y-61454819D02*
X25651428Y-61597676D01*
X25651428Y-61597676D02*
X25746666Y-61692914D01*
X25746666Y-61692914D02*
X25841904Y-61740533D01*
X24937142Y-61454819D02*
X24318095Y-61454819D01*
X24318095Y-61454819D02*
X24651428Y-61835771D01*
X24651428Y-61835771D02*
X24508571Y-61835771D01*
X24508571Y-61835771D02*
X24413333Y-61883390D01*
X24413333Y-61883390D02*
X24365714Y-61931009D01*
X24365714Y-61931009D02*
X24318095Y-62026247D01*
X24318095Y-62026247D02*
X24318095Y-62264342D01*
X24318095Y-62264342D02*
X24365714Y-62359580D01*
X24365714Y-62359580D02*
X24413333Y-62407200D01*
X24413333Y-62407200D02*
X24508571Y-62454819D01*
X24508571Y-62454819D02*
X24794285Y-62454819D01*
X24794285Y-62454819D02*
X24889523Y-62407200D01*
X24889523Y-62407200D02*
X24937142Y-62359580D01*
X33166666Y-41129580D02*
X33214285Y-41177200D01*
X33214285Y-41177200D02*
X33357142Y-41224819D01*
X33357142Y-41224819D02*
X33452380Y-41224819D01*
X33452380Y-41224819D02*
X33595237Y-41177200D01*
X33595237Y-41177200D02*
X33690475Y-41081961D01*
X33690475Y-41081961D02*
X33738094Y-40986723D01*
X33738094Y-40986723D02*
X33785713Y-40796247D01*
X33785713Y-40796247D02*
X33785713Y-40653390D01*
X33785713Y-40653390D02*
X33738094Y-40462914D01*
X33738094Y-40462914D02*
X33690475Y-40367676D01*
X33690475Y-40367676D02*
X33595237Y-40272438D01*
X33595237Y-40272438D02*
X33452380Y-40224819D01*
X33452380Y-40224819D02*
X33357142Y-40224819D01*
X33357142Y-40224819D02*
X33214285Y-40272438D01*
X33214285Y-40272438D02*
X33166666Y-40320057D01*
X32595237Y-40653390D02*
X32690475Y-40605771D01*
X32690475Y-40605771D02*
X32738094Y-40558152D01*
X32738094Y-40558152D02*
X32785713Y-40462914D01*
X32785713Y-40462914D02*
X32785713Y-40415295D01*
X32785713Y-40415295D02*
X32738094Y-40320057D01*
X32738094Y-40320057D02*
X32690475Y-40272438D01*
X32690475Y-40272438D02*
X32595237Y-40224819D01*
X32595237Y-40224819D02*
X32404761Y-40224819D01*
X32404761Y-40224819D02*
X32309523Y-40272438D01*
X32309523Y-40272438D02*
X32261904Y-40320057D01*
X32261904Y-40320057D02*
X32214285Y-40415295D01*
X32214285Y-40415295D02*
X32214285Y-40462914D01*
X32214285Y-40462914D02*
X32261904Y-40558152D01*
X32261904Y-40558152D02*
X32309523Y-40605771D01*
X32309523Y-40605771D02*
X32404761Y-40653390D01*
X32404761Y-40653390D02*
X32595237Y-40653390D01*
X32595237Y-40653390D02*
X32690475Y-40701009D01*
X32690475Y-40701009D02*
X32738094Y-40748628D01*
X32738094Y-40748628D02*
X32785713Y-40843866D01*
X32785713Y-40843866D02*
X32785713Y-41034342D01*
X32785713Y-41034342D02*
X32738094Y-41129580D01*
X32738094Y-41129580D02*
X32690475Y-41177200D01*
X32690475Y-41177200D02*
X32595237Y-41224819D01*
X32595237Y-41224819D02*
X32404761Y-41224819D01*
X32404761Y-41224819D02*
X32309523Y-41177200D01*
X32309523Y-41177200D02*
X32261904Y-41129580D01*
X32261904Y-41129580D02*
X32214285Y-41034342D01*
X32214285Y-41034342D02*
X32214285Y-40843866D01*
X32214285Y-40843866D02*
X32261904Y-40748628D01*
X32261904Y-40748628D02*
X32309523Y-40701009D01*
X32309523Y-40701009D02*
X32404761Y-40653390D01*
X22642857Y-66989580D02*
X22690476Y-67037200D01*
X22690476Y-67037200D02*
X22833333Y-67084819D01*
X22833333Y-67084819D02*
X22928571Y-67084819D01*
X22928571Y-67084819D02*
X23071428Y-67037200D01*
X23071428Y-67037200D02*
X23166666Y-66941961D01*
X23166666Y-66941961D02*
X23214285Y-66846723D01*
X23214285Y-66846723D02*
X23261904Y-66656247D01*
X23261904Y-66656247D02*
X23261904Y-66513390D01*
X23261904Y-66513390D02*
X23214285Y-66322914D01*
X23214285Y-66322914D02*
X23166666Y-66227676D01*
X23166666Y-66227676D02*
X23071428Y-66132438D01*
X23071428Y-66132438D02*
X22928571Y-66084819D01*
X22928571Y-66084819D02*
X22833333Y-66084819D01*
X22833333Y-66084819D02*
X22690476Y-66132438D01*
X22690476Y-66132438D02*
X22642857Y-66180057D01*
X21690476Y-67084819D02*
X22261904Y-67084819D01*
X21976190Y-67084819D02*
X21976190Y-66084819D01*
X21976190Y-66084819D02*
X22071428Y-66227676D01*
X22071428Y-66227676D02*
X22166666Y-66322914D01*
X22166666Y-66322914D02*
X22261904Y-66370533D01*
X20738095Y-67084819D02*
X21309523Y-67084819D01*
X21023809Y-67084819D02*
X21023809Y-66084819D01*
X21023809Y-66084819D02*
X21119047Y-66227676D01*
X21119047Y-66227676D02*
X21214285Y-66322914D01*
X21214285Y-66322914D02*
X21309523Y-66370533D01*
X64166666Y-19989580D02*
X64214285Y-20037200D01*
X64214285Y-20037200D02*
X64357142Y-20084819D01*
X64357142Y-20084819D02*
X64452380Y-20084819D01*
X64452380Y-20084819D02*
X64595237Y-20037200D01*
X64595237Y-20037200D02*
X64690475Y-19941961D01*
X64690475Y-19941961D02*
X64738094Y-19846723D01*
X64738094Y-19846723D02*
X64785713Y-19656247D01*
X64785713Y-19656247D02*
X64785713Y-19513390D01*
X64785713Y-19513390D02*
X64738094Y-19322914D01*
X64738094Y-19322914D02*
X64690475Y-19227676D01*
X64690475Y-19227676D02*
X64595237Y-19132438D01*
X64595237Y-19132438D02*
X64452380Y-19084819D01*
X64452380Y-19084819D02*
X64357142Y-19084819D01*
X64357142Y-19084819D02*
X64214285Y-19132438D01*
X64214285Y-19132438D02*
X64166666Y-19180057D01*
X63261904Y-19084819D02*
X63738094Y-19084819D01*
X63738094Y-19084819D02*
X63785713Y-19561009D01*
X63785713Y-19561009D02*
X63738094Y-19513390D01*
X63738094Y-19513390D02*
X63642856Y-19465771D01*
X63642856Y-19465771D02*
X63404761Y-19465771D01*
X63404761Y-19465771D02*
X63309523Y-19513390D01*
X63309523Y-19513390D02*
X63261904Y-19561009D01*
X63261904Y-19561009D02*
X63214285Y-19656247D01*
X63214285Y-19656247D02*
X63214285Y-19894342D01*
X63214285Y-19894342D02*
X63261904Y-19989580D01*
X63261904Y-19989580D02*
X63309523Y-20037200D01*
X63309523Y-20037200D02*
X63404761Y-20084819D01*
X63404761Y-20084819D02*
X63642856Y-20084819D01*
X63642856Y-20084819D02*
X63738094Y-20037200D01*
X63738094Y-20037200D02*
X63785713Y-19989580D01*
G04 #@! TO.C,R9*
D11*
X57772936Y-56265000D02*
X58227064Y-56265000D01*
X57772936Y-57735000D02*
X58227064Y-57735000D01*
G04 #@! TO.C,R6*
X63772936Y-14265000D02*
X64227064Y-14265000D01*
X63772936Y-15735000D02*
X64227064Y-15735000D01*
G04 #@! TO.C,C6*
X24738748Y-42265000D02*
X25261252Y-42265000D01*
X24738748Y-43735000D02*
X25261252Y-43735000D01*
G04 #@! TO.C,R5*
X63772936Y-11265000D02*
X64227064Y-11265000D01*
X63772936Y-12735000D02*
X64227064Y-12735000D01*
G04 #@! TO.C,R10*
X72772936Y-51265000D02*
X73227064Y-51265000D01*
X72772936Y-52735000D02*
X73227064Y-52735000D01*
G04 #@! TO.C,C7*
X28892164Y-42640000D02*
X29107836Y-42640000D01*
X28892164Y-43360000D02*
X29107836Y-43360000D01*
G04 #@! TO.C,R7*
X36772936Y-42265000D02*
X37227064Y-42265000D01*
X36772936Y-43735000D02*
X37227064Y-43735000D01*
G04 #@! TO.C,C10*
X83859420Y-44490000D02*
X84140580Y-44490000D01*
X83859420Y-45510000D02*
X84140580Y-45510000D01*
G04 #@! TO.C,R12*
X80772936Y-51265000D02*
X81227064Y-51265000D01*
X80772936Y-52735000D02*
X81227064Y-52735000D01*
G04 #@! TO.C,C9*
X61859420Y-56490000D02*
X62140580Y-56490000D01*
X61859420Y-57510000D02*
X62140580Y-57510000D01*
G04 #@! TO.C,R11*
X76772936Y-51265000D02*
X77227064Y-51265000D01*
X76772936Y-52735000D02*
X77227064Y-52735000D01*
G04 #@! TO.C,R8*
X53772936Y-56265000D02*
X54227064Y-56265000D01*
X53772936Y-57735000D02*
X54227064Y-57735000D01*
G04 #@! TO.C,R13*
X21772936Y-61265000D02*
X22227064Y-61265000D01*
X21772936Y-62735000D02*
X22227064Y-62735000D01*
G04 #@! TO.C,C8*
X32859420Y-42490000D02*
X33140580Y-42490000D01*
X32859420Y-43510000D02*
X33140580Y-43510000D01*
G04 #@! TO.C,C11*
X21859420Y-64490000D02*
X22140580Y-64490000D01*
X21859420Y-65510000D02*
X22140580Y-65510000D01*
G04 #@! TO.C,C5*
X63859420Y-17490000D02*
X64140580Y-17490000D01*
X63859420Y-18510000D02*
X64140580Y-18510000D01*
G04 #@! TD*
M02*
