G04 #@! TF.GenerationSoftware,KiCad,Pcbnew,10.0.3*
G04 #@! TF.CreationDate,2026-06-03T10:39:49-07:00*
G04 #@! TF.ProjectId,display_side,64697370-6c61-4795-9f73-6964652e6b69,rev?*
G04 #@! TF.SameCoordinates,Original*
G04 #@! TF.FileFunction,Copper,L1,Top*
G04 #@! TF.FilePolarity,Positive*
%FSLAX46Y46*%
G04 Gerber Fmt 4.6, Leading zero omitted, Abs format (unit mm)*
G04 Created by KiCad (PCBNEW 10.0.3) date 2026-06-03 10:39:49*
%MOMM*%
%LPD*%
G01*
G04 APERTURE LIST*
G04 Aperture macros list*
%AMRoundRect*
0 Rectangle with rounded corners*
0 $1 Rounding radius*
0 $2 $3 $4 $5 $6 $7 $8 $9 X,Y pos of 4 corners*
0 Add a 4 corners polygon primitive as box body*
4,1,4,$2,$3,$4,$5,$6,$7,$8,$9,$2,$3,0*
0 Add four circle primitives for the rounded corners*
1,1,$1+$1,$2,$3*
1,1,$1+$1,$4,$5*
1,1,$1+$1,$6,$7*
1,1,$1+$1,$8,$9*
0 Add four rect primitives between the rounded corners*
20,1,$1+$1,$2,$3,$4,$5,0*
20,1,$1+$1,$4,$5,$6,$7,0*
20,1,$1+$1,$6,$7,$8,$9,0*
20,1,$1+$1,$8,$9,$2,$3,0*%
G04 Aperture macros list end*
G04 #@! TA.AperFunction,SMDPad,CuDef*
%ADD10RoundRect,0.250000X-1.000000X-0.650000X1.000000X-0.650000X1.000000X0.650000X-1.000000X0.650000X0*%
G04 #@! TD*
G04 #@! TA.AperFunction,ComponentPad*
%ADD11C,1.500000*%
G04 #@! TD*
G04 #@! TA.AperFunction,ComponentPad*
%ADD12C,1.600000*%
G04 #@! TD*
G04 #@! TA.AperFunction,SMDPad,CuDef*
%ADD13R,1.550000X1.300000*%
G04 #@! TD*
G04 #@! TA.AperFunction,SMDPad,CuDef*
%ADD14RoundRect,0.250000X-0.325000X-1.100000X0.325000X-1.100000X0.325000X1.100000X-0.325000X1.100000X0*%
G04 #@! TD*
G04 #@! TA.AperFunction,ComponentPad*
%ADD15R,1.700000X1.700000*%
G04 #@! TD*
G04 #@! TA.AperFunction,ComponentPad*
%ADD16C,1.700000*%
G04 #@! TD*
G04 #@! TA.AperFunction,SMDPad,CuDef*
%ADD17R,1.500000X0.900000*%
G04 #@! TD*
G04 #@! TA.AperFunction,SMDPad,CuDef*
%ADD18R,0.900000X1.500000*%
G04 #@! TD*
G04 #@! TA.AperFunction,HeatsinkPad*
%ADD19R,3.900000X3.900000*%
G04 #@! TD*
G04 #@! TA.AperFunction,HeatsinkPad*
%ADD20C,0.600000*%
G04 #@! TD*
G04 #@! TA.AperFunction,SMDPad,CuDef*
%ADD21RoundRect,0.150000X-0.825000X-0.150000X0.825000X-0.150000X0.825000X0.150000X-0.825000X0.150000X0*%
G04 #@! TD*
G04 #@! TA.AperFunction,SMDPad,CuDef*
%ADD22R,0.300000X1.300000*%
G04 #@! TD*
G04 #@! TA.AperFunction,SMDPad,CuDef*
%ADD23R,1.800000X2.200000*%
G04 #@! TD*
G04 #@! TA.AperFunction,ComponentPad*
%ADD24R,1.500000X2.300000*%
G04 #@! TD*
G04 #@! TA.AperFunction,ViaPad*
%ADD25C,0.600000*%
G04 #@! TD*
G04 #@! TA.AperFunction,Conductor*
%ADD26C,0.200000*%
G04 #@! TD*
G04 #@! TA.AperFunction,Conductor*
%ADD27C,0.400000*%
G04 #@! TD*
G04 #@! TA.AperFunction,Conductor*
%ADD28C,0.250000*%
G04 #@! TD*
G04 #@! TA.AperFunction,Conductor*
%ADD29C,0.500000*%
G04 #@! TD*
G04 APERTURE END LIST*
D10*
G04 #@! TO.P,TVS2,1*
G04 #@! TO.N,RS485_A*
X38000000Y-17000000D03*
G04 #@! TO.P,TVS2,2*
G04 #@! TO.N,RS485_B*
X42000000Y-17000000D03*
G04 #@! TD*
D11*
G04 #@! TO.P,J1,2*
G04 #@! TO.N,V12_CAT5E*
X11780000Y-28984000D03*
G04 #@! TO.P,J1,3*
X10000000Y-27968000D03*
G04 #@! TO.P,J1,4*
G04 #@! TO.N,RS485_A*
X11780000Y-26952000D03*
G04 #@! TO.P,J1,5*
G04 #@! TO.N,RS485_B*
X10000000Y-25936000D03*
G04 #@! TD*
D12*
G04 #@! TO.P,F1,2*
G04 #@! TO.N,V12_PROT*
X20160000Y-9000000D03*
G04 #@! TD*
D13*
G04 #@! TO.P,BTN3,1*
G04 #@! TO.N,BTN3_IN*
X60025000Y-55750000D03*
X67975000Y-55750000D03*
G04 #@! TO.P,BTN3,2*
G04 #@! TO.N,GND*
X60025000Y-60250000D03*
X67975000Y-60250000D03*
G04 #@! TD*
G04 #@! TO.P,BTN1,1*
G04 #@! TO.N,BTN1_IN*
X24025000Y-55750000D03*
X31975000Y-55750000D03*
G04 #@! TO.P,BTN1,2*
G04 #@! TO.N,GND*
X24025000Y-60250000D03*
X31975000Y-60250000D03*
G04 #@! TD*
G04 #@! TO.P,BTN2,1*
G04 #@! TO.N,BTN2_IN*
X42025000Y-55750000D03*
X49975000Y-55750000D03*
G04 #@! TO.P,BTN2,2*
G04 #@! TO.N,GND*
X42025000Y-60250000D03*
X49975000Y-60250000D03*
G04 #@! TD*
D14*
G04 #@! TO.P,C1,1*
G04 #@! TO.N,V12_PROT*
X13525000Y-39000000D03*
G04 #@! TO.P,C1,2*
G04 #@! TO.N,GND*
X16475000Y-39000000D03*
G04 #@! TD*
D15*
G04 #@! TO.P,J3,1*
G04 #@! TO.N,DBG_UART_TX*
X75000000Y-14000000D03*
D16*
G04 #@! TO.P,J3,2*
G04 #@! TO.N,DBG_UART_RX*
X75000000Y-16540000D03*
G04 #@! TD*
D17*
G04 #@! TO.P,MOD1,1*
G04 #@! TO.N,GND*
X51250000Y-21590000D03*
G04 #@! TO.P,MOD1,2*
G04 #@! TO.N,V3V3*
X51250000Y-22860000D03*
G04 #@! TO.P,MOD1,3*
G04 #@! TO.N,ESP_EN*
X51250000Y-24130000D03*
G04 #@! TO.P,MOD1,4*
G04 #@! TO.N,N/C*
X51250000Y-25400000D03*
G04 #@! TO.P,MOD1,5*
G04 #@! TO.N,EPD_CS*
X51250000Y-26670000D03*
G04 #@! TO.P,MOD1,6*
G04 #@! TO.N,EPD_DC*
X51250000Y-27940000D03*
G04 #@! TO.P,MOD1,7*
G04 #@! TO.N,EPD_RST*
X51250000Y-29210000D03*
G04 #@! TO.P,MOD1,8*
G04 #@! TO.N,N/C*
X51250000Y-30480000D03*
G04 #@! TO.P,MOD1,9*
X51250000Y-31750000D03*
G04 #@! TO.P,MOD1,10*
G04 #@! TO.N,UART_TX_3V3*
X51250000Y-33020000D03*
G04 #@! TO.P,MOD1,11*
G04 #@! TO.N,UART_RX_3V3*
X51250000Y-34290000D03*
G04 #@! TO.P,MOD1,12*
G04 #@! TO.N,EPD_BUSY*
X51250000Y-35560000D03*
G04 #@! TO.P,MOD1,13*
G04 #@! TO.N,USB_DM*
X51250000Y-36830000D03*
G04 #@! TO.P,MOD1,14*
G04 #@! TO.N,USB_DP*
X51250000Y-38100000D03*
D18*
G04 #@! TO.P,MOD1,15*
G04 #@! TO.N,N/C*
X53015000Y-39350000D03*
G04 #@! TO.P,MOD1,16*
X54285000Y-39350000D03*
G04 #@! TO.P,MOD1,17*
G04 #@! TO.N,SPI_SCK*
X55555000Y-39350000D03*
G04 #@! TO.P,MOD1,18*
G04 #@! TO.N,SPI_MOSI*
X56825000Y-39350000D03*
G04 #@! TO.P,MOD1,19*
G04 #@! TO.N,N/C*
X58095000Y-39350000D03*
G04 #@! TO.P,MOD1,20*
G04 #@! TO.N,BTN1_IN*
X59365000Y-39350000D03*
G04 #@! TO.P,MOD1,21*
G04 #@! TO.N,BTN2_IN*
X60635000Y-39350000D03*
G04 #@! TO.P,MOD1,22*
G04 #@! TO.N,BTN3_IN*
X61905000Y-39350000D03*
G04 #@! TO.P,MOD1,23*
G04 #@! TO.N,N/C*
X63175000Y-39350000D03*
G04 #@! TO.P,MOD1,24*
X64445000Y-39350000D03*
G04 #@! TO.P,MOD1,25*
X65715000Y-39350000D03*
G04 #@! TO.P,MOD1,26*
X66985000Y-39350000D03*
D17*
G04 #@! TO.P,MOD1,27*
X68750000Y-38100000D03*
G04 #@! TO.P,MOD1,28*
X68750000Y-36830000D03*
G04 #@! TO.P,MOD1,29*
X68750000Y-35560000D03*
G04 #@! TO.P,MOD1,30*
X68750000Y-34290000D03*
G04 #@! TO.P,MOD1,31*
X68750000Y-33020000D03*
G04 #@! TO.P,MOD1,32*
X68750000Y-31750000D03*
G04 #@! TO.P,MOD1,33*
X68750000Y-30480000D03*
G04 #@! TO.P,MOD1,34*
X68750000Y-29210000D03*
G04 #@! TO.P,MOD1,35*
X68750000Y-27940000D03*
G04 #@! TO.P,MOD1,36*
G04 #@! TO.N,DBG_UART_RX*
X68750000Y-26670000D03*
G04 #@! TO.P,MOD1,37*
G04 #@! TO.N,DBG_UART_TX*
X68750000Y-25400000D03*
G04 #@! TO.P,MOD1,38*
G04 #@! TO.N,DE_RE*
X68750000Y-24130000D03*
G04 #@! TO.P,MOD1,39*
G04 #@! TO.N,N/C*
X68750000Y-22860000D03*
G04 #@! TO.P,MOD1,40*
G04 #@! TO.N,GND*
X68750000Y-21590000D03*
D19*
G04 #@! TO.P,MOD1,41*
X58500000Y-29310000D03*
D20*
X59200000Y-29310000D03*
G04 #@! TD*
D21*
G04 #@! TO.P,U2,1*
G04 #@! TO.N,UART_RX_3V3*
X37525000Y-20095000D03*
G04 #@! TO.P,U2,2*
G04 #@! TO.N,DE_RE*
X37525000Y-21365000D03*
G04 #@! TO.P,U2,3*
X37525000Y-22635000D03*
G04 #@! TO.P,U2,4*
G04 #@! TO.N,UART_TX_3V3*
X37525000Y-23905000D03*
G04 #@! TO.P,U2,5*
G04 #@! TO.N,GND*
X42475000Y-23905000D03*
G04 #@! TO.P,U2,6*
G04 #@! TO.N,RS485_A*
X42475000Y-22635000D03*
G04 #@! TO.P,U2,7*
G04 #@! TO.N,RS485_B*
X42475000Y-21365000D03*
G04 #@! TO.P,U2,8*
G04 #@! TO.N,V3V3*
X42475000Y-20095000D03*
G04 #@! TD*
D10*
G04 #@! TO.P,TVS1,1*
G04 #@! TO.N,GND*
X26000000Y-13000000D03*
G04 #@! TO.P,TVS1,2*
G04 #@! TO.N,V12_PROT*
X30000000Y-13000000D03*
G04 #@! TD*
D22*
G04 #@! TO.P,J2,1*
G04 #@! TO.N,GND*
X36750000Y-7150000D03*
G04 #@! TO.P,J2,2*
G04 #@! TO.N,V3V3*
X37250000Y-7150000D03*
G04 #@! TO.P,J2,3*
X37750000Y-7150000D03*
G04 #@! TO.P,J2,4*
G04 #@! TO.N,GND*
X38250000Y-7150000D03*
G04 #@! TO.P,J2,5*
G04 #@! TO.N,EPD_BUSY*
X38750000Y-7150000D03*
G04 #@! TO.P,J2,6*
G04 #@! TO.N,EPD_RST*
X39250000Y-7150000D03*
G04 #@! TO.P,J2,7*
G04 #@! TO.N,EPD_DC*
X39750000Y-7150000D03*
G04 #@! TO.P,J2,8*
G04 #@! TO.N,EPD_CS*
X40250000Y-7150000D03*
G04 #@! TO.P,J2,9*
G04 #@! TO.N,SPI_SCK*
X40750000Y-7150000D03*
G04 #@! TO.P,J2,10*
G04 #@! TO.N,SPI_MOSI*
X41250000Y-7150000D03*
G04 #@! TO.P,J2,11*
G04 #@! TO.N,N/C*
X41750000Y-7150000D03*
G04 #@! TO.P,J2,12*
X42250000Y-7150000D03*
G04 #@! TO.P,J2,13*
X42750000Y-7150000D03*
G04 #@! TO.P,J2,14*
X43250000Y-7150000D03*
G04 #@! TO.P,J2,15*
X43750000Y-7150000D03*
G04 #@! TO.P,J2,16*
X44250000Y-7150000D03*
G04 #@! TO.P,J2,17*
X44750000Y-7150000D03*
G04 #@! TO.P,J2,18*
X45250000Y-7150000D03*
G04 #@! TO.P,J2,19*
X45750000Y-7150000D03*
G04 #@! TO.P,J2,20*
X46250000Y-7150000D03*
G04 #@! TO.P,J2,21*
X46750000Y-7150000D03*
G04 #@! TO.P,J2,22*
X47250000Y-7150000D03*
G04 #@! TO.P,J2,23*
X47750000Y-7150000D03*
G04 #@! TO.P,J2,24*
X48250000Y-7150000D03*
D23*
G04 #@! TO.P,J2,MP*
X34850000Y-10400000D03*
X50150000Y-10400000D03*
G04 #@! TD*
D24*
G04 #@! TO.P,U1,1*
G04 #@! TO.N,V12_PROT*
X15000000Y-50000000D03*
G04 #@! TD*
D25*
G04 #@! TO.N,USB_DP*
X67467500Y-37482200D03*
G04 #@! TO.N,USB_DM*
X66399500Y-36944800D03*
G04 #@! TO.N,GND*
X15244500Y-39908500D03*
X66005000Y-22273200D03*
X40070400Y-24448400D03*
X24076600Y-13235200D03*
X48719300Y-21652200D03*
X35878000Y-7307800D03*
X43385000Y-60036300D03*
X25571000Y-60654400D03*
X60129000Y-61518100D03*
X69581000Y-60654400D03*
X38372000Y-9604800D03*
X30240000Y-60654400D03*
X51767000Y-60654400D03*
G04 #@! TO.N,V3V3*
X43966300Y-20014100D03*
X42838300Y-25108400D03*
G04 #@! TO.N,RS485_A*
X44943200Y-23099400D03*
G04 #@! TO.N,RS485_B*
X46183400Y-19263100D03*
G04 #@! TO.N,BTN3_IN*
X65868000Y-54727000D03*
G04 #@! TO.N,BTN1_IN*
X27811000Y-54727000D03*
G04 #@! TO.N,BTN2_IN*
X48054000Y-54727000D03*
G04 #@! TO.N,ESP_EN*
X63067000Y-25400900D03*
G04 #@! TO.N,EPD_CS*
X41583400Y-26064400D03*
X40092800Y-8333800D03*
G04 #@! TO.N,EPD_DC*
X40159400Y-27444500D03*
X39563000Y-4344100D03*
G04 #@! TO.N,EPD_RST*
X48079000Y-10245700D03*
X48377000Y-28844600D03*
G04 #@! TO.N,EPD_BUSY*
X54253000Y-33981100D03*
X52099500Y-10271500D03*
G04 #@! TO.N,SPI_SCK*
X51315000Y-8165100D03*
X55411900Y-40743600D03*
G04 #@! TO.N,SPI_MOSI*
X54253000Y-7307800D03*
X56683500Y-40702100D03*
G04 #@! TD*
G04 #@! TO.N,USB_DP*
D26*
X66849700Y-38100000D02*
X67467500Y-37482200D01*
X51250000Y-38100000D02*
X66849700Y-38100000D01*
G04 #@! TO.N,USB_DM*
X51250000Y-36830000D02*
X52301700Y-36830000D01*
X66399500Y-36944800D02*
X52416500Y-36944800D01*
X52416500Y-36944800D02*
X52301700Y-36830000D01*
G04 #@! TO.N,GND*
X31975000Y-60250000D02*
X30898300Y-60250000D01*
X43385000Y-60036300D02*
X43315400Y-60036300D01*
X66005000Y-22273200D02*
X66688200Y-21590000D01*
X69581000Y-60654400D02*
X69456100Y-60654400D01*
X35878000Y-7307800D02*
X35878000Y-7506400D01*
X30493900Y-60654400D02*
X30898300Y-60250000D01*
X38372000Y-9604800D02*
X38250000Y-9482800D01*
X66688200Y-21590000D02*
X68750000Y-21590000D01*
X40070400Y-24448400D02*
X41931600Y-24448400D01*
X59200000Y-29310000D02*
X58500000Y-29310000D01*
X24076600Y-13235200D02*
X25764800Y-13235200D01*
X67975000Y-60250000D02*
X69051700Y-60250000D01*
X25764800Y-13235200D02*
X26000000Y-13000000D01*
X48719300Y-21652200D02*
X50136100Y-21652200D01*
X36750000Y-7150000D02*
X36750000Y-8101700D01*
X43315400Y-60036300D02*
X43101700Y-60250000D01*
X60025000Y-61414100D02*
X60025000Y-60250000D01*
X38250000Y-9482800D02*
X38250000Y-7150000D01*
X51767000Y-60654400D02*
X51456100Y-60654400D01*
X69456100Y-60654400D02*
X69051700Y-60250000D01*
X41931600Y-24448400D02*
X42475000Y-23905000D01*
X15244500Y-39908500D02*
X15566500Y-39908500D01*
X35878000Y-7506400D02*
X36473300Y-8101700D01*
X36473300Y-8101700D02*
X36750000Y-8101700D01*
X30240000Y-60654400D02*
X30493900Y-60654400D01*
X42025000Y-60250000D02*
X43101700Y-60250000D01*
X15566500Y-39908500D02*
X16475000Y-39000000D01*
X60129000Y-61518100D02*
X60025000Y-61414100D01*
X25571000Y-60654400D02*
X25506100Y-60654400D01*
X24025000Y-60250000D02*
X25101700Y-60250000D01*
X25506100Y-60654400D02*
X25101700Y-60250000D01*
X50136100Y-21652200D02*
X50198300Y-21590000D01*
X49975000Y-60250000D02*
X51051700Y-60250000D01*
X51456100Y-60654400D02*
X51051700Y-60250000D01*
X51250000Y-21590000D02*
X50198300Y-21590000D01*
G04 #@! TO.N,V3V3*
D27*
X51250000Y-22860000D02*
X48019100Y-22860000D01*
X42555900Y-20014100D02*
X43966300Y-20014100D01*
X45770700Y-25108400D02*
X42838300Y-25108400D01*
X42475000Y-20095000D02*
X42555900Y-20014100D01*
X48019100Y-22860000D02*
X45770700Y-25108400D01*
G04 #@! TO.N,RS485_A*
D28*
X38000000Y-17000000D02*
X38000000Y-18630200D01*
X20101800Y-18630200D02*
X38000000Y-18630200D01*
X42475000Y-22635000D02*
X44478800Y-22635000D01*
X11780000Y-26952000D02*
X20101800Y-18630200D01*
X38000000Y-18630200D02*
X42004800Y-22635000D01*
X44478800Y-22635000D02*
X44943200Y-23099400D01*
X42004800Y-22635000D02*
X42475000Y-22635000D01*
G04 #@! TO.N,RS485_B*
X42000000Y-19258700D02*
X46179000Y-19258700D01*
X8854700Y-23436800D02*
X8854700Y-24790700D01*
X42000000Y-19258700D02*
X41484700Y-19258700D01*
X42000000Y-17000000D02*
X40714700Y-15714700D01*
X41979500Y-21365000D02*
X42475000Y-21365000D01*
X40714700Y-15714700D02*
X16576800Y-15714700D01*
X41484700Y-19258700D02*
X41112700Y-19630700D01*
X41112700Y-20498200D02*
X41979500Y-21365000D01*
X46179000Y-19258700D02*
X46183400Y-19263100D01*
X8854700Y-24790700D02*
X10000000Y-25936000D01*
X42000000Y-19258700D02*
X42000000Y-17000000D01*
X41112700Y-19630700D02*
X41112700Y-20498200D01*
X16576800Y-15714700D02*
X8854700Y-23436800D01*
G04 #@! TO.N,V12_CAT5E*
D29*
X11780000Y-28984000D02*
X10529800Y-28984000D01*
X10529800Y-28984000D02*
X10000000Y-28454200D01*
X10000000Y-28454200D02*
X10000000Y-27968000D01*
G04 #@! TO.N,V12_PROT*
X13525000Y-39000000D02*
X13525000Y-49776700D01*
X20160000Y-9000000D02*
X26000000Y-9000000D01*
X15000000Y-50000000D02*
X13748300Y-50000000D01*
X13525000Y-49776700D02*
X13748300Y-50000000D01*
X26000000Y-9000000D02*
X30000000Y-13000000D01*
G04 #@! TO.N,BTN3_IN*
D26*
X65868000Y-55750000D02*
X65868000Y-54727000D01*
X65868000Y-54727000D02*
X61905000Y-50764000D01*
X65868000Y-55750000D02*
X67975000Y-55750000D01*
X60025000Y-55750000D02*
X65868000Y-55750000D01*
X61905000Y-50764000D02*
X61905000Y-39350000D01*
G04 #@! TO.N,BTN1_IN*
X27811000Y-55750000D02*
X31975000Y-55750000D01*
X59365000Y-39350000D02*
X59365000Y-40401700D01*
X24025000Y-55750000D02*
X27811000Y-55750000D01*
X27811000Y-55750000D02*
X27811000Y-54727000D01*
X59365000Y-40401700D02*
X45039700Y-54727000D01*
X45039700Y-54727000D02*
X27811000Y-54727000D01*
G04 #@! TO.N,BTN2_IN*
X47031000Y-55750000D02*
X48054000Y-54727000D01*
X42025000Y-55750000D02*
X47031000Y-55750000D01*
X49975000Y-55750000D02*
X49975000Y-54798300D01*
X60635000Y-43995700D02*
X60635000Y-39350000D01*
X48054000Y-54727000D02*
X49903700Y-54727000D01*
X49903700Y-54727000D02*
X49975000Y-54798300D01*
X49903700Y-54727000D02*
X60635000Y-43995700D01*
G04 #@! TO.N,DBG_UART_TX*
X75000000Y-14000000D02*
X75000000Y-15151700D01*
X74712100Y-15151700D02*
X75000000Y-15151700D01*
X69801700Y-25400000D02*
X69801700Y-20062100D01*
X68750000Y-25400000D02*
X69801700Y-25400000D01*
X69801700Y-20062100D02*
X74712100Y-15151700D01*
G04 #@! TO.N,DBG_UART_RX*
X72005000Y-24466700D02*
X72005000Y-19535000D01*
X68750000Y-26670000D02*
X69801700Y-26670000D01*
X72005000Y-19535000D02*
X75000000Y-16540000D01*
X69801700Y-26670000D02*
X72005000Y-24466700D01*
G04 #@! TO.N,ESP_EN*
X53572600Y-25400900D02*
X52301700Y-24130000D01*
X63067000Y-25400900D02*
X53572600Y-25400900D01*
X51250000Y-24130000D02*
X52301700Y-24130000D01*
G04 #@! TO.N,EPD_CS*
X40092800Y-8333800D02*
X40250000Y-8176600D01*
X40250000Y-8176600D02*
X40250000Y-7150000D01*
X42189000Y-26670000D02*
X41583400Y-26064400D01*
X51250000Y-26670000D02*
X42189000Y-26670000D01*
G04 #@! TO.N,EPD_DC*
X39563000Y-4344100D02*
X39750000Y-4531100D01*
X51250000Y-27940000D02*
X40654900Y-27940000D01*
X40654900Y-27940000D02*
X40159400Y-27444500D01*
X39750000Y-4531100D02*
X39750000Y-7150000D01*
G04 #@! TO.N,EPD_RST*
X48377000Y-28844600D02*
X49832900Y-28844600D01*
X39250000Y-7150000D02*
X39250000Y-8101700D01*
X51250000Y-29210000D02*
X50198300Y-29210000D01*
X39250000Y-8101700D02*
X39489500Y-8341200D01*
X49832900Y-28844600D02*
X50198300Y-29210000D01*
X46768800Y-8935500D02*
X48079000Y-10245700D01*
X39842100Y-8935500D02*
X46768800Y-8935500D01*
X39489500Y-8582900D02*
X39842100Y-8935500D01*
X39489500Y-8341200D02*
X39489500Y-8582900D01*
G04 #@! TO.N,UART_TX_3V3*
X39006400Y-27142700D02*
X40669000Y-28805300D01*
X39006400Y-25386400D02*
X39006400Y-27142700D01*
X40669000Y-28805300D02*
X44653900Y-28805300D01*
X44653900Y-28805300D02*
X48868600Y-33020000D01*
X48868600Y-33020000D02*
X51250000Y-33020000D01*
X37525000Y-23905000D02*
X39006400Y-25386400D01*
G04 #@! TO.N,UART_RX_3V3*
X37525000Y-20095000D02*
X37171200Y-20095000D01*
X36216200Y-24920500D02*
X45585700Y-34290000D01*
X36216200Y-21050000D02*
X36216200Y-24920500D01*
X45585700Y-34290000D02*
X51250000Y-34290000D01*
X37171200Y-20095000D02*
X36216200Y-21050000D01*
G04 #@! TO.N,EPD_BUSY*
X54253000Y-33981100D02*
X52674100Y-35560000D01*
X52674100Y-35560000D02*
X51250000Y-35560000D01*
X38750000Y-8411400D02*
X42140300Y-11801700D01*
X51175000Y-11801700D02*
X52099500Y-10877200D01*
X38750000Y-7150000D02*
X38750000Y-8411400D01*
X52099500Y-10877200D02*
X52099500Y-10271500D01*
X42140300Y-11801700D02*
X51175000Y-11801700D01*
G04 #@! TO.N,SPI_SCK*
X40750000Y-8101700D02*
X51251600Y-8101700D01*
X55555000Y-39350000D02*
X55555000Y-40600500D01*
X55555000Y-40600500D02*
X55411900Y-40743600D01*
X51251600Y-8101700D02*
X51315000Y-8165100D01*
X40750000Y-7150000D02*
X40750000Y-8101700D01*
G04 #@! TO.N,SPI_MOSI*
X41250000Y-6198300D02*
X53143500Y-6198300D01*
X56825000Y-40560600D02*
X56825000Y-39350000D01*
X56683500Y-40702100D02*
X56825000Y-40560600D01*
X53143500Y-6198300D02*
X54253000Y-7307800D01*
X41250000Y-7150000D02*
X41250000Y-6198300D01*
G04 #@! TO.N,DE_RE*
X37525000Y-21365000D02*
X37525000Y-22635000D01*
X43967600Y-23295100D02*
X38185100Y-23295100D01*
X55416700Y-24130000D02*
X52121200Y-20834500D01*
X45341900Y-23754600D02*
X44427100Y-23754600D01*
X44427100Y-23754600D02*
X43967600Y-23295100D01*
X68750000Y-24130000D02*
X55416700Y-24130000D01*
X38185100Y-23295100D02*
X37525000Y-22635000D01*
X52121200Y-20834500D02*
X48262000Y-20834500D01*
X48262000Y-20834500D02*
X45341900Y-23754600D01*
G04 #@! TD*
M02*
