G04 #@! TF.GenerationSoftware,KiCad,Pcbnew,10.0.3*
G04 #@! TF.CreationDate,2026-06-03T10:39:49-07:00*
G04 #@! TF.ProjectId,display_side,64697370-6c61-4795-9f73-6964652e6b69,rev?*
G04 #@! TF.SameCoordinates,Original*
G04 #@! TF.FileFunction,Legend,Bot*
G04 #@! TF.FilePolarity,Positive*
%FSLAX46Y46*%
G04 Gerber Fmt 4.6, Leading zero omitted, Abs format (unit mm)*
G04 Created by KiCad (PCBNEW 10.0.3) date 2026-06-03 10:39:49*
%MOMM*%
%LPD*%
G01*
G04 APERTURE LIST*
%ADD10C,0.150000*%
%ADD11C,0.120000*%
G04 APERTURE END LIST*
D10*
X13511904Y-53924819D02*
X13511904Y-54734342D01*
X13511904Y-54734342D02*
X13464285Y-54829580D01*
X13464285Y-54829580D02*
X13416666Y-54877200D01*
X13416666Y-54877200D02*
X13321428Y-54924819D01*
X13321428Y-54924819D02*
X13130952Y-54924819D01*
X13130952Y-54924819D02*
X13035714Y-54877200D01*
X13035714Y-54877200D02*
X12988095Y-54829580D01*
X12988095Y-54829580D02*
X12940476Y-54734342D01*
X12940476Y-54734342D02*
X12940476Y-53924819D01*
X11940476Y-54924819D02*
X12511904Y-54924819D01*
X12226190Y-54924819D02*
X12226190Y-53924819D01*
X12226190Y-53924819D02*
X12321428Y-54067676D01*
X12321428Y-54067676D02*
X12416666Y-54162914D01*
X12416666Y-54162914D02*
X12511904Y-54210533D01*
X58586666Y-52454819D02*
X58919999Y-51978628D01*
X59158094Y-52454819D02*
X59158094Y-51454819D01*
X59158094Y-51454819D02*
X58777142Y-51454819D01*
X58777142Y-51454819D02*
X58681904Y-51502438D01*
X58681904Y-51502438D02*
X58634285Y-51550057D01*
X58634285Y-51550057D02*
X58586666Y-51645295D01*
X58586666Y-51645295D02*
X58586666Y-51788152D01*
X58586666Y-51788152D02*
X58634285Y-51883390D01*
X58634285Y-51883390D02*
X58681904Y-51931009D01*
X58681904Y-51931009D02*
X58777142Y-51978628D01*
X58777142Y-51978628D02*
X59158094Y-51978628D01*
X58253332Y-51454819D02*
X57586666Y-51454819D01*
X57586666Y-51454819D02*
X58015237Y-52454819D01*
X62166666Y-42999580D02*
X62214285Y-43047200D01*
X62214285Y-43047200D02*
X62357142Y-43094819D01*
X62357142Y-43094819D02*
X62452380Y-43094819D01*
X62452380Y-43094819D02*
X62595237Y-43047200D01*
X62595237Y-43047200D02*
X62690475Y-42951961D01*
X62690475Y-42951961D02*
X62738094Y-42856723D01*
X62738094Y-42856723D02*
X62785713Y-42666247D01*
X62785713Y-42666247D02*
X62785713Y-42523390D01*
X62785713Y-42523390D02*
X62738094Y-42332914D01*
X62738094Y-42332914D02*
X62690475Y-42237676D01*
X62690475Y-42237676D02*
X62595237Y-42142438D01*
X62595237Y-42142438D02*
X62452380Y-42094819D01*
X62452380Y-42094819D02*
X62357142Y-42094819D01*
X62357142Y-42094819D02*
X62214285Y-42142438D01*
X62214285Y-42142438D02*
X62166666Y-42190057D01*
X61309523Y-42428152D02*
X61309523Y-43094819D01*
X61547618Y-42047200D02*
X61785713Y-42761485D01*
X61785713Y-42761485D02*
X61166666Y-42761485D01*
X54166666Y-42479580D02*
X54214285Y-42527200D01*
X54214285Y-42527200D02*
X54357142Y-42574819D01*
X54357142Y-42574819D02*
X54452380Y-42574819D01*
X54452380Y-42574819D02*
X54595237Y-42527200D01*
X54595237Y-42527200D02*
X54690475Y-42431961D01*
X54690475Y-42431961D02*
X54738094Y-42336723D01*
X54738094Y-42336723D02*
X54785713Y-42146247D01*
X54785713Y-42146247D02*
X54785713Y-42003390D01*
X54785713Y-42003390D02*
X54738094Y-41812914D01*
X54738094Y-41812914D02*
X54690475Y-41717676D01*
X54690475Y-41717676D02*
X54595237Y-41622438D01*
X54595237Y-41622438D02*
X54452380Y-41574819D01*
X54452380Y-41574819D02*
X54357142Y-41574819D01*
X54357142Y-41574819D02*
X54214285Y-41622438D01*
X54214285Y-41622438D02*
X54166666Y-41670057D01*
X53785713Y-41670057D02*
X53738094Y-41622438D01*
X53738094Y-41622438D02*
X53642856Y-41574819D01*
X53642856Y-41574819D02*
X53404761Y-41574819D01*
X53404761Y-41574819D02*
X53309523Y-41622438D01*
X53309523Y-41622438D02*
X53261904Y-41670057D01*
X53261904Y-41670057D02*
X53214285Y-41765295D01*
X53214285Y-41765295D02*
X53214285Y-41860533D01*
X53214285Y-41860533D02*
X53261904Y-42003390D01*
X53261904Y-42003390D02*
X53833332Y-42574819D01*
X53833332Y-42574819D02*
X53214285Y-42574819D01*
X69546666Y-44359580D02*
X69594285Y-44407200D01*
X69594285Y-44407200D02*
X69737142Y-44454819D01*
X69737142Y-44454819D02*
X69832380Y-44454819D01*
X69832380Y-44454819D02*
X69975237Y-44407200D01*
X69975237Y-44407200D02*
X70070475Y-44311961D01*
X70070475Y-44311961D02*
X70118094Y-44216723D01*
X70118094Y-44216723D02*
X70165713Y-44026247D01*
X70165713Y-44026247D02*
X70165713Y-43883390D01*
X70165713Y-43883390D02*
X70118094Y-43692914D01*
X70118094Y-43692914D02*
X70070475Y-43597676D01*
X70070475Y-43597676D02*
X69975237Y-43502438D01*
X69975237Y-43502438D02*
X69832380Y-43454819D01*
X69832380Y-43454819D02*
X69737142Y-43454819D01*
X69737142Y-43454819D02*
X69594285Y-43502438D01*
X69594285Y-43502438D02*
X69546666Y-43550057D01*
X68641904Y-43454819D02*
X69118094Y-43454819D01*
X69118094Y-43454819D02*
X69165713Y-43931009D01*
X69165713Y-43931009D02*
X69118094Y-43883390D01*
X69118094Y-43883390D02*
X69022856Y-43835771D01*
X69022856Y-43835771D02*
X68784761Y-43835771D01*
X68784761Y-43835771D02*
X68689523Y-43883390D01*
X68689523Y-43883390D02*
X68641904Y-43931009D01*
X68641904Y-43931009D02*
X68594285Y-44026247D01*
X68594285Y-44026247D02*
X68594285Y-44264342D01*
X68594285Y-44264342D02*
X68641904Y-44359580D01*
X68641904Y-44359580D02*
X68689523Y-44407200D01*
X68689523Y-44407200D02*
X68784761Y-44454819D01*
X68784761Y-44454819D02*
X69022856Y-44454819D01*
X69022856Y-44454819D02*
X69118094Y-44407200D01*
X69118094Y-44407200D02*
X69165713Y-44359580D01*
X48746666Y-22454819D02*
X49079999Y-21978628D01*
X49318094Y-22454819D02*
X49318094Y-21454819D01*
X49318094Y-21454819D02*
X48937142Y-21454819D01*
X48937142Y-21454819D02*
X48841904Y-21502438D01*
X48841904Y-21502438D02*
X48794285Y-21550057D01*
X48794285Y-21550057D02*
X48746666Y-21645295D01*
X48746666Y-21645295D02*
X48746666Y-21788152D01*
X48746666Y-21788152D02*
X48794285Y-21883390D01*
X48794285Y-21883390D02*
X48841904Y-21931009D01*
X48841904Y-21931009D02*
X48937142Y-21978628D01*
X48937142Y-21978628D02*
X49318094Y-21978628D01*
X48413332Y-21454819D02*
X47794285Y-21454819D01*
X47794285Y-21454819D02*
X48127618Y-21835771D01*
X48127618Y-21835771D02*
X47984761Y-21835771D01*
X47984761Y-21835771D02*
X47889523Y-21883390D01*
X47889523Y-21883390D02*
X47841904Y-21931009D01*
X47841904Y-21931009D02*
X47794285Y-22026247D01*
X47794285Y-22026247D02*
X47794285Y-22264342D01*
X47794285Y-22264342D02*
X47841904Y-22359580D01*
X47841904Y-22359580D02*
X47889523Y-22407200D01*
X47889523Y-22407200D02*
X47984761Y-22454819D01*
X47984761Y-22454819D02*
X48270475Y-22454819D01*
X48270475Y-22454819D02*
X48365713Y-22407200D01*
X48365713Y-22407200D02*
X48413332Y-22359580D01*
X40586666Y-52454819D02*
X40919999Y-51978628D01*
X41158094Y-52454819D02*
X41158094Y-51454819D01*
X41158094Y-51454819D02*
X40777142Y-51454819D01*
X40777142Y-51454819D02*
X40681904Y-51502438D01*
X40681904Y-51502438D02*
X40634285Y-51550057D01*
X40634285Y-51550057D02*
X40586666Y-51645295D01*
X40586666Y-51645295D02*
X40586666Y-51788152D01*
X40586666Y-51788152D02*
X40634285Y-51883390D01*
X40634285Y-51883390D02*
X40681904Y-51931009D01*
X40681904Y-51931009D02*
X40777142Y-51978628D01*
X40777142Y-51978628D02*
X41158094Y-51978628D01*
X39729523Y-51454819D02*
X39919999Y-51454819D01*
X39919999Y-51454819D02*
X40015237Y-51502438D01*
X40015237Y-51502438D02*
X40062856Y-51550057D01*
X40062856Y-51550057D02*
X40158094Y-51692914D01*
X40158094Y-51692914D02*
X40205713Y-51883390D01*
X40205713Y-51883390D02*
X40205713Y-52264342D01*
X40205713Y-52264342D02*
X40158094Y-52359580D01*
X40158094Y-52359580D02*
X40110475Y-52407200D01*
X40110475Y-52407200D02*
X40015237Y-52454819D01*
X40015237Y-52454819D02*
X39824761Y-52454819D01*
X39824761Y-52454819D02*
X39729523Y-52407200D01*
X39729523Y-52407200D02*
X39681904Y-52359580D01*
X39681904Y-52359580D02*
X39634285Y-52264342D01*
X39634285Y-52264342D02*
X39634285Y-52026247D01*
X39634285Y-52026247D02*
X39681904Y-51931009D01*
X39681904Y-51931009D02*
X39729523Y-51883390D01*
X39729523Y-51883390D02*
X39824761Y-51835771D01*
X39824761Y-51835771D02*
X40015237Y-51835771D01*
X40015237Y-51835771D02*
X40110475Y-51883390D01*
X40110475Y-51883390D02*
X40158094Y-51931009D01*
X40158094Y-51931009D02*
X40205713Y-52026247D01*
X70022857Y-52359580D02*
X70070476Y-52407200D01*
X70070476Y-52407200D02*
X70213333Y-52454819D01*
X70213333Y-52454819D02*
X70308571Y-52454819D01*
X70308571Y-52454819D02*
X70451428Y-52407200D01*
X70451428Y-52407200D02*
X70546666Y-52311961D01*
X70546666Y-52311961D02*
X70594285Y-52216723D01*
X70594285Y-52216723D02*
X70641904Y-52026247D01*
X70641904Y-52026247D02*
X70641904Y-51883390D01*
X70641904Y-51883390D02*
X70594285Y-51692914D01*
X70594285Y-51692914D02*
X70546666Y-51597676D01*
X70546666Y-51597676D02*
X70451428Y-51502438D01*
X70451428Y-51502438D02*
X70308571Y-51454819D01*
X70308571Y-51454819D02*
X70213333Y-51454819D01*
X70213333Y-51454819D02*
X70070476Y-51502438D01*
X70070476Y-51502438D02*
X70022857Y-51550057D01*
X69070476Y-52454819D02*
X69641904Y-52454819D01*
X69356190Y-52454819D02*
X69356190Y-51454819D01*
X69356190Y-51454819D02*
X69451428Y-51597676D01*
X69451428Y-51597676D02*
X69546666Y-51692914D01*
X69546666Y-51692914D02*
X69641904Y-51740533D01*
X68451428Y-51454819D02*
X68356190Y-51454819D01*
X68356190Y-51454819D02*
X68260952Y-51502438D01*
X68260952Y-51502438D02*
X68213333Y-51550057D01*
X68213333Y-51550057D02*
X68165714Y-51645295D01*
X68165714Y-51645295D02*
X68118095Y-51835771D01*
X68118095Y-51835771D02*
X68118095Y-52073866D01*
X68118095Y-52073866D02*
X68165714Y-52264342D01*
X68165714Y-52264342D02*
X68213333Y-52359580D01*
X68213333Y-52359580D02*
X68260952Y-52407200D01*
X68260952Y-52407200D02*
X68356190Y-52454819D01*
X68356190Y-52454819D02*
X68451428Y-52454819D01*
X68451428Y-52454819D02*
X68546666Y-52407200D01*
X68546666Y-52407200D02*
X68594285Y-52359580D01*
X68594285Y-52359580D02*
X68641904Y-52264342D01*
X68641904Y-52264342D02*
X68689523Y-52073866D01*
X68689523Y-52073866D02*
X68689523Y-51835771D01*
X68689523Y-51835771D02*
X68641904Y-51645295D01*
X68641904Y-51645295D02*
X68594285Y-51550057D01*
X68594285Y-51550057D02*
X68546666Y-51502438D01*
X68546666Y-51502438D02*
X68451428Y-51454819D01*
X46786666Y-47359580D02*
X46834285Y-47407200D01*
X46834285Y-47407200D02*
X46977142Y-47454819D01*
X46977142Y-47454819D02*
X47072380Y-47454819D01*
X47072380Y-47454819D02*
X47215237Y-47407200D01*
X47215237Y-47407200D02*
X47310475Y-47311961D01*
X47310475Y-47311961D02*
X47358094Y-47216723D01*
X47358094Y-47216723D02*
X47405713Y-47026247D01*
X47405713Y-47026247D02*
X47405713Y-46883390D01*
X47405713Y-46883390D02*
X47358094Y-46692914D01*
X47358094Y-46692914D02*
X47310475Y-46597676D01*
X47310475Y-46597676D02*
X47215237Y-46502438D01*
X47215237Y-46502438D02*
X47072380Y-46454819D01*
X47072380Y-46454819D02*
X46977142Y-46454819D01*
X46977142Y-46454819D02*
X46834285Y-46502438D01*
X46834285Y-46502438D02*
X46786666Y-46550057D01*
X45929523Y-46454819D02*
X46119999Y-46454819D01*
X46119999Y-46454819D02*
X46215237Y-46502438D01*
X46215237Y-46502438D02*
X46262856Y-46550057D01*
X46262856Y-46550057D02*
X46358094Y-46692914D01*
X46358094Y-46692914D02*
X46405713Y-46883390D01*
X46405713Y-46883390D02*
X46405713Y-47264342D01*
X46405713Y-47264342D02*
X46358094Y-47359580D01*
X46358094Y-47359580D02*
X46310475Y-47407200D01*
X46310475Y-47407200D02*
X46215237Y-47454819D01*
X46215237Y-47454819D02*
X46024761Y-47454819D01*
X46024761Y-47454819D02*
X45929523Y-47407200D01*
X45929523Y-47407200D02*
X45881904Y-47359580D01*
X45881904Y-47359580D02*
X45834285Y-47264342D01*
X45834285Y-47264342D02*
X45834285Y-47026247D01*
X45834285Y-47026247D02*
X45881904Y-46931009D01*
X45881904Y-46931009D02*
X45929523Y-46883390D01*
X45929523Y-46883390D02*
X46024761Y-46835771D01*
X46024761Y-46835771D02*
X46215237Y-46835771D01*
X46215237Y-46835771D02*
X46310475Y-46883390D01*
X46310475Y-46883390D02*
X46358094Y-46931009D01*
X46358094Y-46931009D02*
X46405713Y-47026247D01*
X48746666Y-18454819D02*
X49079999Y-17978628D01*
X49318094Y-18454819D02*
X49318094Y-17454819D01*
X49318094Y-17454819D02*
X48937142Y-17454819D01*
X48937142Y-17454819D02*
X48841904Y-17502438D01*
X48841904Y-17502438D02*
X48794285Y-17550057D01*
X48794285Y-17550057D02*
X48746666Y-17645295D01*
X48746666Y-17645295D02*
X48746666Y-17788152D01*
X48746666Y-17788152D02*
X48794285Y-17883390D01*
X48794285Y-17883390D02*
X48841904Y-17931009D01*
X48841904Y-17931009D02*
X48937142Y-17978628D01*
X48937142Y-17978628D02*
X49318094Y-17978628D01*
X48365713Y-17550057D02*
X48318094Y-17502438D01*
X48318094Y-17502438D02*
X48222856Y-17454819D01*
X48222856Y-17454819D02*
X47984761Y-17454819D01*
X47984761Y-17454819D02*
X47889523Y-17502438D01*
X47889523Y-17502438D02*
X47841904Y-17550057D01*
X47841904Y-17550057D02*
X47794285Y-17645295D01*
X47794285Y-17645295D02*
X47794285Y-17740533D01*
X47794285Y-17740533D02*
X47841904Y-17883390D01*
X47841904Y-17883390D02*
X48413332Y-18454819D01*
X48413332Y-18454819D02*
X47794285Y-18454819D01*
X57546666Y-47359580D02*
X57594285Y-47407200D01*
X57594285Y-47407200D02*
X57737142Y-47454819D01*
X57737142Y-47454819D02*
X57832380Y-47454819D01*
X57832380Y-47454819D02*
X57975237Y-47407200D01*
X57975237Y-47407200D02*
X58070475Y-47311961D01*
X58070475Y-47311961D02*
X58118094Y-47216723D01*
X58118094Y-47216723D02*
X58165713Y-47026247D01*
X58165713Y-47026247D02*
X58165713Y-46883390D01*
X58165713Y-46883390D02*
X58118094Y-46692914D01*
X58118094Y-46692914D02*
X58070475Y-46597676D01*
X58070475Y-46597676D02*
X57975237Y-46502438D01*
X57975237Y-46502438D02*
X57832380Y-46454819D01*
X57832380Y-46454819D02*
X57737142Y-46454819D01*
X57737142Y-46454819D02*
X57594285Y-46502438D01*
X57594285Y-46502438D02*
X57546666Y-46550057D01*
X57213332Y-46454819D02*
X56546666Y-46454819D01*
X56546666Y-46454819D02*
X56975237Y-47454819D01*
X22586666Y-52454819D02*
X22919999Y-51978628D01*
X23158094Y-52454819D02*
X23158094Y-51454819D01*
X23158094Y-51454819D02*
X22777142Y-51454819D01*
X22777142Y-51454819D02*
X22681904Y-51502438D01*
X22681904Y-51502438D02*
X22634285Y-51550057D01*
X22634285Y-51550057D02*
X22586666Y-51645295D01*
X22586666Y-51645295D02*
X22586666Y-51788152D01*
X22586666Y-51788152D02*
X22634285Y-51883390D01*
X22634285Y-51883390D02*
X22681904Y-51931009D01*
X22681904Y-51931009D02*
X22777142Y-51978628D01*
X22777142Y-51978628D02*
X23158094Y-51978628D01*
X21681904Y-51454819D02*
X22158094Y-51454819D01*
X22158094Y-51454819D02*
X22205713Y-51931009D01*
X22205713Y-51931009D02*
X22158094Y-51883390D01*
X22158094Y-51883390D02*
X22062856Y-51835771D01*
X22062856Y-51835771D02*
X21824761Y-51835771D01*
X21824761Y-51835771D02*
X21729523Y-51883390D01*
X21729523Y-51883390D02*
X21681904Y-51931009D01*
X21681904Y-51931009D02*
X21634285Y-52026247D01*
X21634285Y-52026247D02*
X21634285Y-52264342D01*
X21634285Y-52264342D02*
X21681904Y-52359580D01*
X21681904Y-52359580D02*
X21729523Y-52407200D01*
X21729523Y-52407200D02*
X21824761Y-52454819D01*
X21824761Y-52454819D02*
X22062856Y-52454819D01*
X22062856Y-52454819D02*
X22158094Y-52407200D01*
X22158094Y-52407200D02*
X22205713Y-52359580D01*
X58166666Y-42479580D02*
X58214285Y-42527200D01*
X58214285Y-42527200D02*
X58357142Y-42574819D01*
X58357142Y-42574819D02*
X58452380Y-42574819D01*
X58452380Y-42574819D02*
X58595237Y-42527200D01*
X58595237Y-42527200D02*
X58690475Y-42431961D01*
X58690475Y-42431961D02*
X58738094Y-42336723D01*
X58738094Y-42336723D02*
X58785713Y-42146247D01*
X58785713Y-42146247D02*
X58785713Y-42003390D01*
X58785713Y-42003390D02*
X58738094Y-41812914D01*
X58738094Y-41812914D02*
X58690475Y-41717676D01*
X58690475Y-41717676D02*
X58595237Y-41622438D01*
X58595237Y-41622438D02*
X58452380Y-41574819D01*
X58452380Y-41574819D02*
X58357142Y-41574819D01*
X58357142Y-41574819D02*
X58214285Y-41622438D01*
X58214285Y-41622438D02*
X58166666Y-41670057D01*
X57833332Y-41574819D02*
X57214285Y-41574819D01*
X57214285Y-41574819D02*
X57547618Y-41955771D01*
X57547618Y-41955771D02*
X57404761Y-41955771D01*
X57404761Y-41955771D02*
X57309523Y-42003390D01*
X57309523Y-42003390D02*
X57261904Y-42051009D01*
X57261904Y-42051009D02*
X57214285Y-42146247D01*
X57214285Y-42146247D02*
X57214285Y-42384342D01*
X57214285Y-42384342D02*
X57261904Y-42479580D01*
X57261904Y-42479580D02*
X57309523Y-42527200D01*
X57309523Y-42527200D02*
X57404761Y-42574819D01*
X57404761Y-42574819D02*
X57690475Y-42574819D01*
X57690475Y-42574819D02*
X57785713Y-42527200D01*
X57785713Y-42527200D02*
X57833332Y-42479580D01*
X46586666Y-44454819D02*
X46919999Y-43978628D01*
X47158094Y-44454819D02*
X47158094Y-43454819D01*
X47158094Y-43454819D02*
X46777142Y-43454819D01*
X46777142Y-43454819D02*
X46681904Y-43502438D01*
X46681904Y-43502438D02*
X46634285Y-43550057D01*
X46634285Y-43550057D02*
X46586666Y-43645295D01*
X46586666Y-43645295D02*
X46586666Y-43788152D01*
X46586666Y-43788152D02*
X46634285Y-43883390D01*
X46634285Y-43883390D02*
X46681904Y-43931009D01*
X46681904Y-43931009D02*
X46777142Y-43978628D01*
X46777142Y-43978628D02*
X47158094Y-43978628D01*
X45634285Y-44454819D02*
X46205713Y-44454819D01*
X45919999Y-44454819D02*
X45919999Y-43454819D01*
X45919999Y-43454819D02*
X46015237Y-43597676D01*
X46015237Y-43597676D02*
X46110475Y-43692914D01*
X46110475Y-43692914D02*
X46205713Y-43740533D01*
X33546666Y-52359580D02*
X33594285Y-52407200D01*
X33594285Y-52407200D02*
X33737142Y-52454819D01*
X33737142Y-52454819D02*
X33832380Y-52454819D01*
X33832380Y-52454819D02*
X33975237Y-52407200D01*
X33975237Y-52407200D02*
X34070475Y-52311961D01*
X34070475Y-52311961D02*
X34118094Y-52216723D01*
X34118094Y-52216723D02*
X34165713Y-52026247D01*
X34165713Y-52026247D02*
X34165713Y-51883390D01*
X34165713Y-51883390D02*
X34118094Y-51692914D01*
X34118094Y-51692914D02*
X34070475Y-51597676D01*
X34070475Y-51597676D02*
X33975237Y-51502438D01*
X33975237Y-51502438D02*
X33832380Y-51454819D01*
X33832380Y-51454819D02*
X33737142Y-51454819D01*
X33737142Y-51454819D02*
X33594285Y-51502438D01*
X33594285Y-51502438D02*
X33546666Y-51550057D01*
X32975237Y-51883390D02*
X33070475Y-51835771D01*
X33070475Y-51835771D02*
X33118094Y-51788152D01*
X33118094Y-51788152D02*
X33165713Y-51692914D01*
X33165713Y-51692914D02*
X33165713Y-51645295D01*
X33165713Y-51645295D02*
X33118094Y-51550057D01*
X33118094Y-51550057D02*
X33070475Y-51502438D01*
X33070475Y-51502438D02*
X32975237Y-51454819D01*
X32975237Y-51454819D02*
X32784761Y-51454819D01*
X32784761Y-51454819D02*
X32689523Y-51502438D01*
X32689523Y-51502438D02*
X32641904Y-51550057D01*
X32641904Y-51550057D02*
X32594285Y-51645295D01*
X32594285Y-51645295D02*
X32594285Y-51692914D01*
X32594285Y-51692914D02*
X32641904Y-51788152D01*
X32641904Y-51788152D02*
X32689523Y-51835771D01*
X32689523Y-51835771D02*
X32784761Y-51883390D01*
X32784761Y-51883390D02*
X32975237Y-51883390D01*
X32975237Y-51883390D02*
X33070475Y-51931009D01*
X33070475Y-51931009D02*
X33118094Y-51978628D01*
X33118094Y-51978628D02*
X33165713Y-52073866D01*
X33165713Y-52073866D02*
X33165713Y-52264342D01*
X33165713Y-52264342D02*
X33118094Y-52359580D01*
X33118094Y-52359580D02*
X33070475Y-52407200D01*
X33070475Y-52407200D02*
X32975237Y-52454819D01*
X32975237Y-52454819D02*
X32784761Y-52454819D01*
X32784761Y-52454819D02*
X32689523Y-52407200D01*
X32689523Y-52407200D02*
X32641904Y-52359580D01*
X32641904Y-52359580D02*
X32594285Y-52264342D01*
X32594285Y-52264342D02*
X32594285Y-52073866D01*
X32594285Y-52073866D02*
X32641904Y-51978628D01*
X32641904Y-51978628D02*
X32689523Y-51931009D01*
X32689523Y-51931009D02*
X32784761Y-51883390D01*
X51546666Y-52359580D02*
X51594285Y-52407200D01*
X51594285Y-52407200D02*
X51737142Y-52454819D01*
X51737142Y-52454819D02*
X51832380Y-52454819D01*
X51832380Y-52454819D02*
X51975237Y-52407200D01*
X51975237Y-52407200D02*
X52070475Y-52311961D01*
X52070475Y-52311961D02*
X52118094Y-52216723D01*
X52118094Y-52216723D02*
X52165713Y-52026247D01*
X52165713Y-52026247D02*
X52165713Y-51883390D01*
X52165713Y-51883390D02*
X52118094Y-51692914D01*
X52118094Y-51692914D02*
X52070475Y-51597676D01*
X52070475Y-51597676D02*
X51975237Y-51502438D01*
X51975237Y-51502438D02*
X51832380Y-51454819D01*
X51832380Y-51454819D02*
X51737142Y-51454819D01*
X51737142Y-51454819D02*
X51594285Y-51502438D01*
X51594285Y-51502438D02*
X51546666Y-51550057D01*
X51070475Y-52454819D02*
X50879999Y-52454819D01*
X50879999Y-52454819D02*
X50784761Y-52407200D01*
X50784761Y-52407200D02*
X50737142Y-52359580D01*
X50737142Y-52359580D02*
X50641904Y-52216723D01*
X50641904Y-52216723D02*
X50594285Y-52026247D01*
X50594285Y-52026247D02*
X50594285Y-51645295D01*
X50594285Y-51645295D02*
X50641904Y-51550057D01*
X50641904Y-51550057D02*
X50689523Y-51502438D01*
X50689523Y-51502438D02*
X50784761Y-51454819D01*
X50784761Y-51454819D02*
X50975237Y-51454819D01*
X50975237Y-51454819D02*
X51070475Y-51502438D01*
X51070475Y-51502438D02*
X51118094Y-51550057D01*
X51118094Y-51550057D02*
X51165713Y-51645295D01*
X51165713Y-51645295D02*
X51165713Y-51883390D01*
X51165713Y-51883390D02*
X51118094Y-51978628D01*
X51118094Y-51978628D02*
X51070475Y-52026247D01*
X51070475Y-52026247D02*
X50975237Y-52073866D01*
X50975237Y-52073866D02*
X50784761Y-52073866D01*
X50784761Y-52073866D02*
X50689523Y-52026247D01*
X50689523Y-52026247D02*
X50641904Y-51978628D01*
X50641904Y-51978628D02*
X50594285Y-51883390D01*
X45166666Y-28304819D02*
X45499999Y-27828628D01*
X45738094Y-28304819D02*
X45738094Y-27304819D01*
X45738094Y-27304819D02*
X45357142Y-27304819D01*
X45357142Y-27304819D02*
X45261904Y-27352438D01*
X45261904Y-27352438D02*
X45214285Y-27400057D01*
X45214285Y-27400057D02*
X45166666Y-27495295D01*
X45166666Y-27495295D02*
X45166666Y-27638152D01*
X45166666Y-27638152D02*
X45214285Y-27733390D01*
X45214285Y-27733390D02*
X45261904Y-27781009D01*
X45261904Y-27781009D02*
X45357142Y-27828628D01*
X45357142Y-27828628D02*
X45738094Y-27828628D01*
X44309523Y-27638152D02*
X44309523Y-28304819D01*
X44547618Y-27257200D02*
X44785713Y-27971485D01*
X44785713Y-27971485D02*
X44166666Y-27971485D01*
G04 #@! TO.C,U1*
D11*
X8440000Y-41650000D02*
X17060000Y-41650000D01*
X8440000Y-53370000D02*
X8440000Y-41650000D01*
X16060000Y-53610000D02*
X17300000Y-53610000D01*
X17060000Y-41650000D02*
X17060000Y-53370000D01*
X17060000Y-53370000D02*
X8440000Y-53370000D01*
X17300000Y-53610000D02*
X17300000Y-52370000D01*
G04 #@! TO.C,R7*
X61772936Y-51265000D02*
X62227064Y-51265000D01*
X61772936Y-52735000D02*
X62227064Y-52735000D01*
G04 #@! TO.C,C4*
X61892164Y-43640000D02*
X62107836Y-43640000D01*
X61892164Y-44360000D02*
X62107836Y-44360000D01*
G04 #@! TO.C,C2*
X53738748Y-43265000D02*
X54261252Y-43265000D01*
X53738748Y-44735000D02*
X54261252Y-44735000D01*
G04 #@! TO.C,C5*
X65859420Y-43490000D02*
X66140580Y-43490000D01*
X65859420Y-44510000D02*
X66140580Y-44510000D01*
G04 #@! TO.C,R3*
X44772936Y-21265000D02*
X45227064Y-21265000D01*
X44772936Y-22735000D02*
X45227064Y-22735000D01*
G04 #@! TO.C,R6*
X43772936Y-51265000D02*
X44227064Y-51265000D01*
X43772936Y-52735000D02*
X44227064Y-52735000D01*
G04 #@! TO.C,C10*
X65859420Y-51490000D02*
X66140580Y-51490000D01*
X65859420Y-52510000D02*
X66140580Y-52510000D01*
G04 #@! TO.C,C6*
X49859420Y-46490000D02*
X50140580Y-46490000D01*
X49859420Y-47510000D02*
X50140580Y-47510000D01*
G04 #@! TO.C,R2*
X44772936Y-17265000D02*
X45227064Y-17265000D01*
X44772936Y-18735000D02*
X45227064Y-18735000D01*
G04 #@! TO.C,C7*
X53859420Y-46490000D02*
X54140580Y-46490000D01*
X53859420Y-47510000D02*
X54140580Y-47510000D01*
G04 #@! TO.C,R5*
X25772936Y-51265000D02*
X26227064Y-51265000D01*
X25772936Y-52735000D02*
X26227064Y-52735000D01*
G04 #@! TO.C,C3*
X57738748Y-43265000D02*
X58261252Y-43265000D01*
X57738748Y-44735000D02*
X58261252Y-44735000D01*
G04 #@! TO.C,R1*
X49772936Y-43265000D02*
X50227064Y-43265000D01*
X49772936Y-44735000D02*
X50227064Y-44735000D01*
G04 #@! TO.C,C8*
X29859420Y-51490000D02*
X30140580Y-51490000D01*
X29859420Y-52510000D02*
X30140580Y-52510000D01*
G04 #@! TO.C,C9*
X47859420Y-51490000D02*
X48140580Y-51490000D01*
X47859420Y-52510000D02*
X48140580Y-52510000D01*
G04 #@! TO.C,R4*
X44772936Y-25265000D02*
X45227064Y-25265000D01*
X44772936Y-26735000D02*
X45227064Y-26735000D01*
G04 #@! TD*
M02*
