G04 #@! TF.GenerationSoftware,KiCad,Pcbnew,10.0.3*
G04 #@! TF.CreationDate,2026-06-03T10:39:49-07:00*
G04 #@! TF.ProjectId,display_side,64697370-6c61-4795-9f73-6964652e6b69,rev?*
G04 #@! TF.SameCoordinates,Original*
G04 #@! TF.FileFunction,Copper,L2,Bot*
G04 #@! TF.FilePolarity,Positive*
%FSLAX46Y46*%
G04 Gerber Fmt 4.6, Leading zero omitted, Abs format (unit mm)*
G04 Created by KiCad (PCBNEW 10.0.3) date 2026-06-03 10:39:49*
%MOMM*%
%LPD*%
G01*
G04 APERTURE LIST*
G04 Aperture macros list*
%AMRoundRect*
0 Rectangle with rounded corners*
0 $1 Rounding radius*
0 $2 $3 $4 $5 $6 $7 $8 $9 X,Y pos of 4 corners*
0 Add a 4 corners polygon primitive as box body*
4,1,4,$2,$3,$4,$5,$6,$7,$8,$9,$2,$3,0*
0 Add four circle primitives for the rounded corners*
1,1,$1+$1,$2,$3*
1,1,$1+$1,$4,$5*
1,1,$1+$1,$6,$7*
1,1,$1+$1,$8,$9*
0 Add four rect primitives between the rounded corners*
20,1,$1+$1,$2,$3,$4,$5,0*
20,1,$1+$1,$4,$5,$6,$7,0*
20,1,$1+$1,$6,$7,$8,$9,0*
20,1,$1+$1,$8,$9,$2,$3,0*%
G04 Aperture macros list end*
G04 #@! TA.AperFunction,ComponentPad*
%ADD10R,1.700000X1.700000*%
G04 #@! TD*
G04 #@! TA.AperFunction,ComponentPad*
%ADD11C,1.700000*%
G04 #@! TD*
G04 #@! TA.AperFunction,ComponentPad*
%ADD12R,1.500000X1.500000*%
G04 #@! TD*
G04 #@! TA.AperFunction,ComponentPad*
%ADD13C,1.500000*%
G04 #@! TD*
G04 #@! TA.AperFunction,ComponentPad*
%ADD14C,1.600000*%
G04 #@! TD*
G04 #@! TA.AperFunction,HeatsinkPad*
%ADD15C,0.600000*%
G04 #@! TD*
G04 #@! TA.AperFunction,ComponentPad*
%ADD16R,1.500000X2.300000*%
G04 #@! TD*
G04 #@! TA.AperFunction,ComponentPad*
%ADD17O,1.500000X2.300000*%
G04 #@! TD*
G04 #@! TA.AperFunction,SMDPad,CuDef*
%ADD18RoundRect,0.250000X-0.262500X-0.450000X0.262500X-0.450000X0.262500X0.450000X-0.262500X0.450000X0*%
G04 #@! TD*
G04 #@! TA.AperFunction,SMDPad,CuDef*
%ADD19RoundRect,0.140000X-0.140000X-0.170000X0.140000X-0.170000X0.140000X0.170000X-0.140000X0.170000X0*%
G04 #@! TD*
G04 #@! TA.AperFunction,SMDPad,CuDef*
%ADD20RoundRect,0.250000X-0.250000X-0.475000X0.250000X-0.475000X0.250000X0.475000X-0.250000X0.475000X0*%
G04 #@! TD*
G04 #@! TA.AperFunction,SMDPad,CuDef*
%ADD21RoundRect,0.225000X-0.225000X-0.250000X0.225000X-0.250000X0.225000X0.250000X-0.225000X0.250000X0*%
G04 #@! TD*
G04 #@! TA.AperFunction,ViaPad*
%ADD22C,0.600000*%
G04 #@! TD*
G04 #@! TA.AperFunction,Conductor*
%ADD23C,0.200000*%
G04 #@! TD*
G04 #@! TA.AperFunction,Conductor*
%ADD24C,0.400000*%
G04 #@! TD*
G04 #@! TA.AperFunction,Conductor*
%ADD25C,0.250000*%
G04 #@! TD*
G04 #@! TA.AperFunction,Conductor*
%ADD26C,0.500000*%
G04 #@! TD*
G04 APERTURE END LIST*
D10*
G04 #@! TO.P,J4,1*
G04 #@! TO.N,USB_DP*
X75000000Y-38000000D03*
D11*
G04 #@! TO.P,J4,2*
G04 #@! TO.N,USB_DM*
X75000000Y-40540000D03*
G04 #@! TO.P,J4,3*
G04 #@! TO.N,GND*
X75000000Y-43080000D03*
G04 #@! TO.P,J4,4*
G04 #@! TO.N,V3V3*
X75000000Y-45620000D03*
G04 #@! TD*
D12*
G04 #@! TO.P,J1,1*
G04 #@! TO.N,V12_CAT5E*
X10000000Y-30000000D03*
D13*
G04 #@! TO.P,J1,3*
X10000000Y-27968000D03*
G04 #@! TO.P,J1,6*
G04 #@! TO.N,GND*
X11780000Y-24920000D03*
G04 #@! TO.P,J1,7*
X10000000Y-23904000D03*
G04 #@! TO.P,J1,8*
X11780000Y-22888000D03*
G04 #@! TD*
D14*
G04 #@! TO.P,F1,1*
G04 #@! TO.N,V12_CAT5E*
X10000000Y-9000000D03*
G04 #@! TO.P,F1,2*
G04 #@! TO.N,V12_PROT*
X20160000Y-9000000D03*
G04 #@! TD*
D11*
G04 #@! TO.P,J3,3*
G04 #@! TO.N,GND*
X75000000Y-19080000D03*
G04 #@! TO.P,J3,4*
G04 #@! TO.N,ESP_EN*
X75000000Y-21620000D03*
G04 #@! TD*
D15*
G04 #@! TO.P,MOD1,41*
G04 #@! TO.N,GND*
X57100000Y-28610000D03*
X57100000Y-30010000D03*
X57800000Y-27910000D03*
X57800000Y-29310000D03*
X57800000Y-30710000D03*
X58500000Y-28610000D03*
X58500000Y-30010000D03*
X59200000Y-27910000D03*
X59200000Y-29310000D03*
X59200000Y-30710000D03*
X59900000Y-28610000D03*
X59900000Y-30010000D03*
G04 #@! TD*
D16*
G04 #@! TO.P,U1,1*
G04 #@! TO.N,V12_PROT*
X15000000Y-50000000D03*
D17*
G04 #@! TO.P,U1,2*
G04 #@! TO.N,GND*
X15000000Y-47460000D03*
G04 #@! TO.P,U1,3*
G04 #@! TO.N,V3V3*
X15000000Y-44920000D03*
G04 #@! TD*
D18*
G04 #@! TO.P,R7,1*
G04 #@! TO.N,V3V3*
X61087500Y-52000000D03*
G04 #@! TO.P,R7,2*
G04 #@! TO.N,BTN3_IN*
X62912500Y-52000000D03*
G04 #@! TD*
D19*
G04 #@! TO.P,C4,1*
G04 #@! TO.N,V3V3*
X61520000Y-44000000D03*
G04 #@! TO.P,C4,2*
G04 #@! TO.N,GND*
X62480000Y-44000000D03*
G04 #@! TD*
D20*
G04 #@! TO.P,C2,1*
G04 #@! TO.N,V3V3*
X53050000Y-44000000D03*
G04 #@! TO.P,C2,2*
G04 #@! TO.N,GND*
X54950000Y-44000000D03*
G04 #@! TD*
D21*
G04 #@! TO.P,C5,1*
G04 #@! TO.N,ESP_EN*
X65225000Y-44000000D03*
G04 #@! TO.P,C5,2*
G04 #@! TO.N,GND*
X66775000Y-44000000D03*
G04 #@! TD*
D18*
G04 #@! TO.P,R3,1*
G04 #@! TO.N,V3V3*
X44087500Y-22000000D03*
G04 #@! TO.P,R3,2*
G04 #@! TO.N,RS485_A*
X45912500Y-22000000D03*
G04 #@! TD*
G04 #@! TO.P,R6,1*
G04 #@! TO.N,V3V3*
X43087500Y-52000000D03*
G04 #@! TO.P,R6,2*
G04 #@! TO.N,BTN2_IN*
X44912500Y-52000000D03*
G04 #@! TD*
D21*
G04 #@! TO.P,C10,1*
G04 #@! TO.N,BTN3_IN*
X65225000Y-52000000D03*
G04 #@! TO.P,C10,2*
G04 #@! TO.N,GND*
X66775000Y-52000000D03*
G04 #@! TD*
G04 #@! TO.P,C6,1*
G04 #@! TO.N,V3V3*
X49225000Y-47000000D03*
G04 #@! TO.P,C6,2*
G04 #@! TO.N,GND*
X50775000Y-47000000D03*
G04 #@! TD*
D18*
G04 #@! TO.P,R2,1*
G04 #@! TO.N,RS485_A*
X44087500Y-18000000D03*
G04 #@! TO.P,R2,2*
G04 #@! TO.N,RS485_B*
X45912500Y-18000000D03*
G04 #@! TD*
D21*
G04 #@! TO.P,C7,1*
G04 #@! TO.N,V3V3*
X53225000Y-47000000D03*
G04 #@! TO.P,C7,2*
G04 #@! TO.N,GND*
X54775000Y-47000000D03*
G04 #@! TD*
D18*
G04 #@! TO.P,R5,1*
G04 #@! TO.N,V3V3*
X25087500Y-52000000D03*
G04 #@! TO.P,R5,2*
G04 #@! TO.N,BTN1_IN*
X26912500Y-52000000D03*
G04 #@! TD*
D20*
G04 #@! TO.P,C3,1*
G04 #@! TO.N,V3V3*
X57050000Y-44000000D03*
G04 #@! TO.P,C3,2*
G04 #@! TO.N,GND*
X58950000Y-44000000D03*
G04 #@! TD*
D18*
G04 #@! TO.P,R1,1*
G04 #@! TO.N,V3V3*
X49087500Y-44000000D03*
G04 #@! TO.P,R1,2*
G04 #@! TO.N,ESP_EN*
X50912500Y-44000000D03*
G04 #@! TD*
D21*
G04 #@! TO.P,C8,1*
G04 #@! TO.N,BTN1_IN*
X29225000Y-52000000D03*
G04 #@! TO.P,C8,2*
G04 #@! TO.N,GND*
X30775000Y-52000000D03*
G04 #@! TD*
G04 #@! TO.P,C9,1*
G04 #@! TO.N,BTN2_IN*
X47225000Y-52000000D03*
G04 #@! TO.P,C9,2*
G04 #@! TO.N,GND*
X48775000Y-52000000D03*
G04 #@! TD*
D18*
G04 #@! TO.P,R4,1*
G04 #@! TO.N,RS485_B*
X44087500Y-26000000D03*
G04 #@! TO.P,R4,2*
G04 #@! TO.N,GND*
X45912500Y-26000000D03*
G04 #@! TD*
D22*
G04 #@! TO.N,USB_DP*
X67467500Y-37482200D03*
G04 #@! TO.N,USB_DM*
X66399500Y-36944800D03*
G04 #@! TO.N,GND*
X15244500Y-39908500D03*
X66005000Y-22273200D03*
X40070400Y-24448400D03*
X24076600Y-13235200D03*
X48719300Y-21652200D03*
X35878000Y-7307800D03*
X43385000Y-60036300D03*
X25571000Y-60654400D03*
X60129000Y-61518100D03*
X69581000Y-60654400D03*
X38372000Y-9604800D03*
X30240000Y-60654400D03*
X51767000Y-60654400D03*
G04 #@! TO.N,V3V3*
X43966300Y-20014100D03*
X42838300Y-25108400D03*
G04 #@! TO.N,RS485_A*
X44943200Y-23099400D03*
G04 #@! TO.N,RS485_B*
X46183400Y-19263100D03*
G04 #@! TO.N,BTN3_IN*
X65868000Y-54727000D03*
G04 #@! TO.N,BTN1_IN*
X27811000Y-54727000D03*
G04 #@! TO.N,BTN2_IN*
X48054000Y-54727000D03*
G04 #@! TO.N,ESP_EN*
X63067000Y-25400900D03*
G04 #@! TO.N,EPD_CS*
X41583400Y-26064400D03*
X40092800Y-8333800D03*
G04 #@! TO.N,EPD_DC*
X40159400Y-27444500D03*
X39563000Y-4344100D03*
G04 #@! TO.N,EPD_RST*
X48079000Y-10245700D03*
X48377000Y-28844600D03*
G04 #@! TO.N,EPD_BUSY*
X54253000Y-33981100D03*
X52099500Y-10271500D03*
G04 #@! TO.N,SPI_SCK*
X51315000Y-8165100D03*
X55411900Y-40743600D03*
G04 #@! TO.N,SPI_MOSI*
X54253000Y-7307800D03*
X56683500Y-40702100D03*
G04 #@! TD*
G04 #@! TO.N,USB_DP*
D23*
X75000000Y-38000000D02*
X73848300Y-38000000D01*
X73330500Y-37482200D02*
X67467500Y-37482200D01*
X73848300Y-38000000D02*
X73330500Y-37482200D01*
G04 #@! TO.N,USB_DM*
X69581400Y-40540000D02*
X75000000Y-40540000D01*
X66399500Y-36944800D02*
X66399500Y-37358100D01*
X66399500Y-37358100D02*
X69581400Y-40540000D01*
G04 #@! TO.N,V3V3*
D24*
X25087500Y-52000000D02*
X25087500Y-50884600D01*
X49087500Y-45567700D02*
X49087500Y-44000000D01*
X61520000Y-51567500D02*
X61520000Y-45620000D01*
X53050000Y-45567700D02*
X49087500Y-45567700D01*
X43762800Y-22324700D02*
X43966300Y-22121200D01*
X61520000Y-45620000D02*
X61520000Y-44000000D01*
X42838300Y-23249200D02*
X43762800Y-22324700D01*
X43966300Y-22121200D02*
X43966300Y-20014100D01*
X53050000Y-45567700D02*
X53050000Y-44000000D01*
X43087500Y-52000000D02*
X48087500Y-47000000D01*
X60366800Y-42846800D02*
X61520000Y-44000000D01*
X54669800Y-45555200D02*
X55494800Y-45555200D01*
X48087500Y-47000000D02*
X49087500Y-47000000D01*
X42838300Y-25108400D02*
X42838300Y-23249200D01*
X55494800Y-45555200D02*
X57050000Y-44000000D01*
X49087500Y-47000000D02*
X49087500Y-45567700D01*
X57050000Y-44000000D02*
X58203200Y-42846800D01*
X44087500Y-22000000D02*
X43762800Y-22324700D01*
X41972100Y-50884600D02*
X43087500Y-52000000D01*
X75000000Y-45620000D02*
X61520000Y-45620000D01*
X53225000Y-47000000D02*
X53050000Y-46825000D01*
X53050000Y-46825000D02*
X53050000Y-45567700D01*
X42838300Y-25108400D02*
X42838300Y-50018400D01*
X25087500Y-50884600D02*
X19122900Y-44920000D01*
X42838300Y-50018400D02*
X41972100Y-50884600D01*
X19122900Y-44920000D02*
X15000000Y-44920000D01*
X53225000Y-47000000D02*
X54669800Y-45555200D01*
X58203200Y-42846800D02*
X60366800Y-42846800D01*
X61087500Y-52000000D02*
X61520000Y-51567500D01*
X25087500Y-50884600D02*
X41972100Y-50884600D01*
X49087500Y-47000000D02*
X49225000Y-47000000D01*
G04 #@! TO.N,RS485_A*
D25*
X45319300Y-22723300D02*
X45319300Y-22000000D01*
X44087500Y-18000000D02*
X45319300Y-19231800D01*
X45319300Y-19231800D02*
X45319300Y-22000000D01*
X44943200Y-23099400D02*
X45319300Y-22723300D01*
X45319300Y-22000000D02*
X45912500Y-22000000D01*
G04 #@! TO.N,RS485_B*
X46812200Y-23275300D02*
X46812200Y-19891900D01*
X44087500Y-26000000D02*
X46812200Y-23275300D01*
X46812200Y-19891900D02*
X46183400Y-19263100D01*
X46183400Y-19263100D02*
X46183400Y-18270900D01*
X46183400Y-18270900D02*
X45912500Y-18000000D01*
G04 #@! TO.N,V12_CAT5E*
D26*
X10000000Y-30000000D02*
X10000000Y-27968000D01*
X5045400Y-23013400D02*
X10000000Y-27968000D01*
X5045400Y-13954600D02*
X5045400Y-23013400D01*
X10000000Y-9000000D02*
X5045400Y-13954600D01*
G04 #@! TO.N,V12_PROT*
X13748300Y-50000000D02*
X13748300Y-15411700D01*
X13748300Y-15411700D02*
X20160000Y-9000000D01*
X15000000Y-50000000D02*
X13748300Y-50000000D01*
G04 #@! TO.N,BTN3_IN*
D23*
X62912500Y-52000000D02*
X65225000Y-52000000D01*
X65868000Y-54727000D02*
X65225000Y-54084000D01*
X65225000Y-54084000D02*
X65225000Y-52000000D01*
G04 #@! TO.N,BTN1_IN*
X27811000Y-52000000D02*
X26912500Y-52000000D01*
X29225000Y-52000000D02*
X27811000Y-52000000D01*
X27811000Y-52000000D02*
X27811000Y-54727000D01*
G04 #@! TO.N,BTN2_IN*
X47225000Y-53898000D02*
X48054000Y-54727000D01*
X47225000Y-52000000D02*
X47225000Y-53898000D01*
X44912500Y-52000000D02*
X47225000Y-52000000D01*
G04 #@! TO.N,ESP_EN*
X50912500Y-44000000D02*
X53303200Y-41609300D01*
X65225000Y-44000000D02*
X65225000Y-27558900D01*
X56632800Y-41609300D02*
X63067000Y-35175100D01*
X69061100Y-27558900D02*
X65225000Y-27558900D01*
X65225000Y-27558900D02*
X63067000Y-25400900D01*
X75000000Y-21620000D02*
X69061100Y-27558900D01*
X63067000Y-35175100D02*
X63067000Y-25400900D01*
X53303200Y-41609300D02*
X56632800Y-41609300D01*
G04 #@! TO.N,EPD_CS*
X41583400Y-9824400D02*
X40092800Y-8333800D01*
X41583400Y-26064400D02*
X41583400Y-9824400D01*
G04 #@! TO.N,EPD_DC*
X40159400Y-27444500D02*
X40727500Y-26876400D01*
X39491000Y-9004600D02*
X39491000Y-4416100D01*
X40727500Y-26876400D02*
X40727500Y-10241100D01*
X40727500Y-10241100D02*
X39491000Y-9004600D01*
X39491000Y-4416100D02*
X39563000Y-4344100D01*
G04 #@! TO.N,EPD_RST*
X48079000Y-28546600D02*
X48377000Y-28844600D01*
X48079000Y-10245700D02*
X48079000Y-28546600D01*
G04 #@! TO.N,EPD_BUSY*
X52099500Y-31827600D02*
X54253000Y-33981100D01*
X52099500Y-10271500D02*
X52099500Y-31827600D01*
G04 #@! TO.N,SPI_SCK*
X55411900Y-40743600D02*
X51315000Y-36646700D01*
X51315000Y-36646700D02*
X51315000Y-8165100D01*
G04 #@! TO.N,SPI_MOSI*
X56013700Y-9068500D02*
X56013700Y-40032300D01*
X56013700Y-40032300D02*
X56683500Y-40702100D01*
X54253000Y-7307800D02*
X56013700Y-9068500D01*
G04 #@! TD*
G04 #@! TA.AperFunction,Conductor*
G04 #@! TO.N,GND*
G36*
X63622703Y-26452731D02*
G01*
X63629181Y-26458763D01*
X64838181Y-27667763D01*
X64871666Y-27729086D01*
X64874500Y-27755444D01*
X64874500Y-43203216D01*
X64854815Y-43270255D01*
X64802011Y-43316010D01*
X64793835Y-43319397D01*
X64769776Y-43328370D01*
X64769773Y-43328372D01*
X64660313Y-43410313D01*
X64578373Y-43519771D01*
X64530587Y-43647889D01*
X64524500Y-43704498D01*
X64524500Y-44295481D01*
X64524501Y-44295490D01*
X64530587Y-44352114D01*
X64574371Y-44469500D01*
X64578372Y-44480226D01*
X64660313Y-44589687D01*
X64769774Y-44671628D01*
X64897886Y-44719412D01*
X64954515Y-44725500D01*
X65495484Y-44725499D01*
X65552114Y-44719412D01*
X65680226Y-44671628D01*
X65761804Y-44610559D01*
X65827264Y-44586143D01*
X65895538Y-44600994D01*
X65941650Y-44644730D01*
X65977424Y-44702728D01*
X65977427Y-44702732D01*
X66097267Y-44822572D01*
X66097271Y-44822575D01*
X66241507Y-44911542D01*
X66241518Y-44911547D01*
X66290548Y-44927794D01*
X66347993Y-44967566D01*
X66374816Y-45032082D01*
X66362501Y-45100858D01*
X66314958Y-45152058D01*
X66251544Y-45169500D01*
X62094500Y-45169500D01*
X62027461Y-45149815D01*
X61981706Y-45097011D01*
X61970500Y-45045500D01*
X61970500Y-44894265D01*
X61990185Y-44827226D01*
X62042989Y-44781471D01*
X62112147Y-44771527D01*
X62129095Y-44775189D01*
X62230000Y-44804504D01*
X62230000Y-44804503D01*
X62730000Y-44804503D01*
X62876195Y-44762031D01*
X63015374Y-44679721D01*
X63015383Y-44679714D01*
X63129714Y-44565383D01*
X63129721Y-44565374D01*
X63212031Y-44426195D01*
X63212033Y-44426190D01*
X63257144Y-44270918D01*
X63257145Y-44270912D01*
X63258790Y-44250000D01*
X62730000Y-44250000D01*
X62730000Y-44804503D01*
X62230000Y-44804503D01*
X62230000Y-43195494D01*
X62730000Y-43195494D01*
X62730000Y-43750000D01*
X63258790Y-43750000D01*
X63257145Y-43729089D01*
X63212031Y-43573804D01*
X63129721Y-43434625D01*
X63129714Y-43434616D01*
X63015383Y-43320285D01*
X63015374Y-43320278D01*
X62876193Y-43237967D01*
X62876190Y-43237965D01*
X62730001Y-43195493D01*
X62730000Y-43195494D01*
X62230000Y-43195494D01*
X62229998Y-43195493D01*
X62083809Y-43237965D01*
X62083806Y-43237967D01*
X61944625Y-43320278D01*
X61944616Y-43320285D01*
X61851665Y-43413237D01*
X61850813Y-43413701D01*
X61850335Y-43414548D01*
X61820207Y-43430414D01*
X61790342Y-43446722D01*
X61789089Y-43446802D01*
X61788514Y-43447105D01*
X61782316Y-43447235D01*
X61753276Y-43449093D01*
X61748914Y-43448715D01*
X61690735Y-43439500D01*
X61642599Y-43439500D01*
X61637257Y-43439037D01*
X61609500Y-43428205D01*
X61580926Y-43419815D01*
X61574284Y-43414462D01*
X61572168Y-43413637D01*
X61570632Y-43411520D01*
X61560284Y-43403181D01*
X60643416Y-42486313D01*
X60643414Y-42486311D01*
X60592050Y-42456656D01*
X60540688Y-42427001D01*
X60528580Y-42423757D01*
X60516473Y-42420513D01*
X60516470Y-42420512D01*
X60478278Y-42410278D01*
X60426109Y-42396300D01*
X58143891Y-42396300D01*
X58053525Y-42420513D01*
X58053524Y-42420512D01*
X58029316Y-42426999D01*
X58029313Y-42427000D01*
X57926586Y-42486311D01*
X57926583Y-42486313D01*
X57424715Y-42988181D01*
X57363392Y-43021666D01*
X57337034Y-43024500D01*
X56752129Y-43024500D01*
X56752123Y-43024501D01*
X56692516Y-43030908D01*
X56557671Y-43081202D01*
X56557664Y-43081206D01*
X56442455Y-43167452D01*
X56442452Y-43167455D01*
X56356206Y-43282664D01*
X56356202Y-43282671D01*
X56305908Y-43417517D01*
X56299501Y-43477116D01*
X56299500Y-43477135D01*
X56299500Y-44062033D01*
X56290855Y-44091473D01*
X56284332Y-44121460D01*
X56280577Y-44126475D01*
X56279815Y-44129072D01*
X56263181Y-44149715D01*
X56144128Y-44268767D01*
X56082805Y-44302251D01*
X56013113Y-44297267D01*
X55968765Y-44268765D01*
X55950000Y-44250000D01*
X55074000Y-44250000D01*
X55006961Y-44230315D01*
X54961206Y-44177511D01*
X54950000Y-44126000D01*
X54950000Y-44000000D01*
X54824000Y-44000000D01*
X54756961Y-43980315D01*
X54711206Y-43927511D01*
X54700000Y-43876000D01*
X54700000Y-43750000D01*
X55200000Y-43750000D01*
X55949999Y-43750000D01*
X55949999Y-43475028D01*
X55949998Y-43475013D01*
X55939505Y-43372302D01*
X55884358Y-43205880D01*
X55884356Y-43205875D01*
X55792315Y-43056654D01*
X55668345Y-42932684D01*
X55519124Y-42840643D01*
X55519119Y-42840641D01*
X55352697Y-42785494D01*
X55352690Y-42785493D01*
X55249986Y-42775000D01*
X55200000Y-42775000D01*
X55200000Y-43750000D01*
X54700000Y-43750000D01*
X54700000Y-42775000D01*
X54699999Y-42774999D01*
X54650029Y-42775000D01*
X54650011Y-42775001D01*
X54547302Y-42785494D01*
X54380880Y-42840641D01*
X54380875Y-42840643D01*
X54231654Y-42932684D01*
X54107684Y-43056654D01*
X54015643Y-43205875D01*
X54015642Y-43205878D01*
X53985069Y-43298141D01*
X53945296Y-43355585D01*
X53880780Y-43382408D01*
X53812004Y-43370093D01*
X53760804Y-43322549D01*
X53751181Y-43302468D01*
X53743798Y-43282673D01*
X53743793Y-43282664D01*
X53657547Y-43167455D01*
X53657544Y-43167452D01*
X53542335Y-43081206D01*
X53542328Y-43081202D01*
X53407486Y-43030910D01*
X53407485Y-43030909D01*
X53407483Y-43030909D01*
X53347873Y-43024500D01*
X53347863Y-43024500D01*
X52752129Y-43024500D01*
X52752123Y-43024501D01*
X52688774Y-43031311D01*
X52620015Y-43018904D01*
X52568878Y-42971293D01*
X52551600Y-42903593D01*
X52573666Y-42837299D01*
X52587834Y-42820346D01*
X53412062Y-41996119D01*
X53473385Y-41962634D01*
X53499743Y-41959800D01*
X56678942Y-41959800D01*
X56678944Y-41959800D01*
X56768088Y-41935914D01*
X56848012Y-41889770D01*
X63347470Y-35390312D01*
X63393614Y-35310388D01*
X63417500Y-35221244D01*
X63417500Y-26546444D01*
X63437185Y-26479405D01*
X63489989Y-26433650D01*
X63559147Y-26423706D01*
X63622703Y-26452731D01*
G37*
G04 #@! TD.AperFunction*
G04 #@! TA.AperFunction,Conductor*
G36*
X12823678Y-23578126D02*
G01*
X12823678Y-23578125D01*
X12849095Y-23543143D01*
X12938418Y-23367835D01*
X12999221Y-23180705D01*
X13001327Y-23167413D01*
X13031256Y-23104279D01*
X13090567Y-23067347D01*
X13160430Y-23068345D01*
X13218663Y-23106955D01*
X13246777Y-23170918D01*
X13247800Y-23186811D01*
X13247800Y-24621188D01*
X13228115Y-24688227D01*
X13175311Y-24733982D01*
X13106153Y-24743926D01*
X13042597Y-24714901D01*
X13004823Y-24656123D01*
X13001327Y-24640587D01*
X12999221Y-24627293D01*
X12938418Y-24440164D01*
X12849096Y-24264858D01*
X12823678Y-24229873D01*
X12823677Y-24229873D01*
X12218055Y-24835496D01*
X12194674Y-24748236D01*
X12136089Y-24646764D01*
X12053236Y-24563911D01*
X11951764Y-24505326D01*
X11864501Y-24481944D01*
X12442446Y-23904000D01*
X11864501Y-23326055D01*
X11951764Y-23302674D01*
X12053236Y-23244089D01*
X12136089Y-23161236D01*
X12194674Y-23059764D01*
X12218055Y-22972503D01*
X12823678Y-23578126D01*
G37*
G04 #@! TD.AperFunction*
G04 #@! TA.AperFunction,Conductor*
G36*
X84442539Y-520185D02*
G01*
X84488294Y-572989D01*
X84499500Y-624500D01*
X84499500Y-64375500D01*
X84479815Y-64442539D01*
X84427011Y-64488294D01*
X84375500Y-64499500D01*
X624500Y-64499500D01*
X557461Y-64479815D01*
X511706Y-64427011D01*
X500500Y-64375500D01*
X500500Y-60878711D01*
X2149500Y-60878711D01*
X2149500Y-61121288D01*
X2181161Y-61361785D01*
X2243947Y-61596104D01*
X2336773Y-61820205D01*
X2336776Y-61820212D01*
X2458064Y-62030289D01*
X2458066Y-62030292D01*
X2458067Y-62030293D01*
X2605733Y-62222736D01*
X2605739Y-62222743D01*
X2777256Y-62394260D01*
X2777262Y-62394265D01*
X2969711Y-62541936D01*
X3179788Y-62663224D01*
X3403900Y-62756054D01*
X3638211Y-62818838D01*
X3818586Y-62842584D01*
X3878711Y-62850500D01*
X3878712Y-62850500D01*
X4121289Y-62850500D01*
X4169388Y-62844167D01*
X4361789Y-62818838D01*
X4596100Y-62756054D01*
X4820212Y-62663224D01*
X5030289Y-62541936D01*
X5222738Y-62394265D01*
X5394265Y-62222738D01*
X5541936Y-62030289D01*
X5663224Y-61820212D01*
X5756054Y-61596100D01*
X5818838Y-61361789D01*
X5850500Y-61121288D01*
X5850500Y-60878712D01*
X5850500Y-60878711D01*
X79149500Y-60878711D01*
X79149500Y-61121288D01*
X79181161Y-61361785D01*
X79243947Y-61596104D01*
X79336773Y-61820205D01*
X79336776Y-61820212D01*
X79458064Y-62030289D01*
X79458066Y-62030292D01*
X79458067Y-62030293D01*
X79605733Y-62222736D01*
X79605739Y-62222743D01*
X79777256Y-62394260D01*
X79777262Y-62394265D01*
X79969711Y-62541936D01*
X80179788Y-62663224D01*
X80403900Y-62756054D01*
X80638211Y-62818838D01*
X80818586Y-62842584D01*
X80878711Y-62850500D01*
X80878712Y-62850500D01*
X81121289Y-62850500D01*
X81169388Y-62844167D01*
X81361789Y-62818838D01*
X81596100Y-62756054D01*
X81820212Y-62663224D01*
X82030289Y-62541936D01*
X82222738Y-62394265D01*
X82394265Y-62222738D01*
X82541936Y-62030289D01*
X82663224Y-61820212D01*
X82756054Y-61596100D01*
X82818838Y-61361789D01*
X82850500Y-61121288D01*
X82850500Y-60878712D01*
X82818838Y-60638211D01*
X82756054Y-60403900D01*
X82663224Y-60179788D01*
X82541936Y-59969711D01*
X82394265Y-59777262D01*
X82394260Y-59777256D01*
X82222743Y-59605739D01*
X82222736Y-59605733D01*
X82030293Y-59458067D01*
X82030292Y-59458066D01*
X82030289Y-59458064D01*
X81820212Y-59336776D01*
X81820205Y-59336773D01*
X81596104Y-59243947D01*
X81361785Y-59181161D01*
X81121289Y-59149500D01*
X81121288Y-59149500D01*
X80878712Y-59149500D01*
X80878711Y-59149500D01*
X80638214Y-59181161D01*
X80403895Y-59243947D01*
X80179794Y-59336773D01*
X80179785Y-59336777D01*
X79969706Y-59458067D01*
X79777263Y-59605733D01*
X79777256Y-59605739D01*
X79605739Y-59777256D01*
X79605733Y-59777263D01*
X79458067Y-59969706D01*
X79336777Y-60179785D01*
X79336773Y-60179794D01*
X79243947Y-60403895D01*
X79181161Y-60638214D01*
X79149500Y-60878711D01*
X5850500Y-60878711D01*
X5818838Y-60638211D01*
X5756054Y-60403900D01*
X5663224Y-60179788D01*
X5541936Y-59969711D01*
X5394265Y-59777262D01*
X5394260Y-59777256D01*
X5222743Y-59605739D01*
X5222736Y-59605733D01*
X5030293Y-59458067D01*
X5030292Y-59458066D01*
X5030289Y-59458064D01*
X4820212Y-59336776D01*
X4820205Y-59336773D01*
X4596104Y-59243947D01*
X4361785Y-59181161D01*
X4121289Y-59149500D01*
X4121288Y-59149500D01*
X3878712Y-59149500D01*
X3878711Y-59149500D01*
X3638214Y-59181161D01*
X3403895Y-59243947D01*
X3179794Y-59336773D01*
X3179785Y-59336777D01*
X2969706Y-59458067D01*
X2777263Y-59605733D01*
X2777256Y-59605739D01*
X2605739Y-59777256D01*
X2605733Y-59777263D01*
X2458067Y-59969706D01*
X2336777Y-60179785D01*
X2336773Y-60179794D01*
X2243947Y-60403895D01*
X2181161Y-60638214D01*
X2149500Y-60878711D01*
X500500Y-60878711D01*
X500500Y-34671990D01*
X9854499Y-34671990D01*
X9894292Y-34872038D01*
X9894295Y-34872048D01*
X9972348Y-35060486D01*
X9972355Y-35060499D01*
X10085674Y-35230092D01*
X10085677Y-35230096D01*
X10229903Y-35374322D01*
X10229907Y-35374325D01*
X10399500Y-35487644D01*
X10399513Y-35487651D01*
X10587951Y-35565704D01*
X10587956Y-35565706D01*
X10587960Y-35565706D01*
X10587961Y-35565707D01*
X10788009Y-35605500D01*
X10788012Y-35605500D01*
X10991990Y-35605500D01*
X11126579Y-35578727D01*
X11192044Y-35565706D01*
X11380493Y-35487648D01*
X11550093Y-35374325D01*
X11694325Y-35230093D01*
X11807648Y-35060493D01*
X11885706Y-34872044D01*
X11925500Y-34671988D01*
X11925500Y-34468012D01*
X11925500Y-34468009D01*
X11885707Y-34267961D01*
X11885706Y-34267960D01*
X11885706Y-34267956D01*
X11854901Y-34193585D01*
X11807651Y-34079513D01*
X11807644Y-34079500D01*
X11694325Y-33909907D01*
X11694322Y-33909903D01*
X11550096Y-33765677D01*
X11550092Y-33765674D01*
X11380499Y-33652355D01*
X11380486Y-33652348D01*
X11192048Y-33574295D01*
X11192038Y-33574292D01*
X10991990Y-33534500D01*
X10991988Y-33534500D01*
X10788012Y-33534500D01*
X10788010Y-33534500D01*
X10587961Y-33574292D01*
X10587951Y-33574295D01*
X10399513Y-33652348D01*
X10399500Y-33652355D01*
X10229907Y-33765674D01*
X10229903Y-33765677D01*
X10085677Y-33909903D01*
X10085674Y-33909907D01*
X9972355Y-34079500D01*
X9972348Y-34079513D01*
X9894295Y-34267951D01*
X9894292Y-34267961D01*
X9854500Y-34468009D01*
X9854500Y-34468012D01*
X9854500Y-34671988D01*
X9854500Y-34671990D01*
X9854499Y-34671990D01*
X500500Y-34671990D01*
X500500Y-32667065D01*
X5584500Y-32667065D01*
X5584500Y-32912934D01*
X5611227Y-33115939D01*
X5616591Y-33156677D01*
X5616592Y-33156679D01*
X5680222Y-33394152D01*
X5680225Y-33394162D01*
X5740879Y-33540593D01*
X5774306Y-33621292D01*
X5897233Y-33834208D01*
X5897235Y-33834211D01*
X5897236Y-33834212D01*
X6046897Y-34029254D01*
X6046903Y-34029261D01*
X6220738Y-34203096D01*
X6220744Y-34203101D01*
X6415792Y-34352767D01*
X6628708Y-34475694D01*
X6855847Y-34569778D01*
X7093323Y-34633409D01*
X7337073Y-34665500D01*
X7337080Y-34665500D01*
X7582920Y-34665500D01*
X7582927Y-34665500D01*
X7826677Y-34633409D01*
X8064153Y-34569778D01*
X8291292Y-34475694D01*
X8504208Y-34352767D01*
X8699256Y-34203101D01*
X8873101Y-34029256D01*
X9022767Y-33834208D01*
X9145694Y-33621292D01*
X9239778Y-33394153D01*
X9303409Y-33156677D01*
X9335500Y-32912927D01*
X9335500Y-32667073D01*
X9303409Y-32423323D01*
X9239778Y-32185847D01*
X9145694Y-31958708D01*
X9022767Y-31745792D01*
X8873101Y-31550744D01*
X8873096Y-31550738D01*
X8699261Y-31376903D01*
X8699254Y-31376897D01*
X8504212Y-31227236D01*
X8504211Y-31227235D01*
X8504208Y-31227233D01*
X8291292Y-31104306D01*
X8291285Y-31104303D01*
X8064162Y-31010225D01*
X8064155Y-31010223D01*
X8064153Y-31010222D01*
X7826677Y-30946591D01*
X7785939Y-30941227D01*
X7582934Y-30914500D01*
X7582927Y-30914500D01*
X7337073Y-30914500D01*
X7337065Y-30914500D01*
X7105059Y-30945045D01*
X7093323Y-30946591D01*
X6946369Y-30985967D01*
X6855847Y-31010222D01*
X6855837Y-31010225D01*
X6628714Y-31104303D01*
X6628705Y-31104307D01*
X6415787Y-31227236D01*
X6220745Y-31376897D01*
X6220738Y-31376903D01*
X6046903Y-31550738D01*
X6046897Y-31550745D01*
X5897236Y-31745787D01*
X5774307Y-31958705D01*
X5774303Y-31958714D01*
X5680225Y-32185837D01*
X5680222Y-32185847D01*
X5616592Y-32423320D01*
X5616590Y-32423331D01*
X5584500Y-32667065D01*
X500500Y-32667065D01*
X500500Y-13888708D01*
X4544900Y-13888708D01*
X4544900Y-23079291D01*
X4579008Y-23206587D01*
X4583215Y-23213873D01*
X4644900Y-23320714D01*
X4644902Y-23320716D01*
X8984844Y-27660658D01*
X9018329Y-27721981D01*
X9018780Y-27772531D01*
X8999500Y-27869456D01*
X8999500Y-27869458D01*
X8999500Y-27869459D01*
X8999500Y-28066541D01*
X8999500Y-28066543D01*
X8999499Y-28066543D01*
X9037947Y-28259829D01*
X9037950Y-28259839D01*
X9113364Y-28441907D01*
X9113371Y-28441920D01*
X9222860Y-28605781D01*
X9222863Y-28605785D01*
X9362213Y-28745135D01*
X9362216Y-28745137D01*
X9362218Y-28745139D01*
X9403015Y-28772398D01*
X9447820Y-28826009D01*
X9456527Y-28895334D01*
X9426373Y-28958362D01*
X9366930Y-28995082D01*
X9334124Y-28999500D01*
X9225323Y-28999500D01*
X9152264Y-29014032D01*
X9152260Y-29014033D01*
X9069399Y-29069399D01*
X9014033Y-29152260D01*
X9014032Y-29152264D01*
X8999500Y-29225321D01*
X8999500Y-30774678D01*
X9014032Y-30847735D01*
X9014033Y-30847739D01*
X9014034Y-30847740D01*
X9069399Y-30930601D01*
X9152260Y-30985966D01*
X9152264Y-30985967D01*
X9225321Y-31000499D01*
X9225324Y-31000500D01*
X9225326Y-31000500D01*
X10774676Y-31000500D01*
X10774677Y-31000499D01*
X10847740Y-30985966D01*
X10930601Y-30930601D01*
X10985966Y-30847740D01*
X11000500Y-30774674D01*
X11000500Y-29478036D01*
X11020185Y-29410997D01*
X11072989Y-29365242D01*
X11142147Y-29355298D01*
X11205703Y-29384323D01*
X11227602Y-29409145D01*
X11239769Y-29427354D01*
X11239772Y-29427358D01*
X11336641Y-29524227D01*
X11336645Y-29524230D01*
X11450550Y-29600340D01*
X11450563Y-29600347D01*
X11577125Y-29652770D01*
X11577130Y-29652772D01*
X11577134Y-29652772D01*
X11577135Y-29652773D01*
X11711496Y-29679500D01*
X11711499Y-29679500D01*
X11848503Y-29679500D01*
X11938898Y-29661518D01*
X11982870Y-29652772D01*
X12109443Y-29600344D01*
X12223355Y-29524230D01*
X12320230Y-29427355D01*
X12396344Y-29313443D01*
X12448772Y-29186870D01*
X12472139Y-29069399D01*
X12475500Y-29052503D01*
X12475500Y-28915496D01*
X12448773Y-28781135D01*
X12448772Y-28781134D01*
X12448772Y-28781130D01*
X12433864Y-28745139D01*
X12396345Y-28654559D01*
X12396340Y-28654550D01*
X12320230Y-28540645D01*
X12320227Y-28540641D01*
X12223358Y-28443772D01*
X12223354Y-28443769D01*
X12109449Y-28367659D01*
X12109436Y-28367652D01*
X11982874Y-28315229D01*
X11982864Y-28315226D01*
X11848503Y-28288500D01*
X11848501Y-28288500D01*
X11711499Y-28288500D01*
X11711497Y-28288500D01*
X11577135Y-28315226D01*
X11577125Y-28315229D01*
X11450563Y-28367652D01*
X11450550Y-28367659D01*
X11336645Y-28443769D01*
X11336641Y-28443772D01*
X11239772Y-28540641D01*
X11239769Y-28540645D01*
X11163659Y-28654550D01*
X11163655Y-28654559D01*
X11111229Y-28781125D01*
X11111226Y-28781135D01*
X11084500Y-28915496D01*
X11084500Y-28940244D01*
X11064815Y-29007283D01*
X11012011Y-29053038D01*
X10942853Y-29062982D01*
X10891611Y-29043347D01*
X10847740Y-29014034D01*
X10847739Y-29014033D01*
X10847735Y-29014032D01*
X10774677Y-28999500D01*
X10774674Y-28999500D01*
X10665876Y-28999500D01*
X10598837Y-28979815D01*
X10553082Y-28927011D01*
X10543138Y-28857853D01*
X10572163Y-28794297D01*
X10596982Y-28772400D01*
X10637782Y-28745139D01*
X10777139Y-28605782D01*
X10886632Y-28441914D01*
X10962051Y-28259835D01*
X11000500Y-28066541D01*
X11000500Y-27869459D01*
X11000500Y-27869458D01*
X11000500Y-27869456D01*
X10962052Y-27676170D01*
X10962051Y-27676169D01*
X10962051Y-27676165D01*
X10954108Y-27656988D01*
X10886635Y-27494092D01*
X10886628Y-27494079D01*
X10777139Y-27330218D01*
X10777136Y-27330214D01*
X10637785Y-27190863D01*
X10637781Y-27190860D01*
X10473920Y-27081371D01*
X10473907Y-27081364D01*
X10291839Y-27005950D01*
X10291829Y-27005947D01*
X10257023Y-26999024D01*
X10098543Y-26967500D01*
X10098541Y-26967500D01*
X9901459Y-26967500D01*
X9901457Y-26967500D01*
X9804531Y-26986780D01*
X9734939Y-26980553D01*
X9692658Y-26952844D01*
X6545431Y-23805617D01*
X8750000Y-23805617D01*
X8750000Y-24002382D01*
X8780778Y-24196705D01*
X8841581Y-24383835D01*
X8930905Y-24559145D01*
X8956319Y-24594125D01*
X8956320Y-24594125D01*
X9561944Y-23988501D01*
X9585326Y-24075764D01*
X9643911Y-24177236D01*
X9726764Y-24260089D01*
X9828236Y-24318674D01*
X9915496Y-24342055D01*
X9309873Y-24947677D01*
X9309873Y-24947678D01*
X9344858Y-24973096D01*
X9520164Y-25062418D01*
X9637236Y-25100458D01*
X9694912Y-25139896D01*
X9722110Y-25204254D01*
X9710195Y-25273101D01*
X9667809Y-25321491D01*
X9556645Y-25395769D01*
X9556641Y-25395772D01*
X9459772Y-25492641D01*
X9459769Y-25492645D01*
X9383659Y-25606550D01*
X9383652Y-25606563D01*
X9331229Y-25733125D01*
X9331226Y-25733135D01*
X9304500Y-25867496D01*
X9304500Y-25867499D01*
X9304500Y-26004501D01*
X9304500Y-26004503D01*
X9304499Y-26004503D01*
X9331226Y-26138864D01*
X9331229Y-26138874D01*
X9383652Y-26265436D01*
X9383659Y-26265449D01*
X9439383Y-26348845D01*
X9439385Y-26348847D01*
X9459770Y-26379355D01*
X9556645Y-26476230D01*
X9587152Y-26496614D01*
X9587153Y-26496615D01*
X9599561Y-26504906D01*
X9670557Y-26552344D01*
X9670559Y-26552345D01*
X9670563Y-26552347D01*
X9792120Y-26602697D01*
X9797130Y-26604772D01*
X9797134Y-26604772D01*
X9797135Y-26604773D01*
X9931496Y-26631500D01*
X9931499Y-26631500D01*
X10068503Y-26631500D01*
X10158898Y-26613518D01*
X10202870Y-26604772D01*
X10329443Y-26552344D01*
X10443355Y-26476230D01*
X10540230Y-26379355D01*
X10616344Y-26265443D01*
X10668772Y-26138870D01*
X10685065Y-26056961D01*
X10695500Y-26004503D01*
X10695500Y-25867496D01*
X10672502Y-25751880D01*
X10678729Y-25682288D01*
X10706438Y-25640007D01*
X11341944Y-25004501D01*
X11365326Y-25091764D01*
X11423911Y-25193236D01*
X11506764Y-25276089D01*
X11608236Y-25334674D01*
X11695497Y-25358055D01*
X11089873Y-25963677D01*
X11089873Y-25963678D01*
X11124858Y-25989096D01*
X11300164Y-26078418D01*
X11417236Y-26116458D01*
X11474912Y-26155896D01*
X11502110Y-26220254D01*
X11490195Y-26289101D01*
X11447809Y-26337491D01*
X11336645Y-26411769D01*
X11336641Y-26411772D01*
X11239772Y-26508641D01*
X11239769Y-26508645D01*
X11163659Y-26622550D01*
X11163652Y-26622563D01*
X11111229Y-26749125D01*
X11111226Y-26749135D01*
X11084500Y-26883496D01*
X11084500Y-26883499D01*
X11084500Y-27020501D01*
X11084500Y-27020503D01*
X11084499Y-27020503D01*
X11111226Y-27154864D01*
X11111229Y-27154874D01*
X11163652Y-27281436D01*
X11163659Y-27281449D01*
X11239769Y-27395354D01*
X11239772Y-27395358D01*
X11336641Y-27492227D01*
X11336645Y-27492230D01*
X11450550Y-27568340D01*
X11450563Y-27568347D01*
X11577125Y-27620770D01*
X11577130Y-27620772D01*
X11577134Y-27620772D01*
X11577135Y-27620773D01*
X11711496Y-27647500D01*
X11711499Y-27647500D01*
X11848503Y-27647500D01*
X11938898Y-27629518D01*
X11982870Y-27620772D01*
X12109443Y-27568344D01*
X12223355Y-27492230D01*
X12320230Y-27395355D01*
X12396344Y-27281443D01*
X12448772Y-27154870D01*
X12458396Y-27106488D01*
X12475500Y-27020503D01*
X12475500Y-26883496D01*
X12448773Y-26749135D01*
X12448772Y-26749134D01*
X12448772Y-26749130D01*
X12441353Y-26731218D01*
X12396347Y-26622563D01*
X12396340Y-26622550D01*
X12320230Y-26508645D01*
X12320227Y-26508641D01*
X12223358Y-26411772D01*
X12223354Y-26411769D01*
X12112190Y-26337491D01*
X12067385Y-26283879D01*
X12058678Y-26214554D01*
X12088833Y-26151526D01*
X12142763Y-26116458D01*
X12259835Y-26078418D01*
X12435143Y-25989095D01*
X12470125Y-25963678D01*
X12470126Y-25963678D01*
X11864503Y-25358055D01*
X11951764Y-25334674D01*
X12053236Y-25276089D01*
X12136089Y-25193236D01*
X12194674Y-25091764D01*
X12218055Y-25004503D01*
X12823678Y-25610126D01*
X12823678Y-25610125D01*
X12849095Y-25575143D01*
X12938418Y-25399835D01*
X12999221Y-25212705D01*
X13001327Y-25199413D01*
X13031256Y-25136279D01*
X13090567Y-25099347D01*
X13160430Y-25100345D01*
X13218663Y-25138955D01*
X13246777Y-25202918D01*
X13247800Y-25218811D01*
X13247800Y-49934108D01*
X13247800Y-50065892D01*
X13264854Y-50129539D01*
X13281908Y-50193187D01*
X13314854Y-50250250D01*
X13347800Y-50307314D01*
X13440986Y-50400500D01*
X13555114Y-50466392D01*
X13682408Y-50500500D01*
X13875500Y-50500500D01*
X13942539Y-50520185D01*
X13988294Y-50572989D01*
X13999500Y-50624500D01*
X13999500Y-51174678D01*
X14014032Y-51247735D01*
X14014033Y-51247739D01*
X14031914Y-51274500D01*
X14069399Y-51330601D01*
X14116892Y-51362334D01*
X14152260Y-51385966D01*
X14152264Y-51385967D01*
X14225321Y-51400499D01*
X14225324Y-51400500D01*
X14225326Y-51400500D01*
X15774676Y-51400500D01*
X15774677Y-51400499D01*
X15847740Y-51385966D01*
X15930601Y-51330601D01*
X15985966Y-51247740D01*
X16000500Y-51174674D01*
X16000500Y-48825326D01*
X16000500Y-48825323D01*
X16000499Y-48825321D01*
X15985967Y-48752264D01*
X15985966Y-48752263D01*
X15985966Y-48752260D01*
X15985964Y-48752257D01*
X15981293Y-48740979D01*
X15984798Y-48739527D01*
X15970394Y-48693523D01*
X15988879Y-48626143D01*
X15994057Y-48618423D01*
X16069095Y-48515144D01*
X16158418Y-48339835D01*
X16219221Y-48152705D01*
X16250000Y-47958382D01*
X16250000Y-47710000D01*
X15433012Y-47710000D01*
X15465925Y-47652993D01*
X15500000Y-47525826D01*
X15500000Y-47394174D01*
X15465925Y-47267007D01*
X15433012Y-47210000D01*
X16250000Y-47210000D01*
X16250000Y-46961617D01*
X16219221Y-46767294D01*
X16158418Y-46580164D01*
X16069095Y-46404856D01*
X15953444Y-46245678D01*
X15814318Y-46106552D01*
X15811144Y-46103841D01*
X15772953Y-46045333D01*
X15772457Y-45975465D01*
X15788575Y-45940665D01*
X15886632Y-45793914D01*
X15962051Y-45611835D01*
X15990203Y-45470309D01*
X16022588Y-45408398D01*
X16083304Y-45373824D01*
X16111820Y-45370500D01*
X18884935Y-45370500D01*
X18951974Y-45390185D01*
X18972616Y-45406819D01*
X24532568Y-50966771D01*
X24566053Y-51028094D01*
X24561069Y-51097786D01*
X24519198Y-51153717D01*
X24467454Y-51192454D01*
X24467453Y-51192455D01*
X24467452Y-51192456D01*
X24381206Y-51307664D01*
X24381202Y-51307671D01*
X24330908Y-51442517D01*
X24324501Y-51502116D01*
X24324501Y-51502123D01*
X24324500Y-51502135D01*
X24324500Y-52497870D01*
X24324501Y-52497876D01*
X24330908Y-52557483D01*
X24381202Y-52692328D01*
X24381206Y-52692335D01*
X24467452Y-52807544D01*
X24467455Y-52807547D01*
X24582664Y-52893793D01*
X24582671Y-52893797D01*
X24627618Y-52910561D01*
X24717517Y-52944091D01*
X24777127Y-52950500D01*
X25397872Y-52950499D01*
X25457483Y-52944091D01*
X25592331Y-52893796D01*
X25707546Y-52807546D01*
X25793796Y-52692331D01*
X25844091Y-52557483D01*
X25850500Y-52497873D01*
X25850499Y-51502128D01*
X25847298Y-51472353D01*
X25850077Y-51456947D01*
X25847850Y-51441453D01*
X25856154Y-51423269D01*
X25859704Y-51403595D01*
X25870371Y-51392137D01*
X25876875Y-51377897D01*
X25893693Y-51367088D01*
X25907315Y-51352458D01*
X25923270Y-51348080D01*
X25935653Y-51340123D01*
X25970588Y-51335100D01*
X26029412Y-51335100D01*
X26096451Y-51354785D01*
X26142206Y-51407589D01*
X26152701Y-51472356D01*
X26149500Y-51502119D01*
X26149500Y-52497870D01*
X26149501Y-52497876D01*
X26155908Y-52557483D01*
X26206202Y-52692328D01*
X26206206Y-52692335D01*
X26292452Y-52807544D01*
X26292455Y-52807547D01*
X26407664Y-52893793D01*
X26407671Y-52893797D01*
X26452618Y-52910561D01*
X26542517Y-52944091D01*
X26602127Y-52950500D01*
X27222872Y-52950499D01*
X27282483Y-52944091D01*
X27293165Y-52940107D01*
X27362857Y-52935121D01*
X27424180Y-52968606D01*
X27457666Y-53029928D01*
X27460500Y-53056288D01*
X27460500Y-54247614D01*
X27440815Y-54314653D01*
X27424181Y-54335295D01*
X27370493Y-54388982D01*
X27370488Y-54388988D01*
X27298017Y-54514511D01*
X27298016Y-54514515D01*
X27260500Y-54654525D01*
X27260500Y-54799475D01*
X27298016Y-54939485D01*
X27298017Y-54939488D01*
X27370488Y-55065011D01*
X27370490Y-55065013D01*
X27370491Y-55065015D01*
X27472985Y-55167509D01*
X27472986Y-55167510D01*
X27472988Y-55167511D01*
X27598511Y-55239982D01*
X27598512Y-55239982D01*
X27598515Y-55239984D01*
X27738525Y-55277500D01*
X27738528Y-55277500D01*
X27883472Y-55277500D01*
X27883475Y-55277500D01*
X28023485Y-55239984D01*
X28149015Y-55167509D01*
X28251509Y-55065015D01*
X28323984Y-54939485D01*
X28361500Y-54799475D01*
X28361500Y-54654525D01*
X28323984Y-54514515D01*
X28251509Y-54388985D01*
X28197819Y-54335295D01*
X28164334Y-54273972D01*
X28161500Y-54247614D01*
X28161500Y-52474500D01*
X28164050Y-52465814D01*
X28162762Y-52456853D01*
X28173740Y-52432812D01*
X28181185Y-52407461D01*
X28188025Y-52401533D01*
X28191787Y-52393297D01*
X28214021Y-52379007D01*
X28233989Y-52361706D01*
X28244503Y-52359418D01*
X28250565Y-52355523D01*
X28285500Y-52350500D01*
X28443892Y-52350500D01*
X28510931Y-52370185D01*
X28556686Y-52422989D01*
X28560073Y-52431166D01*
X28578371Y-52480225D01*
X28591590Y-52497883D01*
X28660313Y-52589687D01*
X28769774Y-52671628D01*
X28897886Y-52719412D01*
X28954515Y-52725500D01*
X29495484Y-52725499D01*
X29552114Y-52719412D01*
X29680226Y-52671628D01*
X29761804Y-52610559D01*
X29827264Y-52586143D01*
X29895538Y-52600994D01*
X29941650Y-52644730D01*
X29977424Y-52702728D01*
X29977427Y-52702732D01*
X30097267Y-52822572D01*
X30097271Y-52822575D01*
X30241507Y-52911542D01*
X30241518Y-52911547D01*
X30402393Y-52964855D01*
X30501683Y-52974999D01*
X31025000Y-52974999D01*
X31048308Y-52974999D01*
X31048322Y-52974998D01*
X31147607Y-52964855D01*
X31308481Y-52911547D01*
X31308492Y-52911542D01*
X31452728Y-52822575D01*
X31452732Y-52822572D01*
X31572572Y-52702732D01*
X31572575Y-52702728D01*
X31661542Y-52558492D01*
X31661547Y-52558481D01*
X31714855Y-52397606D01*
X31724999Y-52298322D01*
X31725000Y-52298309D01*
X31725000Y-52250000D01*
X31025000Y-52250000D01*
X31025000Y-52974999D01*
X30501683Y-52974999D01*
X30525000Y-52974998D01*
X30525000Y-52124000D01*
X30544685Y-52056961D01*
X30597489Y-52011206D01*
X30649000Y-52000000D01*
X30775000Y-52000000D01*
X30775000Y-51874000D01*
X30794685Y-51806961D01*
X30847489Y-51761206D01*
X30899000Y-51750000D01*
X31724999Y-51750000D01*
X31724999Y-51701692D01*
X31724998Y-51701677D01*
X31714855Y-51602392D01*
X31680298Y-51498104D01*
X31677896Y-51428276D01*
X31713628Y-51368234D01*
X31776148Y-51337041D01*
X31798004Y-51335100D01*
X41734135Y-51335100D01*
X41801174Y-51354785D01*
X41821816Y-51371419D01*
X42288181Y-51837784D01*
X42321666Y-51899107D01*
X42324500Y-51925465D01*
X42324500Y-52497870D01*
X42324501Y-52497876D01*
X42330908Y-52557483D01*
X42381202Y-52692328D01*
X42381206Y-52692335D01*
X42467452Y-52807544D01*
X42467455Y-52807547D01*
X42582664Y-52893793D01*
X42582671Y-52893797D01*
X42627618Y-52910561D01*
X42717517Y-52944091D01*
X42777127Y-52950500D01*
X43397872Y-52950499D01*
X43457483Y-52944091D01*
X43592331Y-52893796D01*
X43707546Y-52807546D01*
X43793796Y-52692331D01*
X43844091Y-52557483D01*
X43850500Y-52497873D01*
X43850499Y-51925464D01*
X43859143Y-51896022D01*
X43865666Y-51866039D01*
X43869420Y-51861024D01*
X43870183Y-51858426D01*
X43886817Y-51837785D01*
X43886818Y-51837784D01*
X43937820Y-51786781D01*
X43999141Y-51753297D01*
X44068832Y-51758281D01*
X44124766Y-51800152D01*
X44149184Y-51865616D01*
X44149500Y-51874463D01*
X44149500Y-52497870D01*
X44149501Y-52497876D01*
X44155908Y-52557483D01*
X44206202Y-52692328D01*
X44206206Y-52692335D01*
X44292452Y-52807544D01*
X44292455Y-52807547D01*
X44407664Y-52893793D01*
X44407671Y-52893797D01*
X44452618Y-52910561D01*
X44542517Y-52944091D01*
X44602127Y-52950500D01*
X45222872Y-52950499D01*
X45282483Y-52944091D01*
X45417331Y-52893796D01*
X45532546Y-52807546D01*
X45618796Y-52692331D01*
X45669091Y-52557483D01*
X45675500Y-52497873D01*
X45675500Y-52474500D01*
X45695185Y-52407461D01*
X45747989Y-52361706D01*
X45799500Y-52350500D01*
X46443892Y-52350500D01*
X46510931Y-52370185D01*
X46556686Y-52422989D01*
X46560073Y-52431166D01*
X46578371Y-52480225D01*
X46591590Y-52497883D01*
X46660313Y-52589687D01*
X46769774Y-52671628D01*
X46793836Y-52680602D01*
X46849767Y-52722473D01*
X46874184Y-52787937D01*
X46874500Y-52796783D01*
X46874500Y-53944143D01*
X46898386Y-54033287D01*
X46898387Y-54033290D01*
X46944527Y-54113208D01*
X46944531Y-54113213D01*
X47467181Y-54635863D01*
X47500666Y-54697186D01*
X47503500Y-54723543D01*
X47503500Y-54799475D01*
X47541016Y-54939485D01*
X47541017Y-54939488D01*
X47613488Y-55065011D01*
X47613490Y-55065013D01*
X47613491Y-55065015D01*
X47715985Y-55167509D01*
X47715986Y-55167510D01*
X47715988Y-55167511D01*
X47841511Y-55239982D01*
X47841512Y-55239982D01*
X47841515Y-55239984D01*
X47981525Y-55277500D01*
X47981528Y-55277500D01*
X48126472Y-55277500D01*
X48126475Y-55277500D01*
X48266485Y-55239984D01*
X48392015Y-55167509D01*
X48494509Y-55065015D01*
X48566984Y-54939485D01*
X48604500Y-54799475D01*
X48604500Y-54654525D01*
X48566984Y-54514515D01*
X48494509Y-54388985D01*
X48392015Y-54286491D01*
X48392013Y-54286490D01*
X48392011Y-54286488D01*
X48266488Y-54214017D01*
X48266489Y-54214017D01*
X48255006Y-54210940D01*
X48126475Y-54176500D01*
X48126472Y-54176500D01*
X48050544Y-54176500D01*
X47983505Y-54156815D01*
X47962863Y-54140181D01*
X47611819Y-53789137D01*
X47578334Y-53727814D01*
X47575500Y-53701456D01*
X47575500Y-52796783D01*
X47595185Y-52729744D01*
X47632916Y-52692176D01*
X47643928Y-52685166D01*
X47680226Y-52671628D01*
X47765581Y-52607731D01*
X47769528Y-52605220D01*
X47798758Y-52596775D01*
X47827264Y-52586143D01*
X47831998Y-52587172D01*
X47836653Y-52585828D01*
X47865808Y-52594527D01*
X47895538Y-52600994D01*
X47899235Y-52604500D01*
X47903606Y-52605805D01*
X47916771Y-52621133D01*
X47941650Y-52644730D01*
X47977424Y-52702728D01*
X47977427Y-52702732D01*
X48097267Y-52822572D01*
X48097271Y-52822575D01*
X48241507Y-52911542D01*
X48241518Y-52911547D01*
X48402393Y-52964855D01*
X48501683Y-52974999D01*
X49025000Y-52974999D01*
X49048308Y-52974999D01*
X49048322Y-52974998D01*
X49147607Y-52964855D01*
X49308481Y-52911547D01*
X49308492Y-52911542D01*
X49452728Y-52822575D01*
X49452732Y-52822572D01*
X49572572Y-52702732D01*
X49572575Y-52702728D01*
X49661542Y-52558492D01*
X49661547Y-52558481D01*
X49714855Y-52397606D01*
X49724999Y-52298322D01*
X49725000Y-52298309D01*
X49725000Y-52250000D01*
X49025000Y-52250000D01*
X49025000Y-52974999D01*
X48501683Y-52974999D01*
X48525000Y-52974998D01*
X48525000Y-51750000D01*
X49025000Y-51750000D01*
X49724999Y-51750000D01*
X49724999Y-51701692D01*
X49724998Y-51701677D01*
X49714855Y-51602392D01*
X49661547Y-51441518D01*
X49661542Y-51441507D01*
X49572575Y-51297271D01*
X49572572Y-51297267D01*
X49452732Y-51177427D01*
X49452728Y-51177424D01*
X49308492Y-51088457D01*
X49308481Y-51088452D01*
X49147606Y-51035144D01*
X49048322Y-51025000D01*
X49025000Y-51025000D01*
X49025000Y-51750000D01*
X48525000Y-51750000D01*
X48525000Y-51024999D01*
X48501693Y-51025000D01*
X48501674Y-51025001D01*
X48402392Y-51035144D01*
X48241518Y-51088452D01*
X48241507Y-51088457D01*
X48097271Y-51177424D01*
X48097267Y-51177427D01*
X47977424Y-51297270D01*
X47941649Y-51355270D01*
X47889701Y-51401993D01*
X47820738Y-51413214D01*
X47761802Y-51389438D01*
X47680230Y-51328374D01*
X47680227Y-51328373D01*
X47680226Y-51328372D01*
X47552114Y-51280588D01*
X47552112Y-51280587D01*
X47552110Y-51280587D01*
X47495493Y-51274500D01*
X46954518Y-51274500D01*
X46954509Y-51274501D01*
X46897885Y-51280587D01*
X46769773Y-51328372D01*
X46660313Y-51410313D01*
X46578371Y-51519774D01*
X46560073Y-51568834D01*
X46518202Y-51624768D01*
X46452737Y-51649184D01*
X46443892Y-51649500D01*
X45799499Y-51649500D01*
X45732460Y-51629815D01*
X45686705Y-51577011D01*
X45675499Y-51525500D01*
X45675499Y-51502129D01*
X45675498Y-51502123D01*
X45675497Y-51502116D01*
X45669091Y-51442517D01*
X45668718Y-51441518D01*
X45618797Y-51307671D01*
X45618793Y-51307664D01*
X45532547Y-51192455D01*
X45532544Y-51192452D01*
X45417335Y-51106206D01*
X45417328Y-51106202D01*
X45282482Y-51055908D01*
X45282483Y-51055908D01*
X45222883Y-51049501D01*
X45222881Y-51049500D01*
X45222873Y-51049500D01*
X45222865Y-51049500D01*
X44974464Y-51049500D01*
X44907425Y-51029815D01*
X44861670Y-50977011D01*
X44851726Y-50907853D01*
X44880751Y-50844297D01*
X44886783Y-50837819D01*
X45646894Y-50077709D01*
X48237785Y-47486819D01*
X48264712Y-47472115D01*
X48290531Y-47455523D01*
X48296731Y-47454631D01*
X48299108Y-47453334D01*
X48325466Y-47450500D01*
X48494050Y-47450500D01*
X48561089Y-47470185D01*
X48593317Y-47500190D01*
X48660311Y-47589685D01*
X48660312Y-47589685D01*
X48660313Y-47589687D01*
X48769774Y-47671628D01*
X48897886Y-47719412D01*
X48954515Y-47725500D01*
X49495484Y-47725499D01*
X49552114Y-47719412D01*
X49680226Y-47671628D01*
X49761804Y-47610559D01*
X49827264Y-47586143D01*
X49895538Y-47600994D01*
X49941650Y-47644730D01*
X49977424Y-47702728D01*
X49977427Y-47702732D01*
X50097267Y-47822572D01*
X50097271Y-47822575D01*
X50241507Y-47911542D01*
X50241518Y-47911547D01*
X50402393Y-47964855D01*
X50501683Y-47974999D01*
X51025000Y-47974999D01*
X51048308Y-47974999D01*
X51048322Y-47974998D01*
X51147607Y-47964855D01*
X51308481Y-47911547D01*
X51308492Y-47911542D01*
X51452728Y-47822575D01*
X51452732Y-47822572D01*
X51572572Y-47702732D01*
X51572575Y-47702728D01*
X51661542Y-47558492D01*
X51661547Y-47558481D01*
X51714855Y-47397606D01*
X51724999Y-47298322D01*
X51725000Y-47298309D01*
X51725000Y-47250000D01*
X51025000Y-47250000D01*
X51025000Y-47974999D01*
X50501683Y-47974999D01*
X50525000Y-47974998D01*
X50525000Y-47124000D01*
X50544685Y-47056961D01*
X50597489Y-47011206D01*
X50649000Y-47000000D01*
X50775000Y-47000000D01*
X50775000Y-46874000D01*
X50794685Y-46806961D01*
X50847489Y-46761206D01*
X50899000Y-46750000D01*
X51724999Y-46750000D01*
X51724999Y-46701692D01*
X51724998Y-46701677D01*
X51714855Y-46602392D01*
X51661547Y-46441518D01*
X51661542Y-46441507D01*
X51572575Y-46297271D01*
X51572572Y-46297267D01*
X51505186Y-46229881D01*
X51471701Y-46168558D01*
X51476685Y-46098866D01*
X51518557Y-46042933D01*
X51584021Y-46018516D01*
X51592867Y-46018200D01*
X52475500Y-46018200D01*
X52542539Y-46037885D01*
X52588294Y-46090689D01*
X52599500Y-46142200D01*
X52599500Y-46450279D01*
X52581551Y-46511404D01*
X52582623Y-46511990D01*
X52579932Y-46516916D01*
X52579815Y-46517318D01*
X52579340Y-46518001D01*
X52578373Y-46519771D01*
X52578372Y-46519774D01*
X52533577Y-46639873D01*
X52530587Y-46647889D01*
X52524500Y-46704498D01*
X52524500Y-47295481D01*
X52524501Y-47295490D01*
X52530587Y-47352114D01*
X52568825Y-47454631D01*
X52578372Y-47480226D01*
X52660313Y-47589687D01*
X52769774Y-47671628D01*
X52897886Y-47719412D01*
X52954515Y-47725500D01*
X53495484Y-47725499D01*
X53552114Y-47719412D01*
X53680226Y-47671628D01*
X53761804Y-47610559D01*
X53827264Y-47586143D01*
X53895538Y-47600994D01*
X53941650Y-47644730D01*
X53977424Y-47702728D01*
X53977427Y-47702732D01*
X54097267Y-47822572D01*
X54097271Y-47822575D01*
X54241507Y-47911542D01*
X54241518Y-47911547D01*
X54402393Y-47964855D01*
X54501683Y-47974999D01*
X55025000Y-47974999D01*
X55048308Y-47974999D01*
X55048322Y-47974998D01*
X55147607Y-47964855D01*
X55308481Y-47911547D01*
X55308492Y-47911542D01*
X55452728Y-47822575D01*
X55452732Y-47822572D01*
X55572572Y-47702732D01*
X55572575Y-47702728D01*
X55661542Y-47558492D01*
X55661547Y-47558481D01*
X55714855Y-47397606D01*
X55724999Y-47298322D01*
X55725000Y-47298309D01*
X55725000Y-47250000D01*
X55025000Y-47250000D01*
X55025000Y-47974999D01*
X54501683Y-47974999D01*
X54525000Y-47974998D01*
X54525000Y-47124000D01*
X54544685Y-47056961D01*
X54597489Y-47011206D01*
X54649000Y-47000000D01*
X54775000Y-47000000D01*
X54775000Y-46874000D01*
X54794685Y-46806961D01*
X54847489Y-46761206D01*
X54899000Y-46750000D01*
X55724999Y-46750000D01*
X55724999Y-46701692D01*
X55724998Y-46701677D01*
X55714855Y-46602392D01*
X55661547Y-46441518D01*
X55661542Y-46441507D01*
X55572575Y-46297271D01*
X55572572Y-46297267D01*
X55490576Y-46215271D01*
X55487663Y-46209937D01*
X55482629Y-46206529D01*
X55471111Y-46179624D01*
X55457091Y-46153948D01*
X55457524Y-46147885D01*
X55455132Y-46142297D01*
X55459987Y-46113442D01*
X55462075Y-46084256D01*
X55465718Y-46079389D01*
X55466727Y-46073396D01*
X55486411Y-46051746D01*
X55503947Y-46028323D01*
X55510686Y-46025049D01*
X55513731Y-46021701D01*
X55527482Y-46016891D01*
X55546177Y-46007811D01*
X55554059Y-46005700D01*
X55554109Y-46005700D01*
X55648197Y-45980489D01*
X55668687Y-45974999D01*
X55771414Y-45915689D01*
X56675285Y-45011816D01*
X56736606Y-44978333D01*
X56762954Y-44975499D01*
X57347872Y-44975499D01*
X57407483Y-44969091D01*
X57542331Y-44918796D01*
X57657546Y-44832546D01*
X57743796Y-44717331D01*
X57751180Y-44697532D01*
X57793050Y-44641598D01*
X57858514Y-44617179D01*
X57926787Y-44632029D01*
X57976194Y-44681433D01*
X57985069Y-44701859D01*
X58015641Y-44794119D01*
X58015643Y-44794124D01*
X58107684Y-44943345D01*
X58231654Y-45067315D01*
X58380875Y-45159356D01*
X58380880Y-45159358D01*
X58547302Y-45214505D01*
X58547309Y-45214506D01*
X58650019Y-45224999D01*
X59200000Y-45224999D01*
X59249972Y-45224999D01*
X59249986Y-45224998D01*
X59352697Y-45214505D01*
X59519119Y-45159358D01*
X59519124Y-45159356D01*
X59668345Y-45067315D01*
X59792315Y-44943345D01*
X59884356Y-44794124D01*
X59884358Y-44794119D01*
X59939505Y-44627697D01*
X59939506Y-44627690D01*
X59949999Y-44524986D01*
X59950000Y-44524973D01*
X59950000Y-44250000D01*
X59200000Y-44250000D01*
X59200000Y-45224999D01*
X58650019Y-45224999D01*
X58699999Y-45224998D01*
X58700000Y-45224998D01*
X58700000Y-44124000D01*
X58719685Y-44056961D01*
X58772489Y-44011206D01*
X58824000Y-44000000D01*
X58950000Y-44000000D01*
X58950000Y-43874000D01*
X58969685Y-43806961D01*
X59022489Y-43761206D01*
X59074000Y-43750000D01*
X59949999Y-43750000D01*
X59949999Y-43475028D01*
X59949997Y-43475008D01*
X59945799Y-43433900D01*
X59948600Y-43418827D01*
X59946419Y-43403653D01*
X59954856Y-43385176D01*
X59958569Y-43365208D01*
X59969074Y-43354043D01*
X59975444Y-43340097D01*
X59992532Y-43329114D01*
X60006451Y-43314324D01*
X60022201Y-43310047D01*
X60034222Y-43302323D01*
X60069157Y-43297300D01*
X60128835Y-43297300D01*
X60195874Y-43316985D01*
X60216516Y-43333619D01*
X60953181Y-44070284D01*
X60986666Y-44131607D01*
X60989500Y-44157962D01*
X60989500Y-44200737D01*
X60989501Y-44200740D01*
X61003981Y-44292170D01*
X61003981Y-44292171D01*
X61003982Y-44292174D01*
X61003983Y-44292175D01*
X61055985Y-44394235D01*
X61069500Y-44450528D01*
X61069500Y-50925500D01*
X61049815Y-50992539D01*
X60997011Y-51038294D01*
X60945501Y-51049500D01*
X60777130Y-51049500D01*
X60777123Y-51049501D01*
X60717516Y-51055908D01*
X60582671Y-51106202D01*
X60582664Y-51106206D01*
X60467455Y-51192452D01*
X60467452Y-51192455D01*
X60381206Y-51307664D01*
X60381202Y-51307671D01*
X60330908Y-51442517D01*
X60324501Y-51502116D01*
X60324501Y-51502123D01*
X60324500Y-51502135D01*
X60324500Y-52497870D01*
X60324501Y-52497876D01*
X60330908Y-52557483D01*
X60381202Y-52692328D01*
X60381206Y-52692335D01*
X60467452Y-52807544D01*
X60467455Y-52807547D01*
X60582664Y-52893793D01*
X60582671Y-52893797D01*
X60627618Y-52910561D01*
X60717517Y-52944091D01*
X60777127Y-52950500D01*
X61397872Y-52950499D01*
X61457483Y-52944091D01*
X61592331Y-52893796D01*
X61707546Y-52807546D01*
X61793796Y-52692331D01*
X61844091Y-52557483D01*
X61850500Y-52497873D01*
X61850499Y-51925288D01*
X61855032Y-51909030D01*
X61854611Y-51893620D01*
X61865531Y-51871377D01*
X61868390Y-51861126D01*
X61875905Y-51848697D01*
X61880489Y-51844114D01*
X61918755Y-51777833D01*
X61919391Y-51776783D01*
X61944272Y-51754002D01*
X61968679Y-51730731D01*
X61969960Y-51730483D01*
X61970924Y-51729602D01*
X62004151Y-51723893D01*
X62037286Y-51717507D01*
X62038499Y-51717992D01*
X62039785Y-51717772D01*
X62070823Y-51730933D01*
X62102151Y-51743475D01*
X62102908Y-51744538D01*
X62104110Y-51745048D01*
X62123113Y-51772911D01*
X62142680Y-51800389D01*
X62142950Y-51801998D01*
X62143478Y-51802772D01*
X62143555Y-51805593D01*
X62149500Y-51840946D01*
X62149500Y-52497870D01*
X62149501Y-52497876D01*
X62155908Y-52557483D01*
X62206202Y-52692328D01*
X62206206Y-52692335D01*
X62292452Y-52807544D01*
X62292455Y-52807547D01*
X62407664Y-52893793D01*
X62407671Y-52893797D01*
X62452618Y-52910561D01*
X62542517Y-52944091D01*
X62602127Y-52950500D01*
X63222872Y-52950499D01*
X63282483Y-52944091D01*
X63417331Y-52893796D01*
X63532546Y-52807546D01*
X63618796Y-52692331D01*
X63669091Y-52557483D01*
X63675500Y-52497873D01*
X63675500Y-52474500D01*
X63695185Y-52407461D01*
X63747989Y-52361706D01*
X63799500Y-52350500D01*
X64443892Y-52350500D01*
X64510931Y-52370185D01*
X64556686Y-52422989D01*
X64560073Y-52431166D01*
X64578371Y-52480225D01*
X64591590Y-52497883D01*
X64660313Y-52589687D01*
X64769774Y-52671628D01*
X64793836Y-52680602D01*
X64849767Y-52722473D01*
X64874184Y-52787937D01*
X64874500Y-52796783D01*
X64874500Y-54130144D01*
X64887449Y-54178470D01*
X64898385Y-54219286D01*
X64944527Y-54299208D01*
X64944531Y-54299213D01*
X65281181Y-54635862D01*
X65314666Y-54697185D01*
X65317500Y-54723543D01*
X65317500Y-54799475D01*
X65355016Y-54939485D01*
X65355017Y-54939488D01*
X65427488Y-55065011D01*
X65427490Y-55065013D01*
X65427491Y-55065015D01*
X65529985Y-55167509D01*
X65529986Y-55167510D01*
X65529988Y-55167511D01*
X65655511Y-55239982D01*
X65655512Y-55239982D01*
X65655515Y-55239984D01*
X65795525Y-55277500D01*
X65795528Y-55277500D01*
X65940472Y-55277500D01*
X65940475Y-55277500D01*
X66080485Y-55239984D01*
X66206015Y-55167509D01*
X66308509Y-55065015D01*
X66380984Y-54939485D01*
X66418500Y-54799475D01*
X66418500Y-54654525D01*
X66380984Y-54514515D01*
X66308509Y-54388985D01*
X66206015Y-54286491D01*
X66206013Y-54286490D01*
X66206011Y-54286488D01*
X66080488Y-54214017D01*
X66080489Y-54214017D01*
X66069006Y-54210940D01*
X65940475Y-54176500D01*
X65940472Y-54176500D01*
X65864543Y-54176500D01*
X65835102Y-54167855D01*
X65805116Y-54161332D01*
X65800100Y-54157577D01*
X65797504Y-54156815D01*
X65776866Y-54140185D01*
X65611816Y-53975135D01*
X65578334Y-53913814D01*
X65575500Y-53887456D01*
X65575500Y-52796783D01*
X65595185Y-52729744D01*
X65647989Y-52683989D01*
X65656142Y-52680610D01*
X65680226Y-52671628D01*
X65761804Y-52610559D01*
X65827264Y-52586143D01*
X65895538Y-52600994D01*
X65941650Y-52644730D01*
X65977424Y-52702728D01*
X65977427Y-52702732D01*
X66097267Y-52822572D01*
X66097271Y-52822575D01*
X66241507Y-52911542D01*
X66241518Y-52911547D01*
X66402393Y-52964855D01*
X66501683Y-52974999D01*
X67025000Y-52974999D01*
X67048308Y-52974999D01*
X67048322Y-52974998D01*
X67147607Y-52964855D01*
X67308481Y-52911547D01*
X67308492Y-52911542D01*
X67452728Y-52822575D01*
X67452732Y-52822572D01*
X67572572Y-52702732D01*
X67572575Y-52702728D01*
X67661542Y-52558492D01*
X67661547Y-52558481D01*
X67714855Y-52397606D01*
X67724999Y-52298322D01*
X67725000Y-52298309D01*
X67725000Y-52250000D01*
X67025000Y-52250000D01*
X67025000Y-52974999D01*
X66501683Y-52974999D01*
X66525000Y-52974998D01*
X66525000Y-51750000D01*
X67025000Y-51750000D01*
X67724999Y-51750000D01*
X67724999Y-51701692D01*
X67724998Y-51701677D01*
X67714855Y-51602392D01*
X67661547Y-51441518D01*
X67661542Y-51441507D01*
X67572575Y-51297271D01*
X67572572Y-51297267D01*
X67452732Y-51177427D01*
X67452728Y-51177424D01*
X67308492Y-51088457D01*
X67308481Y-51088452D01*
X67147606Y-51035144D01*
X67048322Y-51025000D01*
X67025000Y-51025000D01*
X67025000Y-51750000D01*
X66525000Y-51750000D01*
X66525000Y-51024999D01*
X66501693Y-51025000D01*
X66501674Y-51025001D01*
X66402392Y-51035144D01*
X66241518Y-51088452D01*
X66241507Y-51088457D01*
X66097271Y-51177424D01*
X66097267Y-51177427D01*
X65977424Y-51297270D01*
X65941649Y-51355270D01*
X65889701Y-51401993D01*
X65820738Y-51413214D01*
X65761802Y-51389438D01*
X65680230Y-51328374D01*
X65680227Y-51328373D01*
X65680226Y-51328372D01*
X65552114Y-51280588D01*
X65552112Y-51280587D01*
X65552110Y-51280587D01*
X65495493Y-51274500D01*
X64954518Y-51274500D01*
X64954509Y-51274501D01*
X64897885Y-51280587D01*
X64769773Y-51328372D01*
X64660313Y-51410313D01*
X64578371Y-51519774D01*
X64560073Y-51568834D01*
X64518202Y-51624768D01*
X64452737Y-51649184D01*
X64443892Y-51649500D01*
X63799499Y-51649500D01*
X63732460Y-51629815D01*
X63686705Y-51577011D01*
X63675499Y-51525500D01*
X63675499Y-51502129D01*
X63675498Y-51502123D01*
X63675497Y-51502116D01*
X63669091Y-51442517D01*
X63668718Y-51441518D01*
X63618797Y-51307671D01*
X63618793Y-51307664D01*
X63532547Y-51192455D01*
X63532544Y-51192452D01*
X63417335Y-51106206D01*
X63417328Y-51106202D01*
X63282486Y-51055910D01*
X63282485Y-51055909D01*
X63282483Y-51055909D01*
X63222873Y-51049500D01*
X63222863Y-51049500D01*
X62602129Y-51049500D01*
X62602123Y-51049501D01*
X62542516Y-51055908D01*
X62407671Y-51106202D01*
X62407664Y-51106206D01*
X62292455Y-51192452D01*
X62292452Y-51192455D01*
X62206202Y-51307669D01*
X62203330Y-51312930D01*
X62153923Y-51362334D01*
X62085650Y-51377184D01*
X62020186Y-51352765D01*
X61978317Y-51296830D01*
X61970500Y-51253500D01*
X61970500Y-46194500D01*
X61990185Y-46127461D01*
X62042989Y-46081706D01*
X62094500Y-46070500D01*
X73918435Y-46070500D01*
X73985474Y-46090185D01*
X74028918Y-46138204D01*
X74039946Y-46159847D01*
X74058766Y-46196785D01*
X74058770Y-46196792D01*
X74094289Y-46245678D01*
X74160586Y-46336928D01*
X74283072Y-46459414D01*
X74423212Y-46561232D01*
X74577555Y-46639873D01*
X74742299Y-46693402D01*
X74913389Y-46720500D01*
X74913390Y-46720500D01*
X75086610Y-46720500D01*
X75086611Y-46720500D01*
X75257701Y-46693402D01*
X75422445Y-46639873D01*
X75576788Y-46561232D01*
X75716928Y-46459414D01*
X75839414Y-46336928D01*
X75941232Y-46196788D01*
X76019873Y-46042445D01*
X76073402Y-45877701D01*
X76100500Y-45706611D01*
X76100500Y-45533389D01*
X76073402Y-45362299D01*
X76019873Y-45197555D01*
X75941232Y-45043212D01*
X75839414Y-44903072D01*
X75716928Y-44780586D01*
X75576788Y-44678768D01*
X75562771Y-44671626D01*
X75422446Y-44600127D01*
X75419284Y-44599100D01*
X75418236Y-44598383D01*
X75417952Y-44598266D01*
X75417976Y-44598206D01*
X75361609Y-44559661D01*
X75334413Y-44495302D01*
X75346329Y-44426456D01*
X75393574Y-44374981D01*
X75419288Y-44363239D01*
X75518215Y-44331096D01*
X75707554Y-44234622D01*
X75761716Y-44195270D01*
X75761717Y-44195270D01*
X75129408Y-43562962D01*
X75192993Y-43545925D01*
X75307007Y-43480099D01*
X75400099Y-43387007D01*
X75465925Y-43272993D01*
X75482962Y-43209408D01*
X76115270Y-43841717D01*
X76115270Y-43841716D01*
X76154622Y-43787554D01*
X76251095Y-43598217D01*
X76316757Y-43396130D01*
X76316757Y-43396127D01*
X76350000Y-43186246D01*
X76350000Y-42973753D01*
X76316757Y-42763872D01*
X76316757Y-42763869D01*
X76251095Y-42561782D01*
X76154624Y-42372449D01*
X76115270Y-42318282D01*
X76115269Y-42318282D01*
X75482962Y-42950590D01*
X75465925Y-42887007D01*
X75400099Y-42772993D01*
X75307007Y-42679901D01*
X75192993Y-42614075D01*
X75129409Y-42597037D01*
X75761716Y-41964728D01*
X75707550Y-41925375D01*
X75518217Y-41828904D01*
X75419287Y-41796760D01*
X75361611Y-41757323D01*
X75334413Y-41692964D01*
X75346328Y-41624118D01*
X75393572Y-41572642D01*
X75419290Y-41560897D01*
X75422445Y-41559873D01*
X75576788Y-41481232D01*
X75716928Y-41379414D01*
X75839414Y-41256928D01*
X75941232Y-41116788D01*
X76019873Y-40962445D01*
X76073402Y-40797701D01*
X76100500Y-40626611D01*
X76100500Y-40453389D01*
X76073402Y-40282299D01*
X76019873Y-40117555D01*
X75941232Y-39963212D01*
X75839414Y-39823072D01*
X75716928Y-39700586D01*
X75576788Y-39598768D01*
X75422445Y-39520127D01*
X75257701Y-39466598D01*
X75257699Y-39466597D01*
X75257698Y-39466597D01*
X75126271Y-39445781D01*
X75086611Y-39439500D01*
X74913389Y-39439500D01*
X74873728Y-39445781D01*
X74742302Y-39466597D01*
X74577552Y-39520128D01*
X74423211Y-39598768D01*
X74343256Y-39656859D01*
X74283072Y-39700586D01*
X74283070Y-39700588D01*
X74283069Y-39700588D01*
X74160588Y-39823069D01*
X74160588Y-39823070D01*
X74160586Y-39823072D01*
X74151371Y-39835756D01*
X74058768Y-39963211D01*
X73977966Y-40121795D01*
X73929991Y-40172591D01*
X73867481Y-40189500D01*
X69777944Y-40189500D01*
X69710905Y-40169815D01*
X69690263Y-40153181D01*
X67700603Y-38163521D01*
X67692107Y-38147963D01*
X67679551Y-38135448D01*
X67675710Y-38117933D01*
X67667118Y-38102198D01*
X67668382Y-38084517D01*
X67664585Y-38067200D01*
X67670823Y-38050389D01*
X67672102Y-38032506D01*
X67682743Y-38018266D01*
X67688893Y-38001695D01*
X67707469Y-37985179D01*
X67713809Y-37976697D01*
X67719799Y-37972197D01*
X67805515Y-37922709D01*
X67865401Y-37862822D01*
X67872411Y-37857557D01*
X67897247Y-37848246D01*
X67920528Y-37835534D01*
X67935431Y-37833931D01*
X67937834Y-37833031D01*
X67939820Y-37833459D01*
X67946886Y-37832700D01*
X73133956Y-37832700D01*
X73200995Y-37852385D01*
X73221637Y-37869019D01*
X73633088Y-38280470D01*
X73713012Y-38326614D01*
X73802156Y-38350500D01*
X73802159Y-38350500D01*
X73807593Y-38351956D01*
X73867254Y-38388321D01*
X73897783Y-38451167D01*
X73899500Y-38471731D01*
X73899500Y-38874678D01*
X73914032Y-38947735D01*
X73914033Y-38947739D01*
X73914034Y-38947740D01*
X73969399Y-39030601D01*
X74052260Y-39085966D01*
X74052264Y-39085967D01*
X74125321Y-39100499D01*
X74125324Y-39100500D01*
X74125326Y-39100500D01*
X75874676Y-39100500D01*
X75874677Y-39100499D01*
X75947740Y-39085966D01*
X76030601Y-39030601D01*
X76085966Y-38947740D01*
X76100500Y-38874674D01*
X76100500Y-37125326D01*
X76100500Y-37125323D01*
X76100499Y-37125321D01*
X76085967Y-37052264D01*
X76085966Y-37052260D01*
X76062588Y-37017272D01*
X76030601Y-36969399D01*
X75975235Y-36932405D01*
X75947739Y-36914033D01*
X75947735Y-36914032D01*
X75874677Y-36899500D01*
X75874674Y-36899500D01*
X74125326Y-36899500D01*
X74125323Y-36899500D01*
X74052264Y-36914032D01*
X74052260Y-36914033D01*
X73969399Y-36969399D01*
X73914033Y-37052260D01*
X73914032Y-37052264D01*
X73899500Y-37125321D01*
X73899500Y-37256156D01*
X73879815Y-37323195D01*
X73827011Y-37368950D01*
X73757853Y-37378894D01*
X73694297Y-37349869D01*
X73687819Y-37343837D01*
X73545713Y-37201731D01*
X73545708Y-37201727D01*
X73465790Y-37155587D01*
X73465789Y-37155586D01*
X73465788Y-37155586D01*
X73376644Y-37131700D01*
X73376643Y-37131700D01*
X67946886Y-37131700D01*
X67879847Y-37112015D01*
X67859205Y-37095381D01*
X67805517Y-37041693D01*
X67805511Y-37041688D01*
X67679988Y-36969217D01*
X67679989Y-36969217D01*
X67668506Y-36966140D01*
X67539975Y-36931700D01*
X67395025Y-36931700D01*
X67266493Y-36966140D01*
X67255011Y-36969217D01*
X67136000Y-37037929D01*
X67068100Y-37054402D01*
X67002073Y-37031550D01*
X66958882Y-36976628D01*
X66950000Y-36930542D01*
X66950000Y-36872327D01*
X66950000Y-36872325D01*
X66912484Y-36732315D01*
X66889695Y-36692844D01*
X66840011Y-36606788D01*
X66840006Y-36606782D01*
X66737517Y-36504293D01*
X66737511Y-36504288D01*
X66611988Y-36431817D01*
X66611989Y-36431817D01*
X66600506Y-36428740D01*
X66471975Y-36394300D01*
X66327025Y-36394300D01*
X66198493Y-36428740D01*
X66187011Y-36431817D01*
X66061488Y-36504288D01*
X66061482Y-36504293D01*
X65958993Y-36606782D01*
X65958988Y-36606788D01*
X65886517Y-36732311D01*
X65886516Y-36732315D01*
X65849000Y-36872325D01*
X65849000Y-37017275D01*
X65883006Y-37144185D01*
X65886517Y-37157288D01*
X65958988Y-37282811D01*
X65958993Y-37282817D01*
X66014472Y-37338296D01*
X66046285Y-37396558D01*
X66046897Y-37396395D01*
X66047571Y-37398913D01*
X66047957Y-37399619D01*
X66048323Y-37401717D01*
X66063345Y-37457783D01*
X66072884Y-37493383D01*
X66072887Y-37493390D01*
X66119027Y-37573308D01*
X66119029Y-37573311D01*
X66119030Y-37573312D01*
X69366188Y-40820470D01*
X69428918Y-40856687D01*
X69446112Y-40866614D01*
X69535256Y-40890500D01*
X73867481Y-40890500D01*
X73934520Y-40910185D01*
X73977966Y-40958205D01*
X74058768Y-41116788D01*
X74160586Y-41256928D01*
X74283072Y-41379414D01*
X74423212Y-41481232D01*
X74577555Y-41559873D01*
X74580708Y-41560897D01*
X74581752Y-41561611D01*
X74582048Y-41561734D01*
X74582022Y-41561795D01*
X74638383Y-41600330D01*
X74665585Y-41664688D01*
X74653674Y-41733535D01*
X74606433Y-41785013D01*
X74580712Y-41796760D01*
X74481783Y-41828904D01*
X74292439Y-41925380D01*
X74238282Y-41964727D01*
X74238282Y-41964728D01*
X74870591Y-42597037D01*
X74807007Y-42614075D01*
X74692993Y-42679901D01*
X74599901Y-42772993D01*
X74534075Y-42887007D01*
X74517037Y-42950591D01*
X73884728Y-42318282D01*
X73884727Y-42318282D01*
X73845380Y-42372439D01*
X73748904Y-42561782D01*
X73683242Y-42763869D01*
X73683242Y-42763872D01*
X73650000Y-42973753D01*
X73650000Y-43186246D01*
X73683242Y-43396127D01*
X73683242Y-43396130D01*
X73748904Y-43598217D01*
X73845375Y-43787550D01*
X73884728Y-43841716D01*
X74517037Y-43209408D01*
X74534075Y-43272993D01*
X74599901Y-43387007D01*
X74692993Y-43480099D01*
X74807007Y-43545925D01*
X74870590Y-43562962D01*
X74238282Y-44195269D01*
X74238282Y-44195270D01*
X74292449Y-44234624D01*
X74481784Y-44331096D01*
X74580711Y-44363239D01*
X74638387Y-44402676D01*
X74665586Y-44467034D01*
X74653672Y-44535881D01*
X74606428Y-44587357D01*
X74580722Y-44599097D01*
X74579522Y-44599487D01*
X74577550Y-44600128D01*
X74423211Y-44678768D01*
X74358891Y-44725500D01*
X74283072Y-44780586D01*
X74283070Y-44780588D01*
X74283069Y-44780588D01*
X74160588Y-44903069D01*
X74160588Y-44903070D01*
X74160586Y-44903072D01*
X74137827Y-44934397D01*
X74058770Y-45043207D01*
X74058766Y-45043214D01*
X74040000Y-45080046D01*
X74028918Y-45101795D01*
X73980947Y-45152590D01*
X73918435Y-45169500D01*
X67298456Y-45169500D01*
X67231417Y-45149815D01*
X67185662Y-45097011D01*
X67175718Y-45027853D01*
X67204743Y-44964297D01*
X67259452Y-44927794D01*
X67308481Y-44911547D01*
X67308492Y-44911542D01*
X67452728Y-44822575D01*
X67452732Y-44822572D01*
X67572572Y-44702732D01*
X67572575Y-44702728D01*
X67661542Y-44558492D01*
X67661547Y-44558481D01*
X67714855Y-44397606D01*
X67724999Y-44298322D01*
X67725000Y-44298309D01*
X67725000Y-44250000D01*
X66899000Y-44250000D01*
X66831961Y-44230315D01*
X66786206Y-44177511D01*
X66775000Y-44126000D01*
X66775000Y-44000000D01*
X66649000Y-44000000D01*
X66581961Y-43980315D01*
X66536206Y-43927511D01*
X66525000Y-43876000D01*
X66525000Y-43750000D01*
X67025000Y-43750000D01*
X67724999Y-43750000D01*
X67724999Y-43701692D01*
X67724998Y-43701677D01*
X67714855Y-43602392D01*
X67661547Y-43441518D01*
X67661542Y-43441507D01*
X67572575Y-43297271D01*
X67572572Y-43297267D01*
X67452732Y-43177427D01*
X67452728Y-43177424D01*
X67308492Y-43088457D01*
X67308479Y-43088451D01*
X67302852Y-43086587D01*
X67302851Y-43086587D01*
X67147606Y-43035144D01*
X67048322Y-43025000D01*
X67025000Y-43025000D01*
X67025000Y-43750000D01*
X66525000Y-43750000D01*
X66525000Y-43024999D01*
X66501693Y-43025000D01*
X66501674Y-43025001D01*
X66402392Y-43035144D01*
X66241518Y-43088452D01*
X66241507Y-43088457D01*
X66097271Y-43177424D01*
X66097267Y-43177427D01*
X65977424Y-43297270D01*
X65941649Y-43355270D01*
X65934264Y-43361911D01*
X65930178Y-43370964D01*
X65908718Y-43384887D01*
X65889701Y-43401993D01*
X65879899Y-43403587D01*
X65871566Y-43408995D01*
X65845983Y-43409106D01*
X65820738Y-43413214D01*
X65809765Y-43409263D01*
X65801697Y-43409299D01*
X65780366Y-43398679D01*
X65769528Y-43394778D01*
X65765564Y-43392254D01*
X65680226Y-43328372D01*
X65643931Y-43314834D01*
X65632916Y-43307823D01*
X65618168Y-43290952D01*
X65600232Y-43277525D01*
X65595619Y-43265156D01*
X65586932Y-43255219D01*
X65583646Y-43233054D01*
X65575816Y-43212060D01*
X65575500Y-43203216D01*
X65575500Y-28033400D01*
X65595185Y-27966361D01*
X65647989Y-27920606D01*
X65699500Y-27909400D01*
X69107242Y-27909400D01*
X69107244Y-27909400D01*
X69196388Y-27885514D01*
X69224196Y-27869459D01*
X69276312Y-27839370D01*
X74447031Y-22668649D01*
X74508352Y-22635166D01*
X74573029Y-22638401D01*
X74577547Y-22639869D01*
X74577555Y-22639873D01*
X74742299Y-22693402D01*
X74913389Y-22720500D01*
X74913390Y-22720500D01*
X75086610Y-22720500D01*
X75086611Y-22720500D01*
X75257701Y-22693402D01*
X75422445Y-22639873D01*
X75576788Y-22561232D01*
X75716928Y-22459414D01*
X75839414Y-22336928D01*
X75941232Y-22196788D01*
X76019873Y-22042445D01*
X76073402Y-21877701D01*
X76100500Y-21706611D01*
X76100500Y-21533389D01*
X76073402Y-21362299D01*
X76019873Y-21197555D01*
X75941232Y-21043212D01*
X75839414Y-20903072D01*
X75716928Y-20780586D01*
X75576788Y-20678768D01*
X75422446Y-20600127D01*
X75419284Y-20599100D01*
X75418236Y-20598383D01*
X75417952Y-20598266D01*
X75417976Y-20598206D01*
X75361609Y-20559661D01*
X75334413Y-20495302D01*
X75346329Y-20426456D01*
X75393574Y-20374981D01*
X75419288Y-20363239D01*
X75518215Y-20331096D01*
X75707554Y-20234622D01*
X75761716Y-20195270D01*
X75761717Y-20195270D01*
X75129408Y-19562962D01*
X75192993Y-19545925D01*
X75307007Y-19480099D01*
X75400099Y-19387007D01*
X75465925Y-19272993D01*
X75482962Y-19209408D01*
X76115270Y-19841717D01*
X76115270Y-19841716D01*
X76154622Y-19787554D01*
X76251095Y-19598217D01*
X76316757Y-19396130D01*
X76316757Y-19396127D01*
X76350000Y-19186246D01*
X76350000Y-18973753D01*
X76316757Y-18763872D01*
X76316757Y-18763869D01*
X76251095Y-18561782D01*
X76154624Y-18372449D01*
X76115270Y-18318282D01*
X76115269Y-18318282D01*
X75482962Y-18950590D01*
X75465925Y-18887007D01*
X75400099Y-18772993D01*
X75307007Y-18679901D01*
X75192993Y-18614075D01*
X75129409Y-18597037D01*
X75761716Y-17964728D01*
X75707550Y-17925375D01*
X75518217Y-17828904D01*
X75316129Y-17763242D01*
X75106246Y-17730000D01*
X74893754Y-17730000D01*
X74683872Y-17763242D01*
X74683869Y-17763242D01*
X74481782Y-17828904D01*
X74292439Y-17925380D01*
X74238282Y-17964727D01*
X74238282Y-17964728D01*
X74870591Y-18597037D01*
X74807007Y-18614075D01*
X74692993Y-18679901D01*
X74599901Y-18772993D01*
X74534075Y-18887007D01*
X74517037Y-18950591D01*
X73884728Y-18318282D01*
X73884727Y-18318282D01*
X73845380Y-18372439D01*
X73748904Y-18561782D01*
X73683242Y-18763869D01*
X73683242Y-18763872D01*
X73650000Y-18973753D01*
X73650000Y-19186246D01*
X73683242Y-19396127D01*
X73683242Y-19396130D01*
X73748904Y-19598217D01*
X73845375Y-19787550D01*
X73884728Y-19841716D01*
X74517037Y-19209408D01*
X74534075Y-19272993D01*
X74599901Y-19387007D01*
X74692993Y-19480099D01*
X74807007Y-19545925D01*
X74870590Y-19562962D01*
X74238282Y-20195269D01*
X74238282Y-20195270D01*
X74292449Y-20234624D01*
X74481784Y-20331096D01*
X74580711Y-20363239D01*
X74638387Y-20402676D01*
X74665586Y-20467034D01*
X74653672Y-20535881D01*
X74606428Y-20587357D01*
X74580722Y-20599097D01*
X74579522Y-20599487D01*
X74577550Y-20600128D01*
X74423211Y-20678768D01*
X74343256Y-20736859D01*
X74283072Y-20780586D01*
X74283070Y-20780588D01*
X74283069Y-20780588D01*
X74160588Y-20903069D01*
X74160588Y-20903070D01*
X74160586Y-20903072D01*
X74136928Y-20935634D01*
X74058768Y-21043211D01*
X73980128Y-21197552D01*
X73926597Y-21362302D01*
X73899500Y-21533389D01*
X73899500Y-21706610D01*
X73926597Y-21877698D01*
X73981597Y-22046970D01*
X73983592Y-22116811D01*
X73951347Y-22172969D01*
X68952237Y-27172081D01*
X68890914Y-27205566D01*
X68864556Y-27208400D01*
X65421544Y-27208400D01*
X65354505Y-27188715D01*
X65333863Y-27172081D01*
X63653819Y-25492037D01*
X63620334Y-25430714D01*
X63617500Y-25404356D01*
X63617500Y-25328427D01*
X63617500Y-25328425D01*
X63579984Y-25188415D01*
X63551971Y-25139896D01*
X63507511Y-25062888D01*
X63507506Y-25062882D01*
X63405017Y-24960393D01*
X63405011Y-24960388D01*
X63279488Y-24887917D01*
X63279489Y-24887917D01*
X63268006Y-24884840D01*
X63139475Y-24850400D01*
X62994525Y-24850400D01*
X62865993Y-24884840D01*
X62854511Y-24887917D01*
X62728988Y-24960388D01*
X62728982Y-24960393D01*
X62626493Y-25062882D01*
X62626488Y-25062888D01*
X62554017Y-25188411D01*
X62554016Y-25188415D01*
X62516500Y-25328425D01*
X62516500Y-25473375D01*
X62553143Y-25610126D01*
X62554017Y-25613388D01*
X62626488Y-25738911D01*
X62626493Y-25738917D01*
X62680181Y-25792605D01*
X62713666Y-25853928D01*
X62716500Y-25880286D01*
X62716500Y-34978555D01*
X62696815Y-35045594D01*
X62680181Y-35066236D01*
X57332830Y-40413586D01*
X57271507Y-40447071D01*
X57201815Y-40442087D01*
X57145882Y-40400215D01*
X57137763Y-40387906D01*
X57124013Y-40364091D01*
X57124010Y-40364088D01*
X57124009Y-40364085D01*
X57021515Y-40261591D01*
X57021513Y-40261590D01*
X57021511Y-40261588D01*
X56895988Y-40189117D01*
X56895989Y-40189117D01*
X56869185Y-40181935D01*
X56755975Y-40151600D01*
X56755972Y-40151600D01*
X56680043Y-40151600D01*
X56613004Y-40131915D01*
X56592362Y-40115281D01*
X56400519Y-39923437D01*
X56367034Y-39862114D01*
X56364200Y-39835756D01*
X56364200Y-16613920D01*
X74249499Y-16613920D01*
X74278340Y-16758907D01*
X74278343Y-16758917D01*
X74334912Y-16895488D01*
X74334919Y-16895501D01*
X74417048Y-17018415D01*
X74417051Y-17018419D01*
X74521580Y-17122948D01*
X74521584Y-17122951D01*
X74644498Y-17205080D01*
X74644511Y-17205087D01*
X74781082Y-17261656D01*
X74781087Y-17261658D01*
X74781091Y-17261658D01*
X74781092Y-17261659D01*
X74926079Y-17290500D01*
X74926082Y-17290500D01*
X75073920Y-17290500D01*
X75171462Y-17271096D01*
X75218913Y-17261658D01*
X75355495Y-17205084D01*
X75478416Y-17122951D01*
X75582951Y-17018416D01*
X75665084Y-16895495D01*
X75721658Y-16758913D01*
X75750500Y-16613918D01*
X75750500Y-16466082D01*
X75750500Y-16466079D01*
X75721659Y-16321092D01*
X75721658Y-16321091D01*
X75721658Y-16321087D01*
X75721656Y-16321082D01*
X75665087Y-16184511D01*
X75665080Y-16184498D01*
X75582951Y-16061584D01*
X75582948Y-16061580D01*
X75478419Y-15957051D01*
X75478415Y-15957048D01*
X75355501Y-15874919D01*
X75355488Y-15874912D01*
X75218917Y-15818343D01*
X75218907Y-15818340D01*
X75073920Y-15789500D01*
X75073918Y-15789500D01*
X74926082Y-15789500D01*
X74926080Y-15789500D01*
X74781092Y-15818340D01*
X74781082Y-15818343D01*
X74644511Y-15874912D01*
X74644498Y-15874919D01*
X74521584Y-15957048D01*
X74521580Y-15957051D01*
X74417051Y-16061580D01*
X74417048Y-16061584D01*
X74334919Y-16184498D01*
X74334912Y-16184511D01*
X74278343Y-16321082D01*
X74278340Y-16321092D01*
X74249500Y-16466079D01*
X74249500Y-16466082D01*
X74249500Y-16613918D01*
X74249500Y-16613920D01*
X74249499Y-16613920D01*
X56364200Y-16613920D01*
X56364200Y-14073920D01*
X74249499Y-14073920D01*
X74278340Y-14218907D01*
X74278343Y-14218917D01*
X74334912Y-14355488D01*
X74334919Y-14355501D01*
X74417048Y-14478415D01*
X74417051Y-14478419D01*
X74521580Y-14582948D01*
X74521584Y-14582951D01*
X74644498Y-14665080D01*
X74644511Y-14665087D01*
X74781082Y-14721656D01*
X74781087Y-14721658D01*
X74781091Y-14721658D01*
X74781092Y-14721659D01*
X74926079Y-14750500D01*
X74926082Y-14750500D01*
X75073920Y-14750500D01*
X75171462Y-14731096D01*
X75218913Y-14721658D01*
X75355495Y-14665084D01*
X75478416Y-14582951D01*
X75582951Y-14478416D01*
X75665084Y-14355495D01*
X75721658Y-14218913D01*
X75750500Y-14073918D01*
X75750500Y-13926082D01*
X75750500Y-13926079D01*
X75721659Y-13781092D01*
X75721658Y-13781091D01*
X75721658Y-13781087D01*
X75666235Y-13647283D01*
X75665087Y-13644511D01*
X75665080Y-13644498D01*
X75582951Y-13521584D01*
X75582948Y-13521580D01*
X75478419Y-13417051D01*
X75478415Y-13417048D01*
X75355501Y-13334919D01*
X75355488Y-13334912D01*
X75218917Y-13278343D01*
X75218907Y-13278340D01*
X75073920Y-13249500D01*
X75073918Y-13249500D01*
X74926082Y-13249500D01*
X74926080Y-13249500D01*
X74781092Y-13278340D01*
X74781082Y-13278343D01*
X74644511Y-13334912D01*
X74644498Y-13334919D01*
X74521584Y-13417048D01*
X74521580Y-13417051D01*
X74417051Y-13521580D01*
X74417048Y-13521584D01*
X74334919Y-13644498D01*
X74334912Y-13644511D01*
X74278343Y-13781082D01*
X74278340Y-13781092D01*
X74249500Y-13926079D01*
X74249500Y-13926082D01*
X74249500Y-14073918D01*
X74249500Y-14073920D01*
X74249499Y-14073920D01*
X56364200Y-14073920D01*
X56364200Y-9022358D01*
X56364200Y-9022357D01*
X56364200Y-9022356D01*
X56340314Y-8933212D01*
X56294170Y-8853288D01*
X54839819Y-7398937D01*
X54806334Y-7337614D01*
X54803500Y-7311256D01*
X54803500Y-7235327D01*
X54803500Y-7235325D01*
X54765984Y-7095315D01*
X54693509Y-6969785D01*
X54591015Y-6867291D01*
X54591013Y-6867290D01*
X54591011Y-6867288D01*
X54465488Y-6794817D01*
X54465489Y-6794817D01*
X54454006Y-6791740D01*
X54325475Y-6757300D01*
X54180525Y-6757300D01*
X54051993Y-6791740D01*
X54040511Y-6794817D01*
X53914988Y-6867288D01*
X53914982Y-6867293D01*
X53812493Y-6969782D01*
X53812488Y-6969788D01*
X53740017Y-7095311D01*
X53740016Y-7095315D01*
X53702500Y-7235325D01*
X53702500Y-7380275D01*
X53707501Y-7398937D01*
X53740017Y-7520288D01*
X53812488Y-7645811D01*
X53812490Y-7645813D01*
X53812491Y-7645815D01*
X53914985Y-7748309D01*
X53914986Y-7748310D01*
X53914988Y-7748311D01*
X54040511Y-7820782D01*
X54040512Y-7820782D01*
X54040515Y-7820784D01*
X54180525Y-7858300D01*
X54256456Y-7858300D01*
X54323495Y-7877985D01*
X54344137Y-7894619D01*
X55626882Y-9177364D01*
X55660366Y-9238685D01*
X55663200Y-9265043D01*
X55663200Y-40079416D01*
X55643515Y-40146455D01*
X55590711Y-40192210D01*
X55529447Y-40203032D01*
X55518100Y-40202136D01*
X55484375Y-40193100D01*
X55403558Y-40193100D01*
X55398691Y-40192716D01*
X55370421Y-40181935D01*
X55341405Y-40173415D01*
X55335408Y-40168582D01*
X55333408Y-40167820D01*
X55331865Y-40165727D01*
X55320763Y-40156781D01*
X51701819Y-36537837D01*
X51668334Y-36476514D01*
X51665500Y-36450156D01*
X51665500Y-32188644D01*
X51685185Y-32121605D01*
X51737989Y-32075850D01*
X51807147Y-32065906D01*
X51870703Y-32094931D01*
X51877181Y-32100963D01*
X53666181Y-33889963D01*
X53699666Y-33951286D01*
X53702500Y-33977644D01*
X53702500Y-34053575D01*
X53740016Y-34193585D01*
X53740017Y-34193588D01*
X53812488Y-34319111D01*
X53812490Y-34319113D01*
X53812491Y-34319115D01*
X53914985Y-34421609D01*
X53914986Y-34421610D01*
X53914988Y-34421611D01*
X54040511Y-34494082D01*
X54040512Y-34494082D01*
X54040515Y-34494084D01*
X54180525Y-34531600D01*
X54180528Y-34531600D01*
X54325472Y-34531600D01*
X54325475Y-34531600D01*
X54465485Y-34494084D01*
X54591015Y-34421609D01*
X54693509Y-34319115D01*
X54765984Y-34193585D01*
X54803500Y-34053575D01*
X54803500Y-33908625D01*
X54765984Y-33768615D01*
X54698859Y-33652352D01*
X54693511Y-33643088D01*
X54693506Y-33643082D01*
X54591017Y-33540593D01*
X54591011Y-33540588D01*
X54465488Y-33468117D01*
X54465489Y-33468117D01*
X54454006Y-33465040D01*
X54325475Y-33430600D01*
X54325472Y-33430600D01*
X54249544Y-33430600D01*
X54182505Y-33410915D01*
X54161863Y-33394281D01*
X52486319Y-31718737D01*
X52452834Y-31657414D01*
X52450000Y-31631056D01*
X52450000Y-10750886D01*
X52469685Y-10683847D01*
X52486319Y-10663205D01*
X52512119Y-10637405D01*
X52540009Y-10609515D01*
X52612484Y-10483985D01*
X52650000Y-10343975D01*
X52650000Y-10199025D01*
X52612484Y-10059015D01*
X52607567Y-10050499D01*
X52540011Y-9933488D01*
X52540006Y-9933482D01*
X52437517Y-9830993D01*
X52437511Y-9830988D01*
X52311988Y-9758517D01*
X52311989Y-9758517D01*
X52300506Y-9755440D01*
X52171975Y-9721000D01*
X52027025Y-9721000D01*
X51898493Y-9755440D01*
X51887011Y-9758517D01*
X51851500Y-9779020D01*
X51783600Y-9795493D01*
X51717573Y-9772640D01*
X51674382Y-9717719D01*
X51665500Y-9671633D01*
X51665500Y-8644486D01*
X51685185Y-8577447D01*
X51701819Y-8556805D01*
X51755509Y-8503115D01*
X51827984Y-8377585D01*
X51865500Y-8237575D01*
X51865500Y-8092625D01*
X51827984Y-7952615D01*
X51793734Y-7893293D01*
X51755511Y-7827088D01*
X51755506Y-7827082D01*
X51653017Y-7724593D01*
X51653011Y-7724588D01*
X51527488Y-7652117D01*
X51527489Y-7652117D01*
X51503977Y-7645817D01*
X51387475Y-7614600D01*
X51242525Y-7614600D01*
X51126023Y-7645817D01*
X51102511Y-7652117D01*
X50976988Y-7724588D01*
X50976982Y-7724593D01*
X50874493Y-7827082D01*
X50874488Y-7827088D01*
X50802017Y-7952611D01*
X50802016Y-7952615D01*
X50764500Y-8092625D01*
X50764500Y-8237575D01*
X50802016Y-8377585D01*
X50802017Y-8377588D01*
X50874488Y-8503111D01*
X50874493Y-8503117D01*
X50928181Y-8556805D01*
X50961666Y-8618128D01*
X50964500Y-8644486D01*
X50964500Y-36692843D01*
X50988386Y-36781987D01*
X50988387Y-36781990D01*
X51034527Y-36861908D01*
X51034531Y-36861913D01*
X54825081Y-40652463D01*
X54858566Y-40713786D01*
X54861400Y-40740144D01*
X54861400Y-40816075D01*
X54898916Y-40956085D01*
X54966302Y-41072801D01*
X54982775Y-41140699D01*
X54959923Y-41206726D01*
X54905002Y-41249917D01*
X54858915Y-41258800D01*
X53257056Y-41258800D01*
X53167912Y-41282686D01*
X53167911Y-41282686D01*
X53167909Y-41282687D01*
X53167906Y-41282688D01*
X53087994Y-41328826D01*
X53087985Y-41328833D01*
X51394816Y-43022000D01*
X51333493Y-43055485D01*
X51290370Y-43055104D01*
X51290195Y-43056738D01*
X51222882Y-43049501D01*
X51222873Y-43049500D01*
X51222863Y-43049500D01*
X50602129Y-43049500D01*
X50602123Y-43049501D01*
X50542516Y-43055908D01*
X50407671Y-43106202D01*
X50407664Y-43106206D01*
X50292455Y-43192452D01*
X50292452Y-43192455D01*
X50206206Y-43307664D01*
X50206202Y-43307671D01*
X50155908Y-43442517D01*
X50152187Y-43477135D01*
X50149501Y-43502123D01*
X50149500Y-43502135D01*
X50149500Y-44497870D01*
X50149501Y-44497876D01*
X50155908Y-44557483D01*
X50206202Y-44692328D01*
X50206206Y-44692335D01*
X50292452Y-44807544D01*
X50292455Y-44807547D01*
X50407852Y-44893934D01*
X50449723Y-44949868D01*
X50454707Y-45019559D01*
X50421221Y-45080882D01*
X50359898Y-45114366D01*
X50333541Y-45117200D01*
X49666459Y-45117200D01*
X49599420Y-45097515D01*
X49553665Y-45044711D01*
X49543721Y-44975553D01*
X49572746Y-44911997D01*
X49592148Y-44893934D01*
X49687474Y-44822572D01*
X49707546Y-44807546D01*
X49793796Y-44692331D01*
X49844091Y-44557483D01*
X49850500Y-44497873D01*
X49850499Y-43502128D01*
X49844091Y-43442517D01*
X49843718Y-43441518D01*
X49793797Y-43307671D01*
X49793793Y-43307664D01*
X49707547Y-43192455D01*
X49707544Y-43192452D01*
X49592335Y-43106206D01*
X49592328Y-43106202D01*
X49457486Y-43055910D01*
X49457485Y-43055909D01*
X49457483Y-43055909D01*
X49397873Y-43049500D01*
X49397863Y-43049500D01*
X48777129Y-43049500D01*
X48777123Y-43049501D01*
X48717516Y-43055908D01*
X48582671Y-43106202D01*
X48582664Y-43106206D01*
X48467455Y-43192452D01*
X48467452Y-43192455D01*
X48381206Y-43307664D01*
X48381202Y-43307671D01*
X48330908Y-43442517D01*
X48327187Y-43477135D01*
X48324501Y-43502123D01*
X48324500Y-43502135D01*
X48324500Y-44497870D01*
X48324501Y-44497876D01*
X48330908Y-44557483D01*
X48381202Y-44692328D01*
X48381206Y-44692335D01*
X48447272Y-44780586D01*
X48467454Y-44807546D01*
X48582669Y-44893796D01*
X48582671Y-44893797D01*
X48587311Y-44897270D01*
X48629182Y-44953204D01*
X48637000Y-44996537D01*
X48637000Y-46400184D01*
X48630761Y-46421429D01*
X48629182Y-46443517D01*
X48618567Y-46462956D01*
X48617315Y-46467223D01*
X48612268Y-46474494D01*
X48593317Y-46499810D01*
X48537384Y-46541681D01*
X48494049Y-46549500D01*
X48028191Y-46549500D01*
X47937825Y-46573713D01*
X47937824Y-46573712D01*
X47913615Y-46580200D01*
X47913606Y-46580204D01*
X47810892Y-46639505D01*
X47810884Y-46639511D01*
X43437214Y-51013181D01*
X43375891Y-51046666D01*
X43349533Y-51049500D01*
X42825465Y-51049500D01*
X42796024Y-51040855D01*
X42766038Y-51034332D01*
X42761022Y-51030577D01*
X42758426Y-51029815D01*
X42737784Y-51013181D01*
X42696884Y-50972281D01*
X42663399Y-50910958D01*
X42668383Y-50841266D01*
X42696884Y-50796919D01*
X42869303Y-50624500D01*
X43198790Y-50295014D01*
X43258099Y-50192287D01*
X43264585Y-50168075D01*
X43264586Y-50168075D01*
X43264586Y-50168071D01*
X43288800Y-50077709D01*
X43288800Y-26921527D01*
X43308485Y-26854488D01*
X43361289Y-26808733D01*
X43430447Y-26798789D01*
X43487109Y-26822259D01*
X43534426Y-26857681D01*
X43582668Y-26893795D01*
X43582671Y-26893797D01*
X43627618Y-26910561D01*
X43717517Y-26944091D01*
X43777127Y-26950500D01*
X44397872Y-26950499D01*
X44457483Y-26944091D01*
X44592331Y-26893796D01*
X44707546Y-26807546D01*
X44753502Y-26746156D01*
X44809434Y-26704287D01*
X44879125Y-26699303D01*
X44940448Y-26732788D01*
X44961665Y-26763089D01*
X44961851Y-26762975D01*
X44963819Y-26766166D01*
X44965151Y-26768068D01*
X44965642Y-26769121D01*
X45057684Y-26918345D01*
X45181654Y-27042315D01*
X45330875Y-27134356D01*
X45330880Y-27134358D01*
X45497302Y-27189505D01*
X45497309Y-27189506D01*
X45600019Y-27199999D01*
X46162500Y-27199999D01*
X46224972Y-27199999D01*
X46224986Y-27199998D01*
X46327697Y-27189505D01*
X46494119Y-27134358D01*
X46494124Y-27134356D01*
X46643345Y-27042315D01*
X46767315Y-26918345D01*
X46859356Y-26769124D01*
X46859358Y-26769119D01*
X46914505Y-26602697D01*
X46914506Y-26602690D01*
X46924999Y-26499986D01*
X46925000Y-26499973D01*
X46925000Y-26250000D01*
X46162500Y-26250000D01*
X46162500Y-27199999D01*
X45600019Y-27199999D01*
X45662499Y-27199998D01*
X45662500Y-27199998D01*
X45662500Y-26124000D01*
X45682185Y-26056961D01*
X45734989Y-26011206D01*
X45786500Y-26000000D01*
X45912500Y-26000000D01*
X45912500Y-25874000D01*
X45932185Y-25806961D01*
X45984989Y-25761206D01*
X46036500Y-25750000D01*
X46924999Y-25750000D01*
X46924999Y-25500028D01*
X46924998Y-25500013D01*
X46914505Y-25397302D01*
X46859358Y-25230880D01*
X46859356Y-25230875D01*
X46767315Y-25081654D01*
X46643345Y-24957684D01*
X46494124Y-24865643D01*
X46494119Y-24865641D01*
X46327697Y-24810494D01*
X46327690Y-24810493D01*
X46224986Y-24800000D01*
X46117898Y-24800000D01*
X46050859Y-24780315D01*
X46005104Y-24727511D01*
X45995160Y-24658353D01*
X46024185Y-24594797D01*
X46030202Y-24588334D01*
X47112675Y-23505863D01*
X47162111Y-23420237D01*
X47187700Y-23324736D01*
X47187700Y-23225864D01*
X47187700Y-19842465D01*
X47162110Y-19746962D01*
X47112675Y-19661338D01*
X47042762Y-19591425D01*
X46770219Y-19318882D01*
X46736734Y-19257559D01*
X46733900Y-19231201D01*
X46733900Y-19190627D01*
X46733900Y-19190625D01*
X46696384Y-19050615D01*
X46693599Y-19045792D01*
X46623911Y-18925088D01*
X46623906Y-18925082D01*
X46597315Y-18898491D01*
X46563830Y-18837168D01*
X46568814Y-18767476D01*
X46585725Y-18736507D01*
X46618796Y-18692331D01*
X46669091Y-18557483D01*
X46675500Y-18497873D01*
X46675499Y-17502128D01*
X46669091Y-17442517D01*
X46650379Y-17392348D01*
X46618797Y-17307671D01*
X46618793Y-17307664D01*
X46532547Y-17192455D01*
X46532544Y-17192452D01*
X46417335Y-17106206D01*
X46417328Y-17106202D01*
X46282486Y-17055910D01*
X46282485Y-17055909D01*
X46282483Y-17055909D01*
X46222873Y-17049500D01*
X46222863Y-17049500D01*
X45602129Y-17049500D01*
X45602123Y-17049501D01*
X45542516Y-17055908D01*
X45407671Y-17106202D01*
X45407664Y-17106206D01*
X45292455Y-17192452D01*
X45292452Y-17192455D01*
X45206206Y-17307664D01*
X45206202Y-17307671D01*
X45155908Y-17442517D01*
X45149501Y-17502116D01*
X45149501Y-17502123D01*
X45149500Y-17502135D01*
X45149500Y-18231601D01*
X45143261Y-18252846D01*
X45141682Y-18274935D01*
X45133609Y-18285718D01*
X45129815Y-18298640D01*
X45113081Y-18313139D01*
X45099810Y-18330868D01*
X45087189Y-18335575D01*
X45077011Y-18344395D01*
X45055093Y-18347546D01*
X45034346Y-18355285D01*
X45021185Y-18352422D01*
X45007853Y-18354339D01*
X44987709Y-18345139D01*
X44966073Y-18340433D01*
X44948347Y-18327164D01*
X44944297Y-18325314D01*
X44937819Y-18319282D01*
X44886818Y-18268281D01*
X44853333Y-18206958D01*
X44850499Y-18180600D01*
X44850499Y-17502129D01*
X44850498Y-17502123D01*
X44850497Y-17502116D01*
X44844091Y-17442517D01*
X44825379Y-17392348D01*
X44793797Y-17307671D01*
X44793793Y-17307664D01*
X44707547Y-17192455D01*
X44707544Y-17192452D01*
X44592335Y-17106206D01*
X44592328Y-17106202D01*
X44457486Y-17055910D01*
X44457485Y-17055909D01*
X44457483Y-17055909D01*
X44397873Y-17049500D01*
X44397863Y-17049500D01*
X43777129Y-17049500D01*
X43777123Y-17049501D01*
X43717516Y-17055908D01*
X43582671Y-17106202D01*
X43582664Y-17106206D01*
X43467455Y-17192452D01*
X43467452Y-17192455D01*
X43381206Y-17307664D01*
X43381202Y-17307671D01*
X43330908Y-17442517D01*
X43324501Y-17502116D01*
X43324501Y-17502123D01*
X43324500Y-17502135D01*
X43324500Y-18497870D01*
X43324501Y-18497876D01*
X43330908Y-18557483D01*
X43381202Y-18692328D01*
X43381206Y-18692335D01*
X43467452Y-18807544D01*
X43467455Y-18807547D01*
X43582664Y-18893793D01*
X43582671Y-18893797D01*
X43627618Y-18910561D01*
X43717517Y-18944091D01*
X43777127Y-18950500D01*
X44397872Y-18950499D01*
X44437388Y-18946251D01*
X44506148Y-18958658D01*
X44538323Y-18981860D01*
X44907481Y-19351018D01*
X44940966Y-19412341D01*
X44943800Y-19438699D01*
X44943800Y-21135492D01*
X44924115Y-21202531D01*
X44871311Y-21248286D01*
X44802153Y-21258230D01*
X44738597Y-21229205D01*
X44720534Y-21209804D01*
X44707546Y-21192454D01*
X44707544Y-21192453D01*
X44707544Y-21192452D01*
X44592335Y-21106206D01*
X44592328Y-21106202D01*
X44497467Y-21070822D01*
X44441533Y-21028951D01*
X44417116Y-20963487D01*
X44416800Y-20954640D01*
X44416800Y-20368035D01*
X44433412Y-20306036D01*
X44479284Y-20226585D01*
X44516800Y-20086575D01*
X44516800Y-19941625D01*
X44479284Y-19801615D01*
X44474012Y-19792484D01*
X44406811Y-19676088D01*
X44406806Y-19676082D01*
X44304317Y-19573593D01*
X44304311Y-19573588D01*
X44178788Y-19501117D01*
X44178789Y-19501117D01*
X44167306Y-19498040D01*
X44038775Y-19463600D01*
X43893825Y-19463600D01*
X43765293Y-19498040D01*
X43753811Y-19501117D01*
X43628288Y-19573588D01*
X43628282Y-19573593D01*
X43525793Y-19676082D01*
X43525788Y-19676088D01*
X43453317Y-19801611D01*
X43453316Y-19801615D01*
X43415800Y-19941625D01*
X43415800Y-20086575D01*
X43453316Y-20226585D01*
X43499187Y-20306036D01*
X43515800Y-20368035D01*
X43515800Y-21094192D01*
X43496115Y-21161231D01*
X43473292Y-21185744D01*
X43473728Y-21186180D01*
X43467451Y-21192457D01*
X43381206Y-21307664D01*
X43381202Y-21307671D01*
X43330908Y-21442517D01*
X43324501Y-21502116D01*
X43324500Y-21502135D01*
X43324500Y-22074534D01*
X43304815Y-22141573D01*
X43288181Y-22162215D01*
X42477813Y-22972583D01*
X42477809Y-22972589D01*
X42418501Y-23075312D01*
X42418500Y-23075317D01*
X42387800Y-23189891D01*
X42387800Y-24754463D01*
X42371187Y-24816462D01*
X42325319Y-24895908D01*
X42325316Y-24895913D01*
X42308039Y-24960393D01*
X42287800Y-25035925D01*
X42287800Y-25180875D01*
X42325316Y-25320885D01*
X42371187Y-25400336D01*
X42387800Y-25462335D01*
X42387800Y-49780434D01*
X42368115Y-49847473D01*
X42351481Y-49868115D01*
X41821816Y-50397781D01*
X41760493Y-50431266D01*
X41734135Y-50434100D01*
X25325465Y-50434100D01*
X25258426Y-50414415D01*
X25237784Y-50397781D01*
X19399516Y-44559513D01*
X19399514Y-44559511D01*
X19296787Y-44500201D01*
X19258189Y-44489859D01*
X19258186Y-44489858D01*
X19226074Y-44481253D01*
X19182209Y-44469500D01*
X19182208Y-44469500D01*
X16111820Y-44469500D01*
X16044781Y-44449815D01*
X15999026Y-44397011D01*
X15990203Y-44369691D01*
X15975441Y-44295481D01*
X15962051Y-44228165D01*
X15919930Y-44126475D01*
X15886635Y-44046092D01*
X15886628Y-44046079D01*
X15777139Y-43882218D01*
X15777136Y-43882214D01*
X15637785Y-43742863D01*
X15637781Y-43742860D01*
X15473920Y-43633371D01*
X15473907Y-43633364D01*
X15291839Y-43557950D01*
X15291829Y-43557947D01*
X15098543Y-43519500D01*
X15098541Y-43519500D01*
X14901459Y-43519500D01*
X14901457Y-43519500D01*
X14708170Y-43557947D01*
X14708160Y-43557950D01*
X14526092Y-43633364D01*
X14526079Y-43633371D01*
X14441691Y-43689758D01*
X14375013Y-43710636D01*
X14307633Y-43692151D01*
X14260943Y-43640172D01*
X14248800Y-43586656D01*
X14248800Y-15670375D01*
X14268485Y-15603336D01*
X14285114Y-15582699D01*
X19810138Y-10057674D01*
X19871459Y-10024191D01*
X19922005Y-10023740D01*
X20032127Y-10045644D01*
X20056534Y-10050500D01*
X20056535Y-10050500D01*
X20263466Y-10050500D01*
X20263467Y-10050499D01*
X20466420Y-10010130D01*
X20657598Y-9930941D01*
X20829655Y-9815977D01*
X20975977Y-9669655D01*
X21090941Y-9497598D01*
X21170130Y-9306420D01*
X21203255Y-9139888D01*
X21210500Y-9103467D01*
X21210500Y-8896534D01*
X21210499Y-8896530D01*
X21170131Y-8693587D01*
X21170130Y-8693580D01*
X21090941Y-8502402D01*
X20975977Y-8330345D01*
X20975975Y-8330342D01*
X20829657Y-8184024D01*
X20692867Y-8092625D01*
X20657598Y-8069059D01*
X20466420Y-7989870D01*
X20466412Y-7989868D01*
X20263469Y-7949500D01*
X20263465Y-7949500D01*
X20056535Y-7949500D01*
X20056530Y-7949500D01*
X19853587Y-7989868D01*
X19853579Y-7989870D01*
X19662403Y-8069058D01*
X19490342Y-8184024D01*
X19344024Y-8330342D01*
X19229058Y-8502403D01*
X19149870Y-8693579D01*
X19149868Y-8693587D01*
X19109500Y-8896530D01*
X19109500Y-9103467D01*
X19136258Y-9237990D01*
X19130031Y-9307582D01*
X19102322Y-9349862D01*
X13440986Y-15011200D01*
X13347802Y-15104383D01*
X13347800Y-15104386D01*
X13281908Y-15218512D01*
X13247800Y-15345808D01*
X13247800Y-22589188D01*
X13228115Y-22656227D01*
X13175311Y-22701982D01*
X13106153Y-22711926D01*
X13042597Y-22682901D01*
X13004823Y-22624123D01*
X13001327Y-22608587D01*
X12999221Y-22595293D01*
X12938418Y-22408164D01*
X12849096Y-22232858D01*
X12823678Y-22197873D01*
X12823677Y-22197873D01*
X12218055Y-22803496D01*
X12194674Y-22716236D01*
X12136089Y-22614764D01*
X12053236Y-22531911D01*
X11951764Y-22473326D01*
X11864502Y-22449944D01*
X12470125Y-21844320D01*
X12470125Y-21844319D01*
X12435145Y-21818905D01*
X12259835Y-21729581D01*
X12072705Y-21668778D01*
X11878382Y-21638000D01*
X11681618Y-21638000D01*
X11487294Y-21668778D01*
X11300161Y-21729582D01*
X11124863Y-21818899D01*
X11124859Y-21818902D01*
X11089873Y-21844320D01*
X11089872Y-21844320D01*
X11695498Y-22449944D01*
X11608236Y-22473326D01*
X11506764Y-22531911D01*
X11423911Y-22614764D01*
X11365326Y-22716236D01*
X11341944Y-22803498D01*
X10736320Y-22197872D01*
X10736320Y-22197873D01*
X10710902Y-22232859D01*
X10710899Y-22232863D01*
X10621582Y-22408161D01*
X10560779Y-22595291D01*
X10556890Y-22619843D01*
X10526959Y-22682977D01*
X10467647Y-22719907D01*
X10397784Y-22718907D01*
X10396099Y-22718373D01*
X10292705Y-22684778D01*
X10098382Y-22654000D01*
X9901618Y-22654000D01*
X9707294Y-22684778D01*
X9520161Y-22745582D01*
X9344863Y-22834899D01*
X9344859Y-22834902D01*
X9309873Y-22860320D01*
X9309872Y-22860320D01*
X9915497Y-23465944D01*
X9828236Y-23489326D01*
X9726764Y-23547911D01*
X9643911Y-23630764D01*
X9585326Y-23732236D01*
X9561944Y-23819497D01*
X8956320Y-23213872D01*
X8956320Y-23213873D01*
X8930902Y-23248859D01*
X8930899Y-23248863D01*
X8841582Y-23424161D01*
X8780778Y-23611294D01*
X8750000Y-23805617D01*
X6545431Y-23805617D01*
X5582219Y-22842405D01*
X5548734Y-22781082D01*
X5545900Y-22754724D01*
X5545900Y-20988455D01*
X5565585Y-20921416D01*
X5618389Y-20875661D01*
X5687547Y-20865717D01*
X5751103Y-20894742D01*
X5777286Y-20926454D01*
X5897233Y-21134208D01*
X5897235Y-21134211D01*
X5897236Y-21134212D01*
X6046897Y-21329254D01*
X6046903Y-21329261D01*
X6220738Y-21503096D01*
X6220744Y-21503101D01*
X6415792Y-21652767D01*
X6628708Y-21775694D01*
X6855847Y-21869778D01*
X7093323Y-21933409D01*
X7337073Y-21965500D01*
X7337080Y-21965500D01*
X7582920Y-21965500D01*
X7582927Y-21965500D01*
X7826677Y-21933409D01*
X8064153Y-21869778D01*
X8291292Y-21775694D01*
X8504208Y-21652767D01*
X8699256Y-21503101D01*
X8873101Y-21329256D01*
X9022767Y-21134208D01*
X9145694Y-20921292D01*
X9239778Y-20694153D01*
X9303409Y-20456677D01*
X9335500Y-20212927D01*
X9335500Y-19967073D01*
X9303409Y-19723323D01*
X9239778Y-19485847D01*
X9145694Y-19258708D01*
X9022767Y-19045792D01*
X8873101Y-18850744D01*
X8873096Y-18850738D01*
X8699261Y-18676903D01*
X8699254Y-18676897D01*
X8504212Y-18527236D01*
X8504211Y-18527235D01*
X8504208Y-18527233D01*
X8304601Y-18411990D01*
X9854499Y-18411990D01*
X9894292Y-18612038D01*
X9894295Y-18612048D01*
X9972348Y-18800486D01*
X9972355Y-18800499D01*
X10085674Y-18970092D01*
X10085677Y-18970096D01*
X10229903Y-19114322D01*
X10229907Y-19114325D01*
X10399500Y-19227644D01*
X10399513Y-19227651D01*
X10578429Y-19301760D01*
X10587956Y-19305706D01*
X10587960Y-19305706D01*
X10587961Y-19305707D01*
X10788009Y-19345500D01*
X10788012Y-19345500D01*
X10991990Y-19345500D01*
X11145411Y-19314982D01*
X11192044Y-19305706D01*
X11380493Y-19227648D01*
X11550093Y-19114325D01*
X11694325Y-18970093D01*
X11807648Y-18800493D01*
X11885706Y-18612044D01*
X11908416Y-18497873D01*
X11925500Y-18411990D01*
X11925500Y-18208009D01*
X11885707Y-18007961D01*
X11885706Y-18007960D01*
X11885706Y-18007956D01*
X11885704Y-18007951D01*
X11807651Y-17819513D01*
X11807644Y-17819500D01*
X11694325Y-17649907D01*
X11694322Y-17649903D01*
X11550096Y-17505677D01*
X11550092Y-17505674D01*
X11380499Y-17392355D01*
X11380486Y-17392348D01*
X11192048Y-17314295D01*
X11192038Y-17314292D01*
X10991990Y-17274500D01*
X10991988Y-17274500D01*
X10788012Y-17274500D01*
X10788010Y-17274500D01*
X10587961Y-17314292D01*
X10587951Y-17314295D01*
X10399513Y-17392348D01*
X10399500Y-17392355D01*
X10229907Y-17505674D01*
X10229903Y-17505677D01*
X10085677Y-17649903D01*
X10085674Y-17649907D01*
X9972355Y-17819500D01*
X9972348Y-17819513D01*
X9894295Y-18007951D01*
X9894292Y-18007961D01*
X9854500Y-18208009D01*
X9854500Y-18208012D01*
X9854500Y-18411988D01*
X9854500Y-18411990D01*
X9854499Y-18411990D01*
X8304601Y-18411990D01*
X8291292Y-18404306D01*
X8291285Y-18404303D01*
X8079264Y-18316481D01*
X8064162Y-18310225D01*
X8064155Y-18310223D01*
X8064153Y-18310222D01*
X7826677Y-18246591D01*
X7785939Y-18241227D01*
X7582934Y-18214500D01*
X7582927Y-18214500D01*
X7337073Y-18214500D01*
X7337065Y-18214500D01*
X7105059Y-18245045D01*
X7093323Y-18246591D01*
X6987541Y-18274935D01*
X6855847Y-18310222D01*
X6855837Y-18310225D01*
X6628714Y-18404303D01*
X6628705Y-18404307D01*
X6415787Y-18527236D01*
X6220745Y-18676897D01*
X6220738Y-18676903D01*
X6046903Y-18850738D01*
X6046897Y-18850745D01*
X5897236Y-19045787D01*
X5897233Y-19045791D01*
X5897233Y-19045792D01*
X5879332Y-19076798D01*
X5777287Y-19253544D01*
X5726720Y-19301760D01*
X5658113Y-19314982D01*
X5593248Y-19289014D01*
X5552720Y-19232100D01*
X5545900Y-19191544D01*
X5545900Y-14213275D01*
X5565585Y-14146236D01*
X5582214Y-14125599D01*
X9650138Y-10057674D01*
X9711459Y-10024191D01*
X9762005Y-10023740D01*
X9872127Y-10045644D01*
X9896534Y-10050500D01*
X9896535Y-10050500D01*
X10103466Y-10050500D01*
X10103467Y-10050499D01*
X10306420Y-10010130D01*
X10497598Y-9930941D01*
X10669655Y-9815977D01*
X10815977Y-9669655D01*
X10930941Y-9497598D01*
X11010130Y-9306420D01*
X11043255Y-9139888D01*
X11050500Y-9103467D01*
X11050500Y-8896534D01*
X11050499Y-8896530D01*
X11010131Y-8693587D01*
X11010130Y-8693580D01*
X10930941Y-8502402D01*
X10815977Y-8330345D01*
X10815975Y-8330342D01*
X10669657Y-8184024D01*
X10532867Y-8092625D01*
X10497598Y-8069059D01*
X10306420Y-7989870D01*
X10306412Y-7989868D01*
X10103469Y-7949500D01*
X10103465Y-7949500D01*
X9896535Y-7949500D01*
X9896530Y-7949500D01*
X9693587Y-7989868D01*
X9693579Y-7989870D01*
X9502403Y-8069058D01*
X9330342Y-8184024D01*
X9184024Y-8330342D01*
X9069058Y-8502403D01*
X8989870Y-8693579D01*
X8989868Y-8693587D01*
X8949500Y-8896530D01*
X8949500Y-9103467D01*
X8976258Y-9237990D01*
X8970031Y-9307582D01*
X8942322Y-9349862D01*
X4738086Y-13554100D01*
X4644902Y-13647283D01*
X4644900Y-13647286D01*
X4579008Y-13761412D01*
X4544900Y-13888708D01*
X500500Y-13888708D01*
X500500Y-3878711D01*
X2149500Y-3878711D01*
X2149500Y-4121288D01*
X2181161Y-4361785D01*
X2243947Y-4596104D01*
X2336773Y-4820205D01*
X2336776Y-4820212D01*
X2458064Y-5030289D01*
X2458066Y-5030292D01*
X2458067Y-5030293D01*
X2605733Y-5222736D01*
X2605739Y-5222743D01*
X2777256Y-5394260D01*
X2777262Y-5394265D01*
X2969711Y-5541936D01*
X3179788Y-5663224D01*
X3403900Y-5756054D01*
X3638211Y-5818838D01*
X3818586Y-5842584D01*
X3878711Y-5850500D01*
X3878712Y-5850500D01*
X4121289Y-5850500D01*
X4169388Y-5844167D01*
X4361789Y-5818838D01*
X4596100Y-5756054D01*
X4820212Y-5663224D01*
X5030289Y-5541936D01*
X5222738Y-5394265D01*
X5394265Y-5222738D01*
X5541936Y-5030289D01*
X5663224Y-4820212D01*
X5756054Y-4596100D01*
X5818838Y-4361789D01*
X5830708Y-4271625D01*
X39012500Y-4271625D01*
X39012500Y-4416575D01*
X39050016Y-4556585D01*
X39122491Y-4682115D01*
X39122493Y-4682117D01*
X39123887Y-4684531D01*
X39140500Y-4746532D01*
X39140500Y-9050744D01*
X39154627Y-9103467D01*
X39164384Y-9139885D01*
X39164385Y-9139886D01*
X39210527Y-9219808D01*
X39210531Y-9219813D01*
X40340681Y-10349963D01*
X40374166Y-10411286D01*
X40377000Y-10437644D01*
X40377000Y-26679856D01*
X40368355Y-26709296D01*
X40361832Y-26739283D01*
X40358077Y-26744298D01*
X40357315Y-26746895D01*
X40340681Y-26767537D01*
X40250537Y-26857681D01*
X40189214Y-26891166D01*
X40162856Y-26894000D01*
X40086925Y-26894000D01*
X39980399Y-26922544D01*
X39946911Y-26931517D01*
X39821388Y-27003988D01*
X39821382Y-27003993D01*
X39718893Y-27106482D01*
X39718888Y-27106488D01*
X39646417Y-27232011D01*
X39646416Y-27232015D01*
X39608900Y-27372025D01*
X39608900Y-27516975D01*
X39646416Y-27656985D01*
X39646417Y-27656988D01*
X39718888Y-27782511D01*
X39718890Y-27782513D01*
X39718891Y-27782515D01*
X39821385Y-27885009D01*
X39821386Y-27885010D01*
X39821388Y-27885011D01*
X39946911Y-27957482D01*
X39946912Y-27957482D01*
X39946915Y-27957484D01*
X40086925Y-27995000D01*
X40086928Y-27995000D01*
X40231872Y-27995000D01*
X40231875Y-27995000D01*
X40371885Y-27957484D01*
X40497415Y-27885009D01*
X40599909Y-27782515D01*
X40672384Y-27656985D01*
X40709900Y-27516975D01*
X40709900Y-27441044D01*
X40729585Y-27374005D01*
X40746219Y-27353363D01*
X40867571Y-27232011D01*
X41007970Y-27091612D01*
X41054114Y-27011688D01*
X41070509Y-26950500D01*
X41078000Y-26922544D01*
X41078000Y-26623043D01*
X41097685Y-26556004D01*
X41150489Y-26510249D01*
X41219647Y-26500305D01*
X41263996Y-26515654D01*
X41370915Y-26577384D01*
X41510925Y-26614900D01*
X41510928Y-26614900D01*
X41655872Y-26614900D01*
X41655875Y-26614900D01*
X41795885Y-26577384D01*
X41921415Y-26504909D01*
X42023909Y-26402415D01*
X42096384Y-26276885D01*
X42133900Y-26136875D01*
X42133900Y-25991925D01*
X42096384Y-25851915D01*
X42062141Y-25792605D01*
X42023911Y-25726388D01*
X42023906Y-25726382D01*
X41970219Y-25672695D01*
X41936734Y-25611372D01*
X41933900Y-25585014D01*
X41933900Y-10173225D01*
X47528500Y-10173225D01*
X47528500Y-10318175D01*
X47560512Y-10437644D01*
X47566017Y-10458188D01*
X47638488Y-10583711D01*
X47638493Y-10583717D01*
X47692181Y-10637405D01*
X47725666Y-10698728D01*
X47728500Y-10725086D01*
X47728500Y-28592744D01*
X47736457Y-28622443D01*
X47739048Y-28632111D01*
X47745063Y-28654557D01*
X47752386Y-28681888D01*
X47798530Y-28761812D01*
X47805122Y-28768404D01*
X47813305Y-28784693D01*
X47817538Y-28807966D01*
X47826070Y-28830033D01*
X47826500Y-28840355D01*
X47826500Y-28917075D01*
X47860335Y-29043347D01*
X47864017Y-29057088D01*
X47936488Y-29182611D01*
X47936490Y-29182613D01*
X47936491Y-29182615D01*
X48038985Y-29285109D01*
X48038986Y-29285110D01*
X48038988Y-29285111D01*
X48164511Y-29357582D01*
X48164512Y-29357582D01*
X48164515Y-29357584D01*
X48304525Y-29395100D01*
X48304528Y-29395100D01*
X48449472Y-29395100D01*
X48449475Y-29395100D01*
X48589485Y-29357584D01*
X48715015Y-29285109D01*
X48817509Y-29182615D01*
X48889984Y-29057085D01*
X48927500Y-28917075D01*
X48927500Y-28772125D01*
X48889984Y-28632115D01*
X48874782Y-28605785D01*
X48817511Y-28506588D01*
X48817506Y-28506582D01*
X48715017Y-28404093D01*
X48715011Y-28404088D01*
X48589488Y-28331617D01*
X48589483Y-28331615D01*
X48521405Y-28313373D01*
X48461745Y-28277008D01*
X48431217Y-28214161D01*
X48429500Y-28193599D01*
X48429500Y-10725086D01*
X48449185Y-10658047D01*
X48465819Y-10637405D01*
X48487201Y-10616023D01*
X48519509Y-10583715D01*
X48591984Y-10458185D01*
X48629500Y-10318175D01*
X48629500Y-10173225D01*
X48591984Y-10033215D01*
X48579048Y-10010810D01*
X48519511Y-9907688D01*
X48519506Y-9907682D01*
X48417017Y-9805193D01*
X48417011Y-9805188D01*
X48291488Y-9732717D01*
X48291489Y-9732717D01*
X48280006Y-9729640D01*
X48151475Y-9695200D01*
X48006525Y-9695200D01*
X47877993Y-9729640D01*
X47866511Y-9732717D01*
X47740988Y-9805188D01*
X47740982Y-9805193D01*
X47638493Y-9907682D01*
X47638488Y-9907688D01*
X47566017Y-10033211D01*
X47566016Y-10033215D01*
X47528500Y-10173225D01*
X41933900Y-10173225D01*
X41933900Y-9778258D01*
X41933900Y-9778256D01*
X41910014Y-9689112D01*
X41863870Y-9609188D01*
X40679619Y-8424937D01*
X40646134Y-8363614D01*
X40643300Y-8337256D01*
X40643300Y-8261327D01*
X40643300Y-8261325D01*
X40605784Y-8121315D01*
X40575613Y-8069058D01*
X40533311Y-7995788D01*
X40533306Y-7995782D01*
X40430817Y-7893293D01*
X40430811Y-7893288D01*
X40305288Y-7820817D01*
X40305289Y-7820817D01*
X40293806Y-7817740D01*
X40165275Y-7783300D01*
X40020325Y-7783300D01*
X40020323Y-7783300D01*
X39997592Y-7789391D01*
X39927742Y-7787728D01*
X39869880Y-7748564D01*
X39842377Y-7684336D01*
X39841500Y-7669616D01*
X39841500Y-4890561D01*
X39861185Y-4823522D01*
X39895512Y-4790790D01*
X39894566Y-4789557D01*
X39901007Y-4784613D01*
X39901015Y-4784609D01*
X40003509Y-4682115D01*
X40075984Y-4556585D01*
X40113500Y-4416575D01*
X40113500Y-4271625D01*
X40075984Y-4131615D01*
X40003509Y-4006085D01*
X39901015Y-3903591D01*
X39901013Y-3903590D01*
X39901011Y-3903588D01*
X39857923Y-3878711D01*
X79149500Y-3878711D01*
X79149500Y-4121288D01*
X79181161Y-4361785D01*
X79243947Y-4596104D01*
X79336773Y-4820205D01*
X79336776Y-4820212D01*
X79458064Y-5030289D01*
X79458066Y-5030292D01*
X79458067Y-5030293D01*
X79605733Y-5222736D01*
X79605739Y-5222743D01*
X79777256Y-5394260D01*
X79777262Y-5394265D01*
X79969711Y-5541936D01*
X80179788Y-5663224D01*
X80403900Y-5756054D01*
X80638211Y-5818838D01*
X80818586Y-5842584D01*
X80878711Y-5850500D01*
X80878712Y-5850500D01*
X81121289Y-5850500D01*
X81169388Y-5844167D01*
X81361789Y-5818838D01*
X81596100Y-5756054D01*
X81820212Y-5663224D01*
X82030289Y-5541936D01*
X82222738Y-5394265D01*
X82394265Y-5222738D01*
X82541936Y-5030289D01*
X82663224Y-4820212D01*
X82756054Y-4596100D01*
X82818838Y-4361789D01*
X82850500Y-4121288D01*
X82850500Y-3878712D01*
X82818838Y-3638211D01*
X82756054Y-3403900D01*
X82663224Y-3179788D01*
X82541936Y-2969711D01*
X82394265Y-2777262D01*
X82394260Y-2777256D01*
X82222743Y-2605739D01*
X82222736Y-2605733D01*
X82030293Y-2458067D01*
X82030292Y-2458066D01*
X82030289Y-2458064D01*
X81820212Y-2336776D01*
X81820205Y-2336773D01*
X81596104Y-2243947D01*
X81361785Y-2181161D01*
X81121289Y-2149500D01*
X81121288Y-2149500D01*
X80878712Y-2149500D01*
X80878711Y-2149500D01*
X80638214Y-2181161D01*
X80403895Y-2243947D01*
X80179794Y-2336773D01*
X80179785Y-2336777D01*
X79969706Y-2458067D01*
X79777263Y-2605733D01*
X79777256Y-2605739D01*
X79605739Y-2777256D01*
X79605733Y-2777263D01*
X79458067Y-2969706D01*
X79336777Y-3179785D01*
X79336773Y-3179794D01*
X79243947Y-3403895D01*
X79181161Y-3638214D01*
X79149500Y-3878711D01*
X39857923Y-3878711D01*
X39775488Y-3831117D01*
X39775489Y-3831117D01*
X39764006Y-3828040D01*
X39635475Y-3793600D01*
X39490525Y-3793600D01*
X39361993Y-3828040D01*
X39350511Y-3831117D01*
X39224988Y-3903588D01*
X39224982Y-3903593D01*
X39122493Y-4006082D01*
X39122488Y-4006088D01*
X39050017Y-4131611D01*
X39050016Y-4131615D01*
X39012500Y-4271625D01*
X5830708Y-4271625D01*
X5850500Y-4121288D01*
X5850500Y-3878712D01*
X5818838Y-3638211D01*
X5756054Y-3403900D01*
X5663224Y-3179788D01*
X5541936Y-2969711D01*
X5394265Y-2777262D01*
X5394260Y-2777256D01*
X5222743Y-2605739D01*
X5222736Y-2605733D01*
X5030293Y-2458067D01*
X5030292Y-2458066D01*
X5030289Y-2458064D01*
X4820212Y-2336776D01*
X4820205Y-2336773D01*
X4596104Y-2243947D01*
X4361785Y-2181161D01*
X4121289Y-2149500D01*
X4121288Y-2149500D01*
X3878712Y-2149500D01*
X3878711Y-2149500D01*
X3638214Y-2181161D01*
X3403895Y-2243947D01*
X3179794Y-2336773D01*
X3179785Y-2336777D01*
X2969706Y-2458067D01*
X2777263Y-2605733D01*
X2777256Y-2605739D01*
X2605739Y-2777256D01*
X2605733Y-2777263D01*
X2458067Y-2969706D01*
X2336777Y-3179785D01*
X2336773Y-3179794D01*
X2243947Y-3403895D01*
X2181161Y-3638214D01*
X2149500Y-3878711D01*
X500500Y-3878711D01*
X500500Y-624500D01*
X520185Y-557461D01*
X572989Y-511706D01*
X624500Y-500500D01*
X84375500Y-500500D01*
X84442539Y-520185D01*
G37*
G04 #@! TD.AperFunction*
G04 #@! TD*
M02*
