M48
; DRILL file KiCad 10.0.3 date 2026-06-03T10:39:50
; FORMAT={-:-/ absolute / metric / decimal}
; #@! TF.CreationDate,2026-06-03T10:39:50-07:00
; #@! TF.GenerationSoftware,Kicad,Pcbnew,10.0.3
; #@! TF.FileFunction,MixedPlating,1,2
FMAT,2
METRIC
; #@! TA.AperFunction,Plated,PTH,ComponentDrill
T1C0.200
; #@! TA.AperFunction,Plated,PTH,ViaDrill
T2C0.300
; #@! TA.AperFunction,Plated,PTH,ComponentDrill
T3C0.800
; #@! TA.AperFunction,Plated,PTH,ComponentDrill
T4C0.890
; #@! TA.AperFunction,Plated,PTH,ComponentDrill
T5C1.000
; #@! TA.AperFunction,Plated,PTH,ComponentDrill
T6C1.570
; #@! TA.AperFunction,NonPlated,NPTH,ComponentDrill
T7C3.200
; #@! TA.AperFunction,NonPlated,NPTH,ComponentDrill
T8C3.250
%
G90
G05
T1
X57.1Y-28.61
X57.1Y-30.01
X57.8Y-27.91
X57.8Y-29.31
X57.8Y-30.71
X58.5Y-28.61
X58.5Y-30.01
X59.2Y-27.91
X59.2Y-29.31
X59.2Y-30.71
X59.9Y-28.61
X59.9Y-30.01
T2
X15.244Y-39.908
X24.077Y-13.235
X25.571Y-60.654
X27.811Y-54.727
X30.24Y-60.654
X35.878Y-7.308
X38.372Y-9.605
X39.563Y-4.344
X40.07Y-24.448
X40.093Y-8.334
X40.159Y-27.444
X41.583Y-26.064
X42.838Y-25.108
X43.385Y-60.036
X43.966Y-20.014
X44.943Y-23.099
X46.183Y-19.263
X48.054Y-54.727
X48.079Y-10.246
X48.377Y-28.845
X48.719Y-21.652
X51.315Y-8.165
X51.767Y-60.654
X52.099Y-10.271
X54.253Y-7.308
X54.253Y-33.981
X55.412Y-40.744
X56.683Y-40.702
X60.129Y-61.518
X63.067Y-25.401
X65.868Y-54.727
X66.005Y-22.273
X66.4Y-36.945
X67.468Y-37.482
X69.581Y-60.654
T3
X10.0Y-9.0
X20.16Y-9.0
T4
X10.0Y-23.904
X10.0Y-25.936
X10.0Y-27.968
X10.0Y-30.0
X11.78Y-22.888
X11.78Y-24.92
X11.78Y-26.952
X11.78Y-28.984
T5
X15.0Y-44.92
X15.0Y-47.46
X15.0Y-50.0
X75.0Y-14.0
X75.0Y-16.54
X75.0Y-19.08
X75.0Y-21.62
X75.0Y-38.0
X75.0Y-40.54
X75.0Y-43.08
X75.0Y-45.62
T6
X10.89Y-18.31
X10.89Y-34.57
T7
X4.0Y-4.0
X4.0Y-61.0
X81.0Y-4.0
X81.0Y-61.0
T8
X7.46Y-20.09
X7.46Y-32.79
M30
